Enclosed-Bold.sfdir
StartChar: uF1D83
Encoding: 990595 990595 1
Width: 1000
Flags: MW
LayerCount: 2
Fore
SplineSet
50 300 m 0
 50 584 236 760 501 760 c 0
 758 760 949 589 950 300 c 0
 950 21 769 -160 499 -160 c 0
 230 -160 50 24 50 300 c 0
112 299 m 0
 112 55 269 -97 498 -97 c 0
 724 -97 887 47 887 301 c 0
 887 547 729 697 502 697 c 0
 276 697 112 553 112 299 c 0
357.200195312 451.549804688 m 1
 357.200195312 502.649414062 l 1
 438.400390625 502.649414062 496.5 518.049804688 535.700195312 550.950195312 c 1
 560.200195312 550.950195312 l 1
 560.200195312 100.149414062 l 1
 642.799804688 100.149414062 l 1
 642.799804688 49.0498046875 l 1
 367.700195312 49.0498046875 l 1
 367.700195312 100.149414062 l 1
 463.599609375 100.149414062 l 1
 463.599609375 462.75 l 1
 424.400390625 454.349609375 390.799804688 451.549804688 357.200195312 451.549804688 c 1
EndSplineSet
EndChar
StartChar: uF1D85
Encoding: 990597 990597 3
Width: 1000
Flags: MW
LayerCount: 2
Fore
SplineSet
50 300 m 0
 50 584 236 760 501 760 c 0
 758 760 949 589 950 300 c 0
 950 21 769 -160 499 -160 c 0
 230 -160 50 24 50 300 c 0
112 299 m 0
 112 55 269 -97 498 -97 c 0
 724 -97 887 47 887 301 c 0
 887 547 729 697 502 697 c 0
 276 697 112 553 112 299 c 0
306.799804688 97.349609375 m 1
 318 162.450195312 l 1
 340.400390625 143.549804688 364.200195312 128.150390625 393.599609375 118.349609375 c 0
 421.599609375 112.049804688 452.400390625 107.849609375 487.400390625 107.849609375 c 0
 523.799804688 107.849609375 548.299804688 114.849609375 563.700195312 126.049804688 c 0
 587.5 143.549804688 589.599609375 170.150390625 589.599609375 194.650390625 c 2
 589.599609375 207.950195312 l 2xe8
 589.599609375 239.450195312 581.200195312 259.049804688 567.200195312 271.650390625 c 0
 539.200195312 298.25 491.599609375 292.650390625 472 294.049804688 c 2
 409 294.049804688 l 1
 409 344.450195312 l 1
 446.799804688 346.549804688 460.799804688 346.549804688 473.400390625 348.650390625 c 0
 519.599609375 354.950195312 565.799804688 385.75 565.799804688 439.650390625 c 0
 565.799804688 457.150390625 562.299804688 473.950195312 546.900390625 484.450195312 c 0
 535.700195312 492.150390625 518.900390625 496.349609375 491.599609375 496.349609375 c 0xf0
 459.400390625 496.349609375 432.799804688 491.450195312 410.400390625 483.75 c 0
 388 476.049804688 376.799804688 465.549804688 368.400390625 456.450195312 c 0
 360.700195312 448.049804688 356.5 440.349609375 354.400390625 436.849609375 c 1
 316.599609375 490.049804688 l 1
 335.5 513.150390625 359.299804688 532.75 389.400390625 545.349609375 c 0
 419.5 553.75 454.5 558.650390625 494.400390625 558.650390625 c 0
 576.299804688 558.650390625 615.5 545.349609375 637.200195312 525.75 c 0
 665.900390625 500.549804688 672.200195312 464.849609375 672.200195312 437.549804688 c 0xf0
 672.200195312 407.450195312 661.700195312 384.349609375 648.400390625 366.849609375 c 0
 630.900390625 343.049804688 607.099609375 329.049804688 593.799804688 321.349609375 c 1
 607.799804688 317.849609375 643.5 309.450195312 668 280.049804688 c 0
 683.400390625 261.849609375 693.200195312 235.950195312 693.200195312 198.849609375 c 0
 693.200195312 149.849609375 680.599609375 100.150390625 637.200195312 70.0498046875 c 4
 612 52.5498046875 567.200195312 41.349609375 493 41.349609375 c 0
 451 41.349609375 413.200195312 45.5498046875 382.400390625 53.25 c 0
 354.400390625 63.0498046875 329.900390625 77.75 306.799804688 97.349609375 c 1
EndSplineSet
EndChar
StartChar: uF1D86
Encoding: 990598 990598 4
Width: 1000
Flags: MW
LayerCount: 2
Fore
SplineSet
50 300 m 0
 50 584 236 760 501 760 c 0
 758 760 949 589 950 300 c 0
 950 21 769 -160 499 -160 c 0
 230 -160 50 24 50 300 c 0
112 299 m 0
 112 55 269 -97 498 -97 c 0
 724 -97 887 47 887 301 c 0
 887 547 729 697 502 697 c 0
 276 697 112 553 112 299 c 0
301.200195312 163.150390625 m 1
 301.200195312 229.650390625 l 1
 301.200195312 229.650390625 l 1
 514.700195312 543.25 l 1
 635.799804688 543.25 l 1
 635.799804688 229.650390625 l 1
 698.799804688 229.650390625 l 1
 698.799804688 163.150390625 l 1
 635.799804688 163.150390625 l 1
 635.799804688 56.75 l 1
 546.900390625 56.75 l 1
 546.900390625 163.150390625 l 1
 301.200195312 163.150390625 l 1
374.700195312 229.650390625 m 1
 552.5 229.650390625 l 1
 552.5 471.150390625 l 1
 533.599609375 426.349609375 494.400390625 382.950195312 374.700195312 229.650390625 c 1
EndSplineSet
EndChar
StartChar: uF1D87
Encoding: 990599 990599 5
Width: 1000
Flags: MW
LayerCount: 2
Fore
SplineSet
50 300 m 0
 50 584 236 760 501 760 c 0
 758 760 949 589 950 300 c 0
 950 21 769 -160 499 -160 c 0
 230 -160 50 24 50 300 c 0
112 299 m 0
 112 55 269 -97 498 -97 c 0
 724 -97 887 47 887 301 c 0
 887 547 729 697 502 697 c 0
 276 697 112 553 112 299 c 0
306.799804688 121.850585938 m 1
 343.200195312 182.75 l 1
 347.400390625 175.75 350.900390625 169.450195312 355.799804688 162.450195312 c 0
 367 147.049804688 381.700195312 135.850585938 399.200195312 128.150390625 c 0
 425.799804688 119.049804688 453.799804688 114.850585938 480.400390625 114.850585938 c 0
 526.599609375 114.850585938 553.200195312 123.950195312 568.599609375 140.049804688 c 0
 587.5 158.950195312 598 186.950195312 598 218.450195312 c 2
 598 238.049804688 l 2
 598 266.049804688 587.5 294.75 572.099609375 312.25 c 0
 562.299804688 322.75 546.200195312 329.75 522.400390625 329.75 c 0
 446.799804688 329.75 421.599609375 271.650390625 420.200195312 271.650390625 c 2
 339 271.650390625 l 1
 339 550.950195312 l 1
 668 550.950195312 l 1
 668 480.25 l 1
 434.200195312 480.25 l 1
 434.200195312 368.950195312 l 1
 455.200195312 375.25 491.599609375 380.850585938 528 380.850585938 c 0
 588.900390625 380.850585938 623.200195312 371.049804688 648.400390625 348.650390625 c 0
 677.099609375 322.75 693.200195312 280.75 693.200195312 217.75 c 0
 693.200195312 158.25 676.400390625 119.049804688 649.799804688 93.150390625 c 0
 616.200195312 60.25 556 49.0498046875 484.599609375 49.0498046875 c 0
 441.200195312 49.0498046875 405.5 54.650390625 381 63.0498046875 c 0
 339.700195312 79.8505859375 316.599609375 107.850585938 306.799804688 121.850585938 c 1
EndSplineSet
EndChar
StartChar: uF1D89
Encoding: 990601 990601 7
Width: 1000
Flags: MW
LayerCount: 2
Fore
SplineSet
50 300 m 0
 50 584 236 760 501 760 c 0
 758 760 949 589 950 300 c 0
 950 21 769 -160 499 -160 c 0
 230 -160 50 24 50 300 c 0
112 299 m 0
 112 55 269 -97 498 -97 c 0
 724 -97 887 47 887 301 c 0
 887 547 729 697 502 697 c 0
 276 697 112 553 112 299 c 0
301.200195312 471.5 m 1
 301.200195312 547.099609375 l 1
 698.799804688 547.099609375 l 1
 698.799804688 476.400390625 l 1
 588.200195312 356 469.200195312 200.599609375 469.200195312 52.900390625 c 1
 369.799804688 52.900390625 l 1
 369.799804688 210.400390625 483.200195312 360.19921875 626 472.19921875 c 1
 301.200195312 471.5 l 1
EndSplineSet
EndChar
StartChar: uF1D8A
Encoding: 990602 990602 8
Width: 1000
Flags: MW
LayerCount: 2
Fore
SplineSet
50 300 m 0
 50 584 236 760 501 760 c 0
 758 760 949 589 950 300 c 0
 950 21 769 -160 499 -160 c 0
 230 -160 50 24 50 300 c 0
112 299 m 0
 112 55 269 -97 498 -97 c 0
 724 -97 887 47 887 301 c 0
 887 547 729 697 502 697 c 0
 276 697 112 553 112 299 c 0
308.200195312 197.450195312 m 0xf2
 308.200195312 257.650390625 334.099609375 302.450195312 395 319.25 c 1
 379.599609375 325.549804688 318.700195312 340.950195312 318.700195312 422.849609375 c 0
 318.700195312 490.75 348.799804688 558.650390625 500 558.650390625 c 2
 500.700195312 558.650390625 l 2
 651.900390625 558.650390625 681.299804688 490.75 681.299804688 422.150390625 c 0xec
 681.299804688 332.549804688 605.700195312 322.049804688 605 319.25 c 1
 665.900390625 302.450195312 691.799804688 257.650390625 691.799804688 197.450195312 c 0
 691.799804688 119.049804688 659.599609375 41.349609375 500 41.349609375 c 0
 340.400390625 41.349609375 308.200195312 119.75 308.200195312 197.450195312 c 0xf2
406.200195312 189.75 m 2
 407.599609375 163.150390625 408.299804688 137.950195312 430.700195312 122.549804688 c 0
 444.700195312 113.450195312 465 107.849609375 498.599609375 107.849609375 c 0
 528 107.849609375 549 112.75 563 119.75 c 4
 596.599609375 137.950195312 593.099609375 172.950195312 594.5 195.349609375 c 2
 594.5 210.049804688 l 2xf2
 593.099609375 238.75 588.900390625 263.25 569.299804688 277.950195312 c 0
 555.299804688 288.450195312 533.599609375 294.049804688 500 294.049804688 c 0
 466.400390625 294.049804688 445.400390625 287.75 431.400390625 277.950195312 c 0
 404.099609375 257.650390625 407.599609375 224.049804688 406.200195312 205.849609375 c 2
 406.200195312 189.75 l 2
409.700195312 414.450195312 m 2xec
 409.700195312 389.25 415.299804688 371.049804688 430.700195312 359.150390625 c 0
 444.700195312 349.349609375 466.400390625 344.450195312 498.599609375 344.450195312 c 0
 533.599609375 344.450195312 553.900390625 350.049804688 567.900390625 359.150390625 c 0
 587.5 373.150390625 590.299804688 394.150390625 590.299804688 415.150390625 c 2
 590.299804688 427.75 l 2
 590.299804688 450.150390625 585.400390625 466.950195312 574.200195312 478.150390625 c 0
 561.599609375 490.75 538.5 496.349609375 500.700195312 496.349609375 c 0
 467.099609375 496.349609375 446.799804688 491.450195312 432.799804688 483.75 c 0
 409 469.75 411.099609375 446.650390625 409.700195312 427.049804688 c 2
 409.700195312 414.450195312 l 2xec
EndSplineSet
EndChar
StartChar: uF1D90
Encoding: 990608 990608 14
Width: 1000
Flags: MW
LayerCount: 2
Fore
SplineSet
50 300 m 0
 50 584 236 760 501 760 c 0
 758 760 949 589 950 300 c 0
 950 21 769 -160 499 -160 c 0
 230 -160 50 24 50 300 c 0
112 299 m 0
 112 55 269 -97 498 -97 c 0
 724 -97 887 47 887 301 c 0
 887 547 729 697 502 697 c 0
 276 697 112 553 112 299 c 0
516.799804688 155.450195312 m 1
 516.799804688 221.950195312 l 1
 516.799804688 221.950195312 l 1
 669.400390625 535.549804688 l 1
 773 535.549804688 l 1
 773 221.950195312 l 1
 836 221.950195312 l 1
 836 155.450195312 l 1
 773 155.450195312 l 1
 773 49.0498046875 l 1
 686.900390625 49.0498046875 l 1
 686.900390625 155.450195312 l 1
 516.799804688 155.450195312 l 1
590.299804688 221.950195312 m 1
 689.700195312 221.950195312 l 1
 689.700195312 463.450195312 l 1
 679.900390625 418.649414062 658.900390625 375.25 590.299804688 221.950195312 c 1
192.700195312 451.549804688 m 1
 192.700195312 502.649414062 l 1
 273.900390625 502.649414062 321.5 518.049804688 360.700195312 550.950195312 c 1
 385.200195312 550.950195312 l 1
 385.200195312 100.149414062 l 1
 467.799804688 100.149414062 l 1
 467.799804688 49.0498046875 l 1
 203.200195312 49.0498046875 l 1
 203.200195312 100.149414062 l 1
 288.599609375 100.149414062 l 1
 288.599609375 462.75 l 1
 259.200195312 454.349609375 226.299804688 451.549804688 192.700195312 451.549804688 c 1
EndSplineSet
EndChar
StartChar: uF1D93
Encoding: 990611 990611 17
Width: 1000
Flags: MW
LayerCount: 2
Fore
SplineSet
50 300 m 0
 50 584 236 760 501 760 c 0
 758 760 949 589 950 300 c 0
 950 21 769 -160 499 -160 c 0
 230 -160 50 24 50 300 c 0
112 299 m 0
 112 55 269 -97 498 -97 c 0
 724 -97 887 47 887 301 c 0
 887 547 729 697 502 697 c 0
 276 697 112 553 112 299 c 0
525.200195312 463.80078125 m 1
 525.200195312 539.400390625 l 1
 831.799804688 539.400390625 l 1
 831.799804688 468.69921875 l 1
 731.700195312 348.30078125 692.5 192.900390625 692.5 45.19921875 c 1
 593.099609375 45.19921875 l 1
 593.099609375 202.69921875 655.400390625 356 776.5 464.5 c 1
 525.200195312 463.80078125 l 1
192.700195312 455.400390625 m 1
 192.700195312 506.5 l 1
 273.900390625 506.5 321.5 521.900390625 360.700195312 554.80078125 c 1
 385.200195312 554.80078125 l 1
 385.200195312 104 l 1
 467.799804688 104 l 1
 467.799804688 52.900390625 l 1
 203.200195312 52.900390625 l 1
 203.200195312 104 l 1
 288.599609375 104 l 1
 288.599609375 466.599609375 l 1
 259.200195312 458.19921875 226.299804688 455.400390625 192.700195312 455.400390625 c 1
EndSplineSet
EndChar
StartChar: uF1F87
Encoding: 991111 991111 1714
Width: 1000
Flags: MW
LayerCount: 2
Fore
SplineSet
700 -184 m 1
 720 -160 743 -130 766 -88 c 0
 807 -12 864 104 864 303 c 0
 864 663 713 764 700 789 c 1
 753 789 l 1
 898 672 960 495 960 302 c 0
 960 109 898 -67 753 -184 c 1
 700 -184 l 1
40 302 m 0
 40 497 102 672 248 789 c 1
 300 789 l 1
 278 762 251 727 226 676 c 0
 189 600 137 486 137 303 c 0
 137 -59 287 -157 300 -184 c 1
 248 -184 l 1
 102 -66 40 111 40 302 c 0
357.200195312 502.5 m 1
 357.200195312 553.599609375 l 1
 438.400390625 553.599609375 496.5 569 535.700195312 601.900390625 c 1
 560.200195312 601.900390625 l 1
 560.200195312 151.099609375 l 1
 642.799804688 151.099609375 l 1
 642.799804688 100 l 1
 367.700195312 100 l 1
 367.700195312 151.099609375 l 1
 463.599609375 151.099609375 l 1
 463.599609375 513.700195312 l 1
 424.400390625 505.299804688 390.799804688 502.5 357.200195312 502.5 c 1
EndSplineSet
EndChar
StartChar: uF1F88
Encoding: 991112 991112 1715
Width: 1000
Flags: MW
LayerCount: 2
Fore
SplineSet
700 -184 m 1
 720 -160 743 -130 766 -88 c 0
 807 -12 864 104 864 303 c 0
 864 663 713 764 700 789 c 1
 753 789 l 1
 898 672 960 495 960 302 c 0
 960 109 898 -67 753 -184 c 1
 700 -184 l 1
40 302 m 0
 40 497 102 672 248 789 c 1
 300 789 l 1
 278 762 251 727 226 676 c 0
 189 600 137 486 137 303 c 0
 137 -59 287 -157 300 -184 c 1
 248 -184 l 1
 102 -66 40 111 40 302 c 0
306.099609375 501.799804688 m 1
 325.700195312 550.099609375 366.299804688 601.900390625 488.099609375 601.900390625 c 0
 635.799804688 601.900390625 693.900390625 522.099609375 693.900390625 440.900390625 c 0
 693.900390625 369.5 641.400390625 333.099609375 518.200195312 260.299804688 c 2
 378.900390625 174.200195312 l 1
 693.900390625 175.599609375 l 1
 693.900390625 100 l 1
 312.400390625 100 l 1
 312.400390625 170 l 1
 434.200195312 277.799804688 l 2
 481.799804688 307.900390625 587.5 364.599609375 587.5 439.5 c 0
 587.5 486.400390625 548.299804688 531.900390625 471.299804688 531.900390625 c 0
 388.700195312 531.900390625 367 485.700195312 354.400390625 440.200195312 c 1
 306.099609375 501.799804688 l 1
EndSplineSet
EndChar
StartChar: uF1F8A
Encoding: 991114 991114 1717
Width: 1000
Flags: MW
LayerCount: 2
Fore
SplineSet
700 -184 m 1
 720 -160 743 -130 766 -88 c 0
 807 -12 864 104 864 303 c 0
 864 663 713 764 700 789 c 1
 753 789 l 1
 898 672 960 495 960 302 c 0
 960 109 898 -67 753 -184 c 1
 700 -184 l 1
40 302 m 0
 40 497 102 672 248 789 c 1
 300 789 l 1
 278 762 251 727 226 676 c 0
 189 600 137 486 137 303 c 0
 137 -59 287 -157 300 -184 c 1
 248 -184 l 1
 102 -66 40 111 40 302 c 0
301.200195312 206.400390625 m 1
 301.200195312 272.900390625 l 1
 301.200195312 272.900390625 l 1
 514.700195312 586.5 l 1
 635.799804688 586.5 l 1
 635.799804688 272.900390625 l 1
 698.799804688 272.900390625 l 1
 698.799804688 206.400390625 l 1
 635.799804688 206.400390625 l 1
 635.799804688 100 l 1
 546.900390625 100 l 1
 546.900390625 206.400390625 l 1
 301.200195312 206.400390625 l 1
374.700195312 272.900390625 m 1
 552.5 272.900390625 l 1
 552.5 514.400390625 l 1
 533.599609375 469.599609375 494.400390625 426.200195312 374.700195312 272.900390625 c 1
EndSplineSet
EndChar
StartChar: uF1F8C
Encoding: 991116 991116 1719
Width: 1000
Flags: MW
LayerCount: 2
Fore
SplineSet
700 -184 m 1
 720 -160 743 -130 766 -88 c 0
 807 -12 864 104 864 303 c 0
 864 663 713 764 700 789 c 1
 753 789 l 1
 898 672 960 495 960 302 c 0
 960 109 898 -67 753 -184 c 1
 700 -184 l 1
40 302 m 0
 40 497 102 672 248 789 c 1
 300 789 l 1
 278 762 251 727 226 676 c 0
 189 600 137 486 137 303 c 0
 137 -59 287 -157 300 -184 c 1
 248 -184 l 1
 102 -66 40 111 40 302 c 0
308.900390625 339.400390625 m 0
 308.900390625 450.700195312 331.299804688 496.200195312 350.900390625 525.599609375 c 0
 385.200195312 577.400390625 460.799804688 601.900390625 563.700195312 601.900390625 c 0
 600.099609375 601.900390625 616.200195312 598.400390625 641.400390625 587.200195312 c 1
 641.400390625 522.799804688 l 1
 619.700195312 533.299804688 603.599609375 539.599609375 567.200195312 539.599609375 c 0
 491.599609375 539.599609375 453.799804688 513 439.799804688 497.599609375 c 0
 421.599609375 477.299804688 407.599609375 442.299804688 407.599609375 373.700195312 c 1
 429.299804688 408.700195312 471.299804688 445.099609375 549 445.099609375 c 0
 622.5 445.099609375 646.299804688 418.5 661.700195312 396.799804688 c 0
 688.299804688 357.599609375 691.099609375 319.799804688 691.099609375 275 c 2
 691.099609375 270.799804688 l 2
 691.099609375 232.299804688 690.400390625 188.900390625 665.900390625 149.700195312 c 0
 624.599609375 86 551.799804688 84.599609375 502.799804688 84.599609375 c 0
 423 84.599609375 382.400390625 103.5 358.599609375 132.200195312 c 0
 311 188.900390625 308.900390625 283.400390625 308.900390625 339.400390625 c 0
408.299804688 277.099609375 m 0
 408.299804688 271.5 408.299804688 265.900390625 408.299804688 260.299804688 c 4
 409.700195312 203.599609375 421.599609375 150.400390625 505.599609375 150.400390625 c 0
 572.799804688 150.400390625 589.599609375 181.900390625 592.400390625 219 c 0
 593.799804688 235.099609375 591.700195312 251.900390625 593.099609375 268 c 2
 593.099609375 291.799804688 l 2
 591.700195312 319.099609375 592.400390625 345.700195312 581.200195312 364.599609375 c 0
 570.700195312 382.099609375 550.400390625 394 508.400390625 394 c 0
 439.799804688 394 414.599609375 349.200195312 409 301.599609375 c 0
 407.599609375 293.200195312 408.299804688 285.5 408.299804688 277.099609375 c 0
EndSplineSet
EndChar
StartChar: uF1F8E
Encoding: 991118 991118 1721
Width: 1000
Flags: MW
LayerCount: 2
Fore
SplineSet
700 -184 m 1
 720 -160 743 -130 766 -88 c 0
 807 -12 864 104 864 303 c 0
 864 663 713 764 700 789 c 1
 753 789 l 1
 898 672 960 495 960 302 c 0
 960 109 898 -67 753 -184 c 1
 700 -184 l 1
40 302 m 0
 40 497 102 672 248 789 c 1
 300 789 l 1
 278 762 251 727 226 676 c 0
 189 600 137 486 137 303 c 0
 137 -59 287 -157 300 -184 c 1
 248 -184 l 1
 102 -66 40 111 40 302 c 0
308.200195312 240.700195312 m 0xf2
 308.200195312 300.900390625 334.099609375 345.700195312 395 362.5 c 1
 379.599609375 368.799804688 318.700195312 384.200195312 318.700195312 466.099609375 c 0
 318.700195312 534 348.799804688 601.900390625 500 601.900390625 c 2
 500.700195312 601.900390625 l 2
 651.900390625 601.900390625 681.299804688 534 681.299804688 465.400390625 c 0xec
 681.299804688 375.799804688 605.700195312 365.299804688 605 362.5 c 1
 665.900390625 345.700195312 691.799804688 300.900390625 691.799804688 240.700195312 c 0
 691.799804688 162.299804688 659.599609375 84.599609375 500 84.599609375 c 0
 340.400390625 84.599609375 308.200195312 163 308.200195312 240.700195312 c 0xf2
406.200195312 233 m 2
 407.599609375 206.400390625 408.299804688 181.200195312 430.700195312 165.799804688 c 0
 444.700195312 156.700195312 465 151.099609375 498.599609375 151.099609375 c 0
 528 151.099609375 549 156 563 163 c 4
 596.599609375 181.200195312 593.099609375 216.200195312 594.5 238.599609375 c 2
 594.5 253.299804688 l 2xf2
 593.099609375 282 588.900390625 306.5 569.299804688 321.200195312 c 0
 555.299804688 331.700195312 533.599609375 337.299804688 500 337.299804688 c 0
 466.400390625 337.299804688 445.400390625 331 431.400390625 321.200195312 c 0
 404.099609375 300.900390625 407.599609375 267.299804688 406.200195312 249.099609375 c 2
 406.200195312 233 l 2
409.700195312 457.700195312 m 2xec
 409.700195312 432.5 415.299804688 414.299804688 430.700195312 402.400390625 c 0
 444.700195312 392.599609375 466.400390625 387.700195312 498.599609375 387.700195312 c 0
 533.599609375 387.700195312 553.900390625 393.299804688 567.900390625 402.400390625 c 0
 587.5 416.400390625 590.299804688 437.400390625 590.299804688 458.400390625 c 2
 590.299804688 471 l 2
 590.299804688 493.400390625 585.400390625 510.200195312 574.200195312 521.400390625 c 0
 561.599609375 534 538.5 539.599609375 500.700195312 539.599609375 c 0
 467.099609375 539.599609375 446.799804688 534.700195312 432.799804688 527 c 0
 409 513 411.099609375 489.900390625 409.700195312 470.299804688 c 2
 409.700195312 457.700195312 l 2xec
EndSplineSet
EndChar
StartChar: uF1F92
Encoding: 991122 991122 1725
Width: 1000
Flags: MW
LayerCount: 2
Fore
SplineSet
700 -184 m 1
 720 -160 743 -130 766 -88 c 0
 807 -12 864 104 864 303 c 0
 864 663 713 764 700 789 c 1
 753 789 l 1
 898 672 960 495 960 302 c 0
 960 109 898 -67 753 -184 c 1
 700 -184 l 1
40 302 m 0
 40 497 102 672 248 789 c 1
 300 789 l 1
 278 762 251 727 226 676 c 0
 189 600 137 486 137 303 c 0
 137 -59 287 -157 300 -184 c 1
 248 -184 l 1
 102 -66 40 111 40 302 c 0
525.200195312 501.799804688 m 1
 544.799804688 550.099609375 584.700195312 601.900390625 661 601.900390625 c 0
 752 601.900390625 810.099609375 522.099609375 810.099609375 440.900390625 c 0
 810.099609375 369.5 758.299804688 333.099609375 677.799804688 260.299804688 c 2
 598 174.200195312 l 1
 810.099609375 175.599609375 l 1
 810.099609375 100 l 1
 531.5 100 l 1
 531.5 170 l 1
 633 277.799804688 l 2
 658.200195312 307.900390625 714.200195312 364.599609375 714.200195312 439.5 c 0
 714.200195312 486.400390625 693.200195312 531.900390625 652.599609375 531.900390625 c 0
 607.799804688 531.900390625 586.099609375 485.700195312 573.5 440.200195312 c 1
 525.200195312 501.799804688 l 1
192.700195312 502.5 m 1
 192.700195312 553.599609375 l 1
 273.900390625 553.599609375 321.5 569 360.700195312 601.900390625 c 1
 385.200195312 601.900390625 l 1
 385.200195312 151.099609375 l 1
 467.799804688 151.099609375 l 1
 467.799804688 100 l 1
 203.200195312 100 l 1
 203.200195312 151.099609375 l 1
 288.599609375 151.099609375 l 1
 288.599609375 513.700195312 l 1
 259.200195312 505.299804688 226.299804688 502.5 192.700195312 502.5 c 1
EndSplineSet
EndChar
StartChar: uF1F94
Encoding: 991124 991124 1727
Width: 1000
Flags: MW
LayerCount: 2
Fore
SplineSet
700 -184 m 1
 720 -160 743 -130 766 -88 c 0
 807 -12 864 104 864 303 c 0
 864 663 713 764 700 789 c 1
 753 789 l 1
 898 672 960 495 960 302 c 0
 960 109 898 -67 753 -184 c 1
 700 -184 l 1
40 302 m 0
 40 497 102 672 248 789 c 1
 300 789 l 1
 278 762 251 727 226 676 c 0
 189 600 137 486 137 303 c 0
 137 -59 287 -157 300 -184 c 1
 248 -184 l 1
 102 -66 40 111 40 302 c 0
516.799804688 206.400390625 m 1
 516.799804688 272.900390625 l 1
 516.799804688 272.900390625 l 1
 669.400390625 586.5 l 1
 773 586.5 l 1
 773 272.900390625 l 1
 836 272.900390625 l 1
 836 206.400390625 l 1
 773 206.400390625 l 1
 773 100 l 1
 686.900390625 100 l 1
 686.900390625 206.400390625 l 1
 516.799804688 206.400390625 l 1
590.299804688 272.900390625 m 1
 689.700195312 272.900390625 l 1
 689.700195312 514.400390625 l 1
 679.900390625 469.599609375 658.900390625 426.200195312 590.299804688 272.900390625 c 1
192.700195312 502.5 m 1
 192.700195312 553.599609375 l 1
 273.900390625 553.599609375 321.5 569 360.700195312 601.900390625 c 1
 385.200195312 601.900390625 l 1
 385.200195312 151.099609375 l 1
 467.799804688 151.099609375 l 1
 467.799804688 100 l 1
 203.200195312 100 l 1
 203.200195312 151.099609375 l 1
 288.599609375 151.099609375 l 1
 288.599609375 513.700195312 l 1
 259.200195312 505.299804688 226.299804688 502.5 192.700195312 502.5 c 1
EndSplineSet
EndChar
StartChar: uF1FA8
Encoding: 991144 991144 24
Width: 1000
Flags: MW
LayerCount: 2
Fore
SplineSet
50 300 m 0
 50 584 236 760 501 760 c 0
 758 760 949 589 950 300 c 0
 950 21 769 -160 499 -160 c 0
 230 -160 50 24 50 300 c 0
112 299 m 0
 112 55 269 -97 498 -97 c 0
 724 -97 887 47 887 301 c 0
 887 547 729 697 502 697 c 0
 276 697 112 553 112 299 c 0
516.799804688 155.450195312 m 1
 516.799804688 221.950195312 l 1
 516.799804688 221.950195312 l 1
 669.400390625 535.549804688 l 1
 773 535.549804688 l 1
 773 221.950195312 l 1
 836 221.950195312 l 1
 836 155.450195312 l 1
 773 155.450195312 l 1
 773 49.0498046875 l 1
 686.900390625 49.0498046875 l 1
 686.900390625 155.450195312 l 1
 516.799804688 155.450195312 l 1
590.299804688 221.950195312 m 1
 689.700195312 221.950195312 l 1
 689.700195312 463.450195312 l 1
 679.900390625 418.649414062 658.900390625 375.25 590.299804688 221.950195312 c 1
175.200195312 450.849609375 m 1
 194.799804688 499.149414062 234.700195312 550.950195312 311 550.950195312 c 0
 402 550.950195312 460.099609375 471.149414062 460.099609375 389.950195312 c 0
 460.099609375 318.549804688 408.299804688 282.149414062 327.799804688 209.349609375 c 2
 248 123.25 l 1
 460.099609375 124.649414062 l 1
 460.099609375 49.0498046875 l 1
 181.5 49.0498046875 l 1
 181.5 119.049804688 l 1
 283 226.849609375 l 2
 308.200195312 256.950195312 364.200195312 313.649414062 364.200195312 388.549804688 c 0
 364.200195312 435.450195312 343.200195312 480.950195312 302.599609375 480.950195312 c 0
 257.799804688 480.950195312 236.099609375 434.75 223.5 389.25 c 1
 175.200195312 450.849609375 l 1
EndSplineSet
EndChar
StartChar: uF1FB0
Encoding: 991152 991152 1734
Width: 1000
Flags: MW
LayerCount: 2
Fore
SplineSet
700 -184 m 1
 720 -160 743 -130 766 -88 c 0
 807 -12 864 104 864 303 c 0
 864 663 713 764 700 789 c 1
 753 789 l 1
 898 672 960 495 960 302 c 0
 960 109 898 -67 753 -184 c 1
 700 -184 l 1
40 302 m 0
 40 497 102 672 248 789 c 1
 300 789 l 1
 278 762 251 727 226 676 c 0
 189 600 137 486 137 303 c 0
 137 -59 287 -157 300 -184 c 1
 248 -184 l 1
 102 -66 40 111 40 302 c 0
313.799804688 190.299804688 m 0
 313.799804688 295.299804688 584 286.900390625 585.400390625 289 c 1
 585.400390625 317.700195312 l 2
 584 331.700195312 586.099609375 359.700195312 567.200195312 377.900390625 c 0
 556.700195312 388.400390625 539.200195312 395.400390625 509.799804688 395.400390625 c 0
 410.400390625 395.400390625 373.299804688 359 355.799804688 342.200195312 c 1
 350.200195312 412.200195312 l 1
 392.200195312 433.200195312 439.799804688 442.299804688 514 442.299804688 c 0
 653.299804688 442.299804688 686.200195312 394 686.200195312 320.5 c 2
 686.200195312 100 l 1
 586.799804688 100 l 1
 586.799804688 148.299804688 l 1
 550.400390625 111.900390625 483.200195312 92.2998046875 418.099609375 92.2998046875 c 0
 352.299804688 92.2998046875 313.799804688 142 313.799804688 190.299804688 c 0
410.400390625 191.700195312 m 0
 410.400390625 165.799804688 439.099609375 143.400390625 483.200195312 143.400390625 c 0
 516.799804688 143.400390625 585.400390625 156 585.400390625 207.799804688 c 2
 585.400390625 260.299804688 l 1
 518.200195312 256.799804688 410.400390625 247 410.400390625 191.700195312 c 0
EndSplineSet
EndChar
StartChar: uF1FB1
Encoding: 991153 991153 1735
Width: 1000
Flags: MW
LayerCount: 2
Fore
SplineSet
700 -184 m 1
 720 -160 743 -130 766 -88 c 0
 807 -12 864 104 864 303 c 0
 864 663 713 764 700 789 c 1
 753 789 l 1
 898 672 960 495 960 302 c 0
 960 109 898 -67 753 -184 c 1
 700 -184 l 1
40 302 m 0
 40 497 102 672 248 789 c 1
 300 789 l 1
 278 762 251 727 226 676 c 0
 189 600 137 486 137 303 c 0
 137 -59 287 -157 300 -184 c 1
 248 -184 l 1
 102 -66 40 111 40 302 c 0
304.700195312 100 m 1
 304.700195312 586.5 l 1
 398.5 586.5 l 1
 398.5 396.799804688 l 1
 438.400390625 419.200195312 493 438.099609375 565.799804688 438.099609375 c 0x7c
 671.5 438.099609375 695.299804688 356.200195312 695.299804688 263.799804688 c 0
 695.299804688 140.599609375 640 92.2998046875 535 92.2998046875 c 0xbc
 474.099609375 92.2998046875 434.200195312 108.400390625 400.599609375 130.799804688 c 1
 400.599609375 100 l 1
 304.700195312 100 l 1
400.599609375 167.900390625 m 1
 404.799804688 165.099609375 411.099609375 160.900390625 420.900390625 156 c 4
 434.900390625 149.700195312 453.799804688 143.400390625 481.799804688 143.400390625 c 0
 591 143.400390625 599.400390625 196.599609375 599.400390625 262.400390625 c 0
 599.400390625 331.700195312 596.599609375 387.700195312 493 387.700195312 c 0
 453.799804688 387.700195312 427.900390625 378.599609375 400.599609375 364.599609375 c 1
 400.599609375 167.900390625 l 1
EndSplineSet
EndChar
StartChar: uF1FB3
Encoding: 991155 991155 1737
Width: 1000
Flags: MW
LayerCount: 2
Fore
SplineSet
700 -184 m 1
 720 -160 743 -130 766 -88 c 0
 807 -12 864 104 864 303 c 0
 864 663 713 764 700 789 c 1
 753 789 l 1
 898 672 960 495 960 302 c 0
 960 109 898 -67 753 -184 c 1
 700 -184 l 1
40 302 m 0
 40 497 102 672 248 789 c 1
 300 789 l 1
 278 762 251 727 226 676 c 0
 189 600 137 486 137 303 c 0
 137 -59 287 -157 300 -184 c 1
 248 -184 l 1
 102 -66 40 111 40 302 c 0
304.700195312 266.599609375 m 0
 304.700195312 321.200195312 313.099609375 378.599609375 353 411.5 c 0
 374.700195312 430.400390625 406.200195312 438.099609375 450.299804688 438.099609375 c 0xbc
 516.099609375 438.099609375 565.799804688 420.599609375 601.5 399.599609375 c 1
 601.5 586.5 l 1
 695.299804688 586.5 l 1xba
 695.299804688 100 l 1
 599.400390625 100 l 1
 599.400390625 136.400390625 l 1
 560.200195312 110.5 514.700195312 92.2998046875 448.900390625 92.2998046875 c 0
 416.700195312 92.2998046875 357.200195312 96.5 327.099609375 150.400390625 c 0
 309.599609375 182.599609375 304.700195312 220.400390625 304.700195312 266.599609375 c 0
400.599609375 275 m 0
 400.599609375 218.299804688 402 186.799804688 425.799804688 165.799804688 c 0
 444.700195312 150.400390625 476.200195312 142.700195312 505.599609375 142.700195312 c 0
 568.599609375 142.700195312 596.599609375 171.400390625 599.400390625 172.099609375 c 1
 599.400390625 367.400390625 l 1xbc
 593.099609375 370.900390625 586.799804688 373 580.5 375.799804688 c 4
 565.799804688 382.099609375 551.099609375 385.599609375 532.900390625 387 c 0
 528.700195312 387 523.799804688 387.700195312 518.200195312 387.700195312 c 0
 406.900390625 387.700195312 400.599609375 329.599609375 400.599609375 275 c 0
EndSplineSet
EndChar
StartChar: uF1FB6
Encoding: 991158 991158 1740
Width: 1000
Flags: MW
LayerCount: 2
Fore
SplineSet
700 -184 m 1
 720 -160 743 -130 766 -88 c 0
 807 -12 864 104 864 303 c 0
 864 663 713 764 700 789 c 1
 753 789 l 1
 898 672 960 495 960 302 c 0
 960 109 898 -67 753 -184 c 1
 700 -184 l 1
40 302 m 0
 40 497 102 672 248 789 c 1
 300 789 l 1
 278 762 251 727 226 676 c 0
 189 600 137 486 137 303 c 0
 137 -59 287 -157 300 -184 c 1
 248 -184 l 1
 102 -66 40 111 40 302 c 0
397.099609375 306.5 m 2xea80
 397.099609375 288.299804688 397.799804688 270.799804688 414.599609375 259.599609375 c 0
 425.099609375 251.900390625 444.700195312 247.700195312 472 247.700195312 c 0
 502.799804688 247.700195312 521 251.900390625 532.200195312 259.599609375 c 0
 549 270.799804688 550.400390625 288.299804688 550.400390625 307.200195312 c 2
 550.400390625 319.099609375 l 2
 550.400390625 336.599609375 548.299804688 353.400390625 533.599609375 364.599609375 c 0
 523.099609375 373 505.599609375 377.900390625 476.200195312 377.900390625 c 0
 440.5 377.900390625 420.900390625 371.599609375 410.400390625 361.799804688 c 0
 397.799804688 350.599609375 397.099609375 334.5 397.099609375 318.400390625 c 2
 397.099609375 306.5 l 2xea80
367 55.900390625 m 0xe440
 367 39.099609375 375.400390625 27.900390625 388.700195312 20.2001953125 c 0
 413.900390625 9 458 6.2001953125 504.200195312 6.2001953125 c 2
 510.5 6.2001953125 l 2
 568.599609375 6.2001953125 593.799804688 13.900390625 607.799804688 24.400390625 c 0
 619.700195312 33.5 623.200195312 44 623.200195312 53.099609375 c 0
 623.200195312 81.099609375 589.599609375 88.099609375 511.200195312 88.099609375 c 2
 434.900390625 88.099609375 l 1
 413.200195312 88.099609375 l 2
 386.599609375 88.099609375 367 85.2998046875 367 55.900390625 c 0xe440
294.900390625 54.5 m 0xec40
 294.900390625 93.7001953125 318.700195312 111.900390625 334.099609375 120.299804688 c 1
 317.299804688 146.200195312 315.900390625 164.400390625 315.900390625 175.599609375 c 0xe9
 315.900390625 198 322.900390625 216.200195312 334.799804688 233 c 1
 334.799804688 234.400390625 l 1
 320.099609375 250.5 306.799804688 275 306.799804688 312.099609375 c 0
 306.799804688 340.099609375 313.099609375 376.5 345.299804688 401 c 0
 366.299804688 417.099609375 399.900390625 428.299804688 473.400390625 428.299804688 c 2
 476.200195312 428.299804688 l 2xea
 564.400390625 428.299804688 579.799804688 411.5 591.700195312 411.5 c 0
 600.099609375 411.5 647.700195312 427.599609375 691.799804688 427.599609375 c 1
 705.099609375 375.799804688 l 1xf2
 696 375.799804688 672.200195312 378.599609375 661 378.599609375 c 2
 623.200195312 377.900390625 l 1xea40
 636.5 355.5 640 335.200195312 640 312.799804688 c 0xe880
 640 285.5 633.700195312 249.799804688 603.599609375 225.299804688 c 0
 582.599609375 208.5 549.700195312 196.599609375 472.700195312 196.599609375 c 0
 430.700195312 196.599609375 397.099609375 199.400390625 367 211.299804688 c 1xec80
 366.299804688 207.099609375 365.599609375 202.900390625 365.599609375 198.700195312 c 0xe9
 365.599609375 185.400390625 371.200195312 164.400390625 409.700195312 164.400390625 c 2
 522.400390625 164.400390625 l 2
 572.799804688 164.400390625 612.700195312 161.599609375 642.799804688 146.900390625 c 4
 666.599609375 135.700195312 684.799804688 117.5 691.799804688 87.400390625 c 1
 693.900390625 78.2998046875 695.299804688 67.7998046875 695.299804688 55.900390625 c 0
 695.299804688 25.7998046875 682 -9.900390625 630.900390625 -29.5 c 0
 595.900390625 -42.7998046875 558.099609375 -44.2001953125 506.299804688 -44.2001953125 c 0
 464.299804688 -44.2001953125 390.799804688 -44.2001953125 350.900390625 -26 c 0
 330.599609375 -16.900390625 313.099609375 -2.900390625 303.299804688 18.099609375 c 0
 297.700195312 29.2998046875 294.900390625 41.900390625 294.900390625 54.5 c 0xec40
EndSplineSet
EndChar
StartChar: uF1FB7
Encoding: 991159 991159 1741
Width: 1000
Flags: MW
LayerCount: 2
Fore
SplineSet
700 -184 m 1
 720 -160 743 -130 766 -88 c 0
 807 -12 864 104 864 303 c 0
 864 663 713 764 700 789 c 1
 753 789 l 1
 898 672 960 495 960 302 c 0
 960 109 898 -67 753 -184 c 1
 700 -184 l 1
40 302 m 0
 40 497 102 672 248 789 c 1
 300 789 l 1
 278 762 251 727 226 676 c 0
 189 600 137 486 137 303 c 0
 137 -59 287 -157 300 -184 c 1
 248 -184 l 1
 102 -66 40 111 40 302 c 0
315.200195312 100 m 1
 315.200195312 586.5 l 1
 409 586.5 l 1
 409 365.299804688 l 1
 427.900390625 391.900390625 476.200195312 438.099609375 578.400390625 438.099609375 c 0
 679.200195312 438.099609375 684.799804688 382.799804688 684.799804688 319.799804688 c 0
 684.799804688 310 684.099609375 300.200195312 684.099609375 291.099609375 c 2
 684.099609375 100 l 1
 588.900390625 100 l 1
 588.900390625 328.900390625 l 2
 588.900390625 361.799804688 579.099609375 387.700195312 517.5 387.700195312 c 0
 446.099609375 387.700195312 416.700195312 338.700195312 412.5 303.700195312 c 2
 412.5 100 l 1
 315.200195312 100 l 1
EndSplineSet
EndChar
StartChar: uF1FB9
Encoding: 991161 991161 1743
Width: 1000
Flags: MW
LayerCount: 2
Fore
SplineSet
700 -184 m 1
 720 -160 743 -130 766 -88 c 0
 807 -12 864 104 864 303 c 0
 864 663 713 764 700 789 c 1
 753 789 l 1
 898 672 960 495 960 302 c 0
 960 109 898 -67 753 -184 c 1
 700 -184 l 1
40 302 m 0
 40 497 102 672 248 789 c 1
 300 789 l 1
 278 762 251 727 226 676 c 0
 189 600 137 486 137 303 c 0
 137 -59 287 -157 300 -184 c 1
 248 -184 l 1
 102 -66 40 111 40 302 c 0
378.200195312 -3.599609375 m 1
 392.900390625 46.7998046875 l 1
 412.5 38.400390625 424.400390625 34.900390625 445.400390625 34.900390625 c 0
 473.400390625 34.900390625 485.299804688 40.5 489.5 49.599609375 c 0
 490.900390625 53.099609375 491.599609375 57.2998046875 491.599609375 61.5 c 2
 491.599609375 430.400390625 l 1
 585.400390625 430.400390625 l 1
 585.400390625 76.2001953125 l 2
 584.700195312 55.900390625 586.099609375 23 563 -0.099609375 c 0
 548.299804688 -14.7998046875 523.799804688 -24.599609375 482.5 -24.599609375 c 0
 440.5 -24.599609375 406.900390625 -15.5 378.200195312 -3.599609375 c 1
491.599609375 501.099609375 m 1
 491.599609375 586.5 l 1
 585.400390625 586.5 l 1
 585.400390625 501.099609375 l 1
 491.599609375 501.099609375 l 1
EndSplineSet
EndChar
StartChar: uF1FBC
Encoding: 991164 991164 1746
Width: 1000
Flags: MW
LayerCount: 2
Fore
SplineSet
700 -184 m 1
 720 -160 743 -130 766 -88 c 0
 807 -12 864 104 864 303 c 0
 864 663 713 764 700 789 c 1
 753 789 l 1
 898 672 960 495 960 302 c 0
 960 109 898 -67 753 -184 c 1
 700 -184 l 1
40 302 m 0
 40 497 102 672 248 789 c 1
 300 789 l 1
 278 762 251 727 226 676 c 0
 189 600 137 486 137 303 c 0
 137 -59 287 -157 300 -184 c 1
 248 -184 l 1
 102 -66 40 111 40 302 c 0
238.200195312 100 m 1xdc
 238.200195312 434.599609375 l 1
 329.900390625 434.599609375 l 1
 329.900390625 390.5 l 1
 330.599609375 361.099609375 l 1
 343.200195312 389.799804688 376.099609375 438.099609375 444.700195312 438.099609375 c 0xec
 538.5 438.099609375 539.200195312 387 546.200195312 365.299804688 c 1
 558.799804688 391.900390625 591 438.799804688 658.200195312 438.799804688 c 0
 689 438.799804688 710 433.200195312 725.400390625 424.099609375 c 4
 759.700195312 403.099609375 761.799804688 363.200195312 761.799804688 319.799804688 c 0
 761.799804688 310 761.099609375 300.200195312 761.099609375 291.099609375 c 2
 761.099609375 100 l 1
 665.900390625 100 l 1
 665.900390625 328.900390625 l 2
 665.900390625 362.5 658.900390625 387.700195312 618.299804688 387.700195312 c 0
 570 387.700195312 550.400390625 338.700195312 547.599609375 303.700195312 c 2
 547.599609375 100 l 1
 451.700195312 100 l 1
 451.700195312 328.900390625 l 2
 451.700195312 362.5 445.400390625 387.700195312 404.099609375 387.700195312 c 0
 356.5 387.700195312 336.900390625 338.700195312 334.099609375 303.700195312 c 2
 334.099609375 100 l 1
 238.200195312 100 l 1xdc
EndSplineSet
EndChar
StartChar: uF1FBF
Encoding: 991167 991167 1749
Width: 1000
Flags: MW
LayerCount: 2
Fore
SplineSet
700 -184 m 1
 720 -160 743 -130 766 -88 c 0
 807 -12 864 104 864 303 c 0
 864 663 713 764 700 789 c 1
 753 789 l 1
 898 672 960 495 960 302 c 0
 960 109 898 -67 753 -184 c 1
 700 -184 l 1
40 302 m 0
 40 497 102 672 248 789 c 1
 300 789 l 1
 278 762 251 727 226 676 c 0
 189 600 137 486 137 303 c 0
 137 -59 287 -157 300 -184 c 1
 248 -184 l 1
 102 -66 40 111 40 302 c 0
304.700195312 -16.900390625 m 1
 304.700195312 430.400390625 l 1
 398.5 430.400390625 l 1
 398.5 395.400390625 l 1
 413.200195312 403.799804688 432.799804688 412.200195312 452.400390625 419.200195312 c 0
 487.400390625 430.400390625 528 438.099609375 576.299804688 438.099609375 c 0
 620.400390625 438.099609375 650.5 424.099609375 670.099609375 391.200195312 c 0
 686.200195312 363.900390625 695.299804688 323.299804688 695.299804688 266.599609375 c 0
 695.299804688 211.299804688 684.799804688 171.400390625 665.900390625 143.400390625 c 0
 641.400390625 107.700195312 603.599609375 92.2998046875 536.400390625 92.2998046875 c 0
 498.599609375 92.2998046875 469.200195312 98.599609375 444 108.400390625 c 0
 428.599609375 114.700195312 413.200195312 122.400390625 400.599609375 130.799804688 c 1
 400.599609375 -16.900390625 l 1
 304.700195312 -16.900390625 l 1
400.599609375 167.200195312 m 1
 404.799804688 165.099609375 417.400390625 155.299804688 439.799804688 149 c 0
 451 145.5 465 143.400390625 480.400390625 143.400390625 c 0
 520.299804688 143.400390625 553.900390625 156 572.799804688 177 c 0
 600.799804688 209.200195312 598 243.5 599.400390625 272.900390625 c 2
 598 289.700195312 l 2
 595.900390625 306.5 591.700195312 333.799804688 572.099609375 354.799804688 c 4
 556.700195312 370.900390625 531.5 383.5 490.900390625 383.5 c 0
 471.299804688 383.5 453.799804688 380.700195312 439.799804688 377.200195312 c 0
 416 370.900390625 402 361.799804688 400.599609375 361.799804688 c 1
 400.599609375 167.200195312 l 1
EndSplineSet
EndChar
StartChar: uF1FC1
Encoding: 991169 991169 1751
Width: 1000
Flags: MW
LayerCount: 2
Fore
SplineSet
700 -184 m 1
 720 -160 743 -130 766 -88 c 0
 807 -12 864 104 864 303 c 0
 864 663 713 764 700 789 c 1
 753 789 l 1
 898 672 960 495 960 302 c 0
 960 109 898 -67 753 -184 c 1
 700 -184 l 1
40 302 m 0
 40 497 102 672 248 789 c 1
 300 789 l 1
 278 762 251 727 226 676 c 0
 189 600 137 486 137 303 c 0
 137 -59 287 -157 300 -184 c 1
 248 -184 l 1
 102 -66 40 111 40 302 c 0
396.400390625 100 m 1xd0
 396.400390625 434.599609375 l 1
 486 434.599609375 l 1
 486 382.099609375 l 1xe0
 486.700195312 349.900390625 l 1
 498.599609375 381.400390625 532.200195312 436.700195312 603.599609375 438.099609375 c 1
 603.599609375 366.700195312 l 1
 523.799804688 365.299804688 493 314.200195312 490.200195312 282 c 2
 490.200195312 100 l 1
 396.400390625 100 l 1xd0
EndSplineSet
EndChar
StartChar: uF1FC2
Encoding: 991170 991170 1752
Width: 1000
Flags: MW
LayerCount: 2
Fore
SplineSet
700 -184 m 1
 720 -160 743 -130 766 -88 c 0
 807 -12 864 104 864 303 c 0
 864 663 713 764 700 789 c 1
 753 789 l 1
 898 672 960 495 960 302 c 0
 960 109 898 -67 753 -184 c 1
 700 -184 l 1
40 302 m 0
 40 497 102 672 248 789 c 1
 300 789 l 1
 278 762 251 727 226 676 c 0
 189 600 137 486 137 303 c 0
 137 -59 287 -157 300 -184 c 1
 248 -184 l 1
 102 -66 40 111 40 302 c 0
347.400390625 125.200195312 m 1
 360.700195312 202.200195312 l 1
 369.799804688 193.099609375 407.599609375 147.599609375 507 147.599609375 c 0
 574.200195312 147.599609375 582.599609375 169.299804688 582.599609375 186.799804688 c 0
 582.599609375 206.400390625 565.799804688 219 540.599609375 224.599609375 c 0
 514 230.200195312 469.900390625 231.599609375 425.799804688 242.799804688 c 0
 404.099609375 250.5 383.099609375 263.099609375 367.700195312 285.5 c 0
 362.099609375 294.599609375 351.599609375 312.799804688 351.599609375 339.400390625 c 0
 351.599609375 385.599609375 369.099609375 411.5 395 426.200195312 c 4
 417.400390625 438.799804688 459.400390625 442.299804688 503.5 442.299804688 c 0
 570 442.299804688 597.299804688 437.400390625 641.400390625 419.200195312 c 1
 629.5 352 l 1
 593.099609375 379.299804688 566.5 391.900390625 490.900390625 391.900390625 c 0
 430 391.900390625 421.599609375 370.900390625 421.599609375 356.900390625 c 0
 421.599609375 319.099609375 485.299804688 319.099609375 549.700195312 310 c 0
 601.5 300.200195312 652.599609375 264.5 652.599609375 200.099609375 c 0
 652.599609375 160.900390625 640.700195312 135 621.799804688 118.200195312 c 0
 598.700195312 98.599609375 563.700195312 92.2998046875 507.700195312 92.2998046875 c 0
 432.099609375 92.2998046875 388.700195312 103.5 347.400390625 125.200195312 c 1
EndSplineSet
EndChar
StartChar: uF1FC5
Encoding: 991173 991173 1755
Width: 1000
Flags: MW
LayerCount: 2
Fore
SplineSet
700 -184 m 1
 720 -160 743 -130 766 -88 c 0
 807 -12 864 104 864 303 c 0
 864 663 713 764 700 789 c 1
 753 789 l 1
 898 672 960 495 960 302 c 0
 960 109 898 -67 753 -184 c 1
 700 -184 l 1
40 302 m 0
 40 497 102 672 248 789 c 1
 300 789 l 1
 278 762 251 727 226 676 c 0
 189 600 137 486 137 303 c 0
 137 -59 287 -157 300 -184 c 1
 248 -184 l 1
 102 -66 40 111 40 302 c 0
295.599609375 430.400390625 m 1
 383.799804688 430.400390625 l 1
 458.700195312 273.599609375 l 2
 462.900390625 209.200195312 468.5 199.400390625 471.299804688 181.900390625 c 1
 483.900390625 215.5 605 405.200195312 619 430.400390625 c 1
 704.400390625 430.400390625 l 1
 530.099609375 100 l 1
 410.400390625 100 l 1
 295.599609375 430.400390625 l 1
EndSplineSet
EndChar
StartChar: uF1FC6
Encoding: 991174 991174 1756
Width: 1000
Flags: MW
LayerCount: 2
Fore
SplineSet
700 -184 m 1
 720 -160 743 -130 766 -88 c 0
 807 -12 864 104 864 303 c 0
 864 663 713 764 700 789 c 1
 753 789 l 1
 898 672 960 495 960 302 c 0
 960 109 898 -67 753 -184 c 1
 700 -184 l 1
40 302 m 0
 40 497 102 672 248 789 c 1
 300 789 l 1
 278 762 251 727 226 676 c 0
 189 600 137 486 137 303 c 0
 137 -59 287 -157 300 -184 c 1
 248 -184 l 1
 102 -66 40 111 40 302 c 0
222.799804688 430.400390625 m 1
 308.200195312 430.400390625 l 1
 364.200195312 234.400390625 368.400390625 214.799804688 372.599609375 193.099609375 c 1
 383.099609375 238.599609375 451 419.900390625 453.799804688 430.400390625 c 1
 553.200195312 430.400390625 l 1
 600.799804688 272.900390625 l 2
 619 206.400390625 621.799804688 197.299804688 626 181.900390625 c 1
 635.799804688 221.799804688 689 416.400390625 693.200195312 430.400390625 c 1
 777.200195312 430.400390625 l 1
 687.599609375 100 l 1
 568.599609375 100 l 1
 488.799804688 307.200195312 492.299804688 287.599609375 486 335.200195312 c 1
 479.700195312 287.599609375 416 121.700195312 403.400390625 100 c 1
 312.400390625 100 l 1
 222.799804688 430.400390625 l 1
EndSplineSet
EndChar
StartChar: uF1FC7
Encoding: 991175 991175 1757
Width: 1000
Flags: MW
LayerCount: 2
Fore
SplineSet
700 -184 m 1
 720 -160 743 -130 766 -88 c 0
 807 -12 864 104 864 303 c 0
 864 663 713 764 700 789 c 1
 753 789 l 1
 898 672 960 495 960 302 c 0
 960 109 898 -67 753 -184 c 1
 700 -184 l 1
40 302 m 0
 40 497 102 672 248 789 c 1
 300 789 l 1
 278 762 251 727 226 676 c 0
 189 600 137 486 137 303 c 0
 137 -59 287 -157 300 -184 c 1
 248 -184 l 1
 102 -66 40 111 40 302 c 0
285.799804688 100 m 1
 439.799804688 270.099609375 l 1
 439.799804688 272.900390625 l 1
 290 430.400390625 l 1
 388 430.400390625 l 1
 495.799804688 335.900390625 l 1
 498.599609375 335.900390625 l 1
 600.099609375 430.400390625 l 1
 701.599609375 430.400390625 l 1
 553.900390625 271.5 l 1
 553.900390625 270.799804688 l 1
 714.200195312 100 l 1
 617.599609375 100 l 1
 497.200195312 219 l 1
 381 100 l 1
 285.799804688 100 l 1
EndSplineSet
EndChar
StartChar: uF1FC8
Encoding: 991176 991176 1758
Width: 1000
Flags: MW
LayerCount: 2
Fore
SplineSet
700 -184 m 1
 720 -160 743 -130 766 -88 c 0
 807 -12 864 104 864 303 c 0
 864 663 713 764 700 789 c 1
 753 789 l 1
 898 672 960 495 960 302 c 0
 960 109 898 -67 753 -184 c 1
 700 -184 l 1
40 302 m 0
 40 497 102 672 248 789 c 1
 300 789 l 1
 278 762 251 727 226 676 c 0
 189 600 137 486 137 303 c 0
 137 -59 287 -157 300 -184 c 1
 248 -184 l 1
 102 -66 40 111 40 302 c 0
295.599609375 430.400390625 m 1
 389.400390625 430.400390625 l 1
 526.599609375 225.299804688 511.900390625 222.5 520.299804688 195.900390625 c 1
 522.400390625 242.799804688 612.700195312 410.099609375 619 430.400390625 c 1
 704.400390625 430.400390625 l 1
 566.5 72.7001953125 l 2
 548.299804688 38.400390625 521.700195312 16 490.200195312 0.599609375 c 0
 451 -18.2998046875 405.5 -24.599609375 371.900390625 -24.599609375 c 0
 350.200195312 -24.599609375 327.799804688 -21.7998046875 316.599609375 -19.7001953125 c 1
 310.299804688 51.7001953125 l 1
 327.799804688 44 346 34.900390625 373.299804688 34.900390625 c 0
 398.5 34.900390625 417.400390625 39.099609375 431.400390625 46.099609375 c 0
 456.599609375 58.7001953125 461.5 81.099609375 472 100 c 1
 472 100 l 1
 472 100 l 1
 295.599609375 430.400390625 l 1
EndSplineSet
EndChar
StartChar: uF1FC9
Encoding: 991177 991177 1759
Width: 1000
Flags: MW
LayerCount: 2
Fore
SplineSet
700 -184 m 1
 720 -160 743 -130 766 -88 c 0
 807 -12 864 104 864 303 c 0
 864 663 713 764 700 789 c 1
 753 789 l 1
 898 672 960 495 960 302 c 0
 960 109 898 -67 753 -184 c 1
 700 -184 l 1
40 302 m 0
 40 497 102 672 248 789 c 1
 300 789 l 1
 278 762 251 727 226 676 c 0
 189 600 137 486 137 303 c 0
 137 -59 287 -157 300 -184 c 1
 248 -184 l 1
 102 -66 40 111 40 302 c 0
325.700195312 100 m 1
 325.700195312 134.299804688 l 1
 552.5 382.799804688 l 1
 336.200195312 381.400390625 l 1
 336.200195312 430.400390625 l 1
 672.200195312 430.400390625 l 1
 672.200195312 398.900390625 l 1
 446.799804688 151.799804688 l 1
 674.299804688 153.200195312 l 1
 674.299804688 100 l 1
 325.700195312 100 l 1
EndSplineSet
EndChar
StartChar: uF2004
Encoding: 991236 991236 269
Width: 1000
Flags: MW
LayerCount: 2
Fore
SplineSet
112 697 m 1
 112 -97 l 1
 887 -97 l 1
 887 697 l 1
 112 697 l 1
50 760 m 1
 950 760 l 1
 950 -160 l 1
 50 -160 l 1
 50 760 l 1
EndSplineSet
Colour: ffff
EndChar
StartChar: uF269F
Encoding: 992927 992927 1787
Width: 1000
Flags: MW
LayerCount: 2
Fore
SplineSet
700 -184 m 1
 720 -160 743 -130 766 -88 c 0
 807 -12 864 104 864 303 c 0
 864 663 713 764 700 789 c 1
 753 789 l 1
 898 672 960 495 960 302 c 0
 960 109 898 -67 753 -184 c 1
 700 -184 l 1
40 302 m 0
 40 497 102 672 248 789 c 1
 300 789 l 1
 278 762 251 727 226 676 c 0
 189 600 137 486 137 303 c 0
 137 -59 287 -157 300 -184 c 1
 248 -184 l 1
 102 -66 40 111 40 302 c 0
525.200195312 140.599609375 m 1
 537.099609375 205.700195312 l 1
 559.5 186.799804688 583.299804688 171.400390625 610.599609375 161.599609375 c 0
 626 155.299804688 642.799804688 151.099609375 661 151.099609375 c 0
 680.599609375 151.099609375 693.200195312 158.099609375 701.599609375 169.299804688 c 0
 714.200195312 186.799804688 715.599609375 213.400390625 715.599609375 237.900390625 c 2
 715.599609375 251.200195312 l 2xe8
 715.599609375 282.700195312 710 302.299804688 703 314.900390625 c 0
 687.599609375 341.5 663.099609375 335.900390625 652.599609375 337.299804688 c 2
 619 337.299804688 l 1
 619 387.700195312 l 1
 639.299804688 389.799804688 646.299804688 389.799804688 653.299804688 391.900390625 c 0
 677.799804688 398.200195312 703 429 703 482.900390625 c 0
 703 500.400390625 700.900390625 517.200195312 692.5 527.700195312 c 0
 686.200195312 535.400390625 677.799804688 539.599609375 663.099609375 539.599609375 c 0xf0
 645.599609375 539.599609375 631.599609375 534.700195312 619.700195312 527 c 0
 607.099609375 519.299804688 595.900390625 508.799804688 587.5 499.700195312 c 0
 579.799804688 491.299804688 574.900390625 483.599609375 572.799804688 480.099609375 c 1
 535.700195312 533.299804688 l 1
 554.599609375 556.400390625 578.400390625 576 608.5 588.599609375 c 0
 624.599609375 597 643.5 601.900390625 664.5 601.900390625 c 0
 707.900390625 601.900390625 740.799804688 588.599609375 762.5 569 c 0
 791.200195312 543.799804688 797.5 508.099609375 797.5 480.799804688 c 0xf0
 797.5 450.700195312 787.700195312 427.599609375 774.400390625 410.099609375 c 0
 756.900390625 386.299804688 733.099609375 372.299804688 719.799804688 364.599609375 c 1
 733.799804688 361.099609375 768.799804688 352.700195312 793.299804688 323.299804688 c 0
 808.700195312 305.099609375 819.200195312 279.200195312 819.200195312 242.099609375 c 0
 819.200195312 193.099609375 805.900390625 143.400390625 762.5 113.299804688 c 4
 737.299804688 95.7998046875 703.700195312 84.599609375 663.799804688 84.599609375 c 0
 641.400390625 84.599609375 621.799804688 88.7998046875 601.5 96.5 c 0
 573.5 106.299804688 548.299804688 121 525.200195312 140.599609375 c 1
173.799804688 340.799804688 m 0
 173.799804688 349.200195312 173.799804688 357.599609375 173.799804688 366 c 0
 175.200195312 456.299804688 186.400390625 564.799804688 276 594.200195312 c 0
 288.599609375 599.099609375 303.299804688 601.900390625 320.099609375 601.900390625 c 0
 352.299804688 601.900390625 388 590 417.400390625 557.799804688 c 0
 467.099609375 503.200195312 467.099609375 401.700195312 467.099609375 353.400390625 c 2
 467.099609375 346.400390625 l 2
 467.099609375 249.099609375 465.700195312 122.400390625 363.5 91.599609375 c 4
 350.900390625 87.400390625 336.200195312 84.599609375 319.400390625 84.599609375 c 0
 180.099609375 84.599609375 173.799804688 226 173.799804688 340.799804688 c 0
266.900390625 346.400390625 m 0
 266.900390625 208.5 270.400390625 163.700195312 299.799804688 142 c 0
 305.400390625 138.5 312.400390625 135 320.099609375 135 c 0
 323.599609375 135 338.299804688 135.700195312 350.900390625 153.200195312 c 0
 374 184 371.900390625 240 373.299804688 349.900390625 c 0
 373.299804688 357.599609375 374 366 374 375.099609375 c 0
 374 427.599609375 371.200195312 491.299804688 361.400390625 516.5 c 0
 353.700195312 536.099609375 338.299804688 550.799804688 320.099609375 550.799804688 c 0
 267.599609375 550.799804688 266.900390625 461.200195312 266.900390625 377.200195312 c 0
 266.900390625 366.700195312 266.900390625 356.200195312 266.900390625 346.400390625 c 0
EndSplineSet
EndChar
StartChar: uF26A2
Encoding: 992930 992930 1790
Width: 1000
Flags: MW
LayerCount: 2
Fore
SplineSet
700 -184 m 1
 720 -160 743 -130 766 -88 c 0
 807 -12 864 104 864 303 c 0
 864 663 713 764 700 789 c 1
 753 789 l 1
 898 672 960 495 960 302 c 0
 960 109 898 -67 753 -184 c 1
 700 -184 l 1
40 302 m 0
 40 497 102 672 248 789 c 1
 300 789 l 1
 278 762 251 727 226 676 c 0
 189 600 137 486 137 303 c 0
 137 -59 287 -157 300 -184 c 1
 248 -184 l 1
 102 -66 40 111 40 302 c 0
525.200195312 339.400390625 m 0
 525.200195312 450.700195312 547.599609375 496.200195312 567.200195312 525.599609375 c 0
 601.5 577.400390625 652.599609375 601.900390625 707.200195312 601.900390625 c 0
 729.599609375 601.900390625 746.400390625 598.400390625 771.599609375 587.200195312 c 1
 771.599609375 522.799804688 l 1
 749.900390625 533.299804688 733.099609375 539.599609375 709.299804688 539.599609375 c 0
 668.700195312 539.599609375 648.400390625 513 641.400390625 497.599609375 c 0
 631.599609375 477.299804688 623.900390625 442.299804688 623.900390625 373.700195312 c 1
 635.799804688 408.700195312 658.200195312 445.099609375 699.5 445.099609375 c 0
 752.700195312 445.099609375 776.5 418.5 791.900390625 396.799804688 c 0
 818.5 357.599609375 821.299804688 319.799804688 821.299804688 275 c 2
 821.299804688 270.799804688 l 2
 821.299804688 232.299804688 820.599609375 188.900390625 796.099609375 149.700195312 c 0
 754.799804688 86 701.599609375 84.599609375 675 84.599609375 c 0
 632.299804688 84.599609375 598.700195312 103.5 574.900390625 132.200195312 c 0
 527.299804688 188.900390625 525.200195312 283.400390625 525.200195312 339.400390625 c 0
624.599609375 277.099609375 m 0
 624.599609375 271.5 624.599609375 265.900390625 624.599609375 260.299804688 c 4
 625.299804688 203.599609375 631.599609375 150.400390625 676.400390625 150.400390625 c 0
 712.099609375 150.400390625 721.200195312 181.900390625 722.599609375 219 c 0
 723.299804688 235.099609375 722.599609375 251.900390625 723.299804688 268 c 2
 723.299804688 291.799804688 l 2
 722.599609375 319.099609375 723.299804688 345.700195312 717 364.599609375 c 0
 711.400390625 382.099609375 700.200195312 394 677.799804688 394 c 0
 641.400390625 394 628.099609375 349.200195312 625.299804688 301.599609375 c 0
 624.599609375 293.200195312 624.599609375 285.5 624.599609375 277.099609375 c 0
173.799804688 340.799804688 m 0
 173.799804688 349.200195312 173.799804688 357.599609375 173.799804688 366 c 0
 175.200195312 456.299804688 186.400390625 564.799804688 276 594.200195312 c 0
 288.599609375 599.099609375 303.299804688 601.900390625 320.099609375 601.900390625 c 0
 352.299804688 601.900390625 388 590 417.400390625 557.799804688 c 0
 467.099609375 503.200195312 467.099609375 401.700195312 467.099609375 353.400390625 c 2
 467.099609375 346.400390625 l 2
 467.099609375 249.099609375 465.700195312 122.400390625 363.5 91.599609375 c 4
 350.900390625 87.400390625 336.200195312 84.599609375 319.400390625 84.599609375 c 0
 180.099609375 84.599609375 173.799804688 226 173.799804688 340.799804688 c 0
266.900390625 346.400390625 m 0
 266.900390625 208.5 270.400390625 163.700195312 299.799804688 142 c 0
 305.400390625 138.5 312.400390625 135 320.099609375 135 c 0
 323.599609375 135 338.299804688 135.700195312 350.900390625 153.200195312 c 0
 374 184 371.900390625 240 373.299804688 349.900390625 c 0
 373.299804688 357.599609375 374 366 374 375.099609375 c 0
 374 427.599609375 371.200195312 491.299804688 361.400390625 516.5 c 0
 353.700195312 536.099609375 338.299804688 550.799804688 320.099609375 550.799804688 c 0
 267.599609375 550.799804688 266.900390625 461.200195312 266.900390625 377.200195312 c 0
 266.900390625 366.700195312 266.900390625 356.200195312 266.900390625 346.400390625 c 0
EndSplineSet
EndChar
StartChar: uF26AE
Encoding: 992942 992942 1802
Width: 1000
Flags: MW
LayerCount: 2
Fore
SplineSet
700 -184 m 1
 720 -160 743 -130 766 -88 c 0
 807 -12 864 104 864 303 c 0
 864 663 713 764 700 789 c 1
 753 789 l 1
 898 672 960 495 960 302 c 0
 960 109 898 -67 753 -184 c 1
 700 -184 l 1
40 302 m 0
 40 497 102 672 248 789 c 1
 300 789 l 1
 278 762 251 727 226 676 c 0
 189 600 137 486 137 303 c 0
 137 -59 287 -157 300 -184 c 1
 248 -184 l 1
 102 -66 40 111 40 302 c 0
520.299804688 410.099609375 m 0
 520.299804688 459.099609375 520.299804688 501.099609375 550.400390625 542.400390625 c 0
 575.599609375 577.400390625 607.799804688 601.900390625 676.400390625 601.900390625 c 0
 720.5 601.900390625 750.599609375 586.5 773.700195312 563.400390625 c 0
 827.599609375 509.5 829.700195312 410.799804688 829.700195312 351.299804688 c 0
 829.700195312 278.5 823.400390625 186.799804688 766 131.5 c 0
 733.799804688 97.900390625 686.900390625 84.599609375 642.799804688 84.599609375 c 0
 603.599609375 84.599609375 575.599609375 96.5 544.099609375 118.200195312 c 1
 577.700195312 177 l 1
 598.700195312 160.900390625 613.400390625 151.099609375 642.799804688 151.099609375 c 0
 675 151.099609375 703 167.200195312 716.299804688 191.700195312 c 0
 726.099609375 211.299804688 733.799804688 249.099609375 733.799804688 307.200195312 c 2
 733.799804688 313.5 l 1
 723.299804688 284.799804688 698.099609375 241.400390625 643.5 241.400390625 c 0
 588.900390625 241.400390625 563.700195312 268.700195312 549 291.099609375 c 0
 523.099609375 329.599609375 520.299804688 366.700195312 520.299804688 410.099609375 c 0
615.5 415 m 2
 616.900390625 334.5 619.700195312 322.599609375 630.200195312 308.599609375 c 0
 640 296.700195312 654.700195312 292.5 669.400390625 292.5 c 0
 685.5 292.5 706.5 298.799804688 719.799804688 326.799804688 c 0
 728.900390625 345 733.799804688 372.299804688 733.799804688 413.599609375 c 0
 733.799804688 467.5 733.099609375 539.599609375 675 539.599609375 c 0
 659.599609375 539.599609375 647 536.099609375 639.299804688 529.799804688 c 0
 612.700195312 510.200195312 617.599609375 465.400390625 615.5 437.400390625 c 2
 615.5 415 l 2
175.200195312 501.799804688 m 1
 194.799804688 550.099609375 234.700195312 601.900390625 311 601.900390625 c 0
 402 601.900390625 460.099609375 522.099609375 460.099609375 440.900390625 c 0
 460.099609375 369.5 408.299804688 333.099609375 327.799804688 260.299804688 c 2
 248 174.200195312 l 1
 460.099609375 175.599609375 l 1
 460.099609375 100 l 1
 181.5 100 l 1
 181.5 170 l 1
 283 277.799804688 l 2
 308.200195312 307.900390625 364.200195312 364.599609375 364.200195312 439.5 c 0
 364.200195312 486.400390625 343.200195312 531.900390625 302.599609375 531.900390625 c 0
 257.799804688 531.900390625 236.099609375 485.700195312 223.5 440.200195312 c 1
 175.200195312 501.799804688 l 1
EndSplineSet
EndChar
StartChar: uF26B5
Encoding: 992949 992949 1809
Width: 1000
Flags: MW
LayerCount: 2
Fore
SplineSet
700 -184 m 1
 720 -160 743 -130 766 -88 c 0
 807 -12 864 104 864 303 c 0
 864 663 713 764 700 789 c 1
 753 789 l 1
 898 672 960 495 960 302 c 0
 960 109 898 -67 753 -184 c 1
 700 -184 l 1
40 302 m 0
 40 497 102 672 248 789 c 1
 300 789 l 1
 278 762 251 727 226 676 c 0
 189 600 137 486 137 303 c 0
 137 -59 287 -157 300 -184 c 1
 248 -184 l 1
 102 -66 40 111 40 302 c 0
525.200195312 339.400390625 m 0
 525.200195312 450.700195312 547.599609375 496.200195312 567.200195312 525.599609375 c 0
 601.5 577.400390625 652.599609375 601.900390625 707.200195312 601.900390625 c 0
 729.599609375 601.900390625 746.400390625 598.400390625 771.599609375 587.200195312 c 1
 771.599609375 522.799804688 l 1
 749.900390625 533.299804688 733.099609375 539.599609375 709.299804688 539.599609375 c 0
 668.700195312 539.599609375 648.400390625 513 641.400390625 497.599609375 c 0
 631.599609375 477.299804688 623.900390625 442.299804688 623.900390625 373.700195312 c 1
 635.799804688 408.700195312 658.200195312 445.099609375 699.5 445.099609375 c 0
 752.700195312 445.099609375 776.5 418.5 791.900390625 396.799804688 c 0
 818.5 357.599609375 821.299804688 319.799804688 821.299804688 275 c 2
 821.299804688 270.799804688 l 2
 821.299804688 232.299804688 820.599609375 188.900390625 796.099609375 149.700195312 c 0
 754.799804688 86 701.599609375 84.599609375 675 84.599609375 c 0
 632.299804688 84.599609375 598.700195312 103.5 574.900390625 132.200195312 c 0
 527.299804688 188.900390625 525.200195312 283.400390625 525.200195312 339.400390625 c 0
624.599609375 277.099609375 m 0
 624.599609375 271.5 624.599609375 265.900390625 624.599609375 260.299804688 c 4
 625.299804688 203.599609375 631.599609375 150.400390625 676.400390625 150.400390625 c 0
 712.099609375 150.400390625 721.200195312 181.900390625 722.599609375 219 c 0
 723.299804688 235.099609375 722.599609375 251.900390625 723.299804688 268 c 2
 723.299804688 291.799804688 l 2
 722.599609375 319.099609375 723.299804688 345.700195312 717 364.599609375 c 0
 711.400390625 382.099609375 700.200195312 394 677.799804688 394 c 0
 641.400390625 394 628.099609375 349.200195312 625.299804688 301.599609375 c 0
 624.599609375 293.200195312 624.599609375 285.5 624.599609375 277.099609375 c 0
175.200195312 140.599609375 m 1
 187.099609375 205.700195312 l 1
 209.5 186.799804688 233.299804688 171.400390625 260.599609375 161.599609375 c 0
 276 155.299804688 292.799804688 151.099609375 311 151.099609375 c 0
 330.599609375 151.099609375 343.200195312 158.099609375 351.599609375 169.299804688 c 0
 364.200195312 186.799804688 365.599609375 213.400390625 365.599609375 237.900390625 c 2
 365.599609375 251.200195312 l 2xe8
 365.599609375 282.700195312 360 302.299804688 353 314.900390625 c 0
 337.599609375 341.5 313.099609375 335.900390625 302.599609375 337.299804688 c 2
 269 337.299804688 l 1
 269 387.700195312 l 1
 289.299804688 389.799804688 296.299804688 389.799804688 303.299804688 391.900390625 c 0
 327.799804688 398.200195312 353 429 353 482.900390625 c 0
 353 500.400390625 350.900390625 517.200195312 342.5 527.700195312 c 0
 336.200195312 535.400390625 327.799804688 539.599609375 313.099609375 539.599609375 c 0xf0
 295.599609375 539.599609375 281.599609375 534.700195312 269.700195312 527 c 0
 257.099609375 519.299804688 245.900390625 508.799804688 237.5 499.700195312 c 0
 229.799804688 491.299804688 224.900390625 483.599609375 222.799804688 480.099609375 c 1
 185.700195312 533.299804688 l 1
 204.599609375 556.400390625 228.400390625 576 258.5 588.599609375 c 0
 274.599609375 597 293.5 601.900390625 314.5 601.900390625 c 0
 357.900390625 601.900390625 390.799804688 588.599609375 412.5 569 c 0
 441.200195312 543.799804688 447.5 508.099609375 447.5 480.799804688 c 0xf0
 447.5 450.700195312 437.700195312 427.599609375 424.400390625 410.099609375 c 0
 406.900390625 386.299804688 383.099609375 372.299804688 369.799804688 364.599609375 c 1
 383.799804688 361.099609375 418.799804688 352.700195312 443.299804688 323.299804688 c 0
 458.700195312 305.099609375 469.200195312 279.200195312 469.200195312 242.099609375 c 0
 469.200195312 193.099609375 455.900390625 143.400390625 412.5 113.299804688 c 4
 387.299804688 95.7998046875 353.700195312 84.599609375 313.799804688 84.599609375 c 0
 291.400390625 84.599609375 271.799804688 88.7998046875 251.5 96.5 c 0
 223.5 106.299804688 198.299804688 121 175.200195312 140.599609375 c 1
EndSplineSet
EndChar
StartChar: uF26B7
Encoding: 992951 992951 1811
Width: 1000
Flags: MW
LayerCount: 2
Fore
SplineSet
700 -184 m 1
 720 -160 743 -130 766 -88 c 0
 807 -12 864 104 864 303 c 0
 864 663 713 764 700 789 c 1
 753 789 l 1
 898 672 960 495 960 302 c 0
 960 109 898 -67 753 -184 c 1
 700 -184 l 1
40 302 m 0
 40 497 102 672 248 789 c 1
 300 789 l 1
 278 762 251 727 226 676 c 0
 189 600 137 486 137 303 c 0
 137 -59 287 -157 300 -184 c 1
 248 -184 l 1
 102 -66 40 111 40 302 c 0
525.200195312 240.700195312 m 0xf2
 525.200195312 300.900390625 551.099609375 345.700195312 612 362.5 c 1
 596.599609375 368.799804688 535.700195312 384.200195312 535.700195312 466.099609375 c 0
 535.700195312 534 565.799804688 601.900390625 672.900390625 601.900390625 c 2
 673.599609375 601.900390625 l 2
 780.700195312 601.900390625 810.099609375 534 810.099609375 465.400390625 c 0xec
 810.099609375 375.799804688 734.5 365.299804688 733.799804688 362.5 c 1
 794.700195312 345.700195312 820.599609375 300.900390625 820.599609375 240.700195312 c 0
 820.599609375 162.299804688 788.400390625 84.599609375 672.900390625 84.599609375 c 0
 557.400390625 84.599609375 525.200195312 163 525.200195312 240.700195312 c 0xf2
623.200195312 233 m 2
 623.900390625 206.400390625 623.900390625 181.200195312 635.799804688 165.799804688 c 0
 642.799804688 156.700195312 654 151.099609375 672.200195312 151.099609375 c 0
 687.599609375 151.099609375 699.5 156 706.5 163 c 4
 725.400390625 181.200195312 722.599609375 216.200195312 723.299804688 238.599609375 c 2
 723.299804688 253.299804688 l 2xf2
 722.599609375 282 720.5 306.5 710 321.200195312 c 0
 703 331.700195312 691.099609375 337.299804688 672.900390625 337.299804688 c 0
 654.700195312 337.299804688 643.5 331 636.5 321.200195312 c 0
 621.099609375 300.900390625 623.900390625 267.299804688 623.200195312 249.099609375 c 2
 623.200195312 233 l 2
624.599609375 457.700195312 m 2xec
 624.599609375 432.5 627.400390625 414.299804688 635.799804688 402.400390625 c 0
 642.799804688 392.599609375 654.700195312 387.700195312 672.200195312 387.700195312 c 0
 690.400390625 387.700195312 702.299804688 393.299804688 709.299804688 402.400390625 c 0
 719.799804688 416.400390625 721.200195312 437.400390625 721.200195312 458.400390625 c 2
 721.200195312 471 l 2
 721.200195312 493.400390625 719.099609375 510.200195312 712.799804688 521.400390625 c 0
 705.799804688 534 693.900390625 539.599609375 673.599609375 539.599609375 c 0
 655.400390625 539.599609375 644.200195312 534.700195312 637.200195312 527 c 0
 624.599609375 513 625.299804688 489.900390625 624.599609375 470.299804688 c 2
 624.599609375 457.700195312 l 2xec
175.200195312 140.599609375 m 1
 187.099609375 205.700195312 l 1
 209.5 186.799804688 233.299804688 171.400390625 260.599609375 161.599609375 c 0
 276 155.299804688 292.799804688 151.099609375 311 151.099609375 c 0
 330.599609375 151.099609375 343.200195312 158.099609375 351.599609375 169.299804688 c 0
 364.200195312 186.799804688 365.599609375 213.400390625 365.599609375 237.900390625 c 2
 365.599609375 251.200195312 l 2xe8
 365.599609375 282.700195312 360 302.299804688 353 314.900390625 c 0
 337.599609375 341.5 313.099609375 335.900390625 302.599609375 337.299804688 c 2
 269 337.299804688 l 1
 269 387.700195312 l 1
 289.299804688 389.799804688 296.299804688 389.799804688 303.299804688 391.900390625 c 0
 327.799804688 398.200195312 353 429 353 482.900390625 c 0
 353 500.400390625 350.900390625 517.200195312 342.5 527.700195312 c 0
 336.200195312 535.400390625 327.799804688 539.599609375 313.099609375 539.599609375 c 0xf0
 295.599609375 539.599609375 281.599609375 534.700195312 269.700195312 527 c 0
 257.099609375 519.299804688 245.900390625 508.799804688 237.5 499.700195312 c 0
 229.799804688 491.299804688 224.900390625 483.599609375 222.799804688 480.099609375 c 1
 185.700195312 533.299804688 l 1
 204.599609375 556.400390625 228.400390625 576 258.5 588.599609375 c 0
 274.599609375 597 293.5 601.900390625 314.5 601.900390625 c 0
 357.900390625 601.900390625 390.799804688 588.599609375 412.5 569 c 0
 441.200195312 543.799804688 447.5 508.099609375 447.5 480.799804688 c 0xf0
 447.5 450.700195312 437.700195312 427.599609375 424.400390625 410.099609375 c 0
 406.900390625 386.299804688 383.099609375 372.299804688 369.799804688 364.599609375 c 1
 383.799804688 361.099609375 418.799804688 352.700195312 443.299804688 323.299804688 c 0
 458.700195312 305.099609375 469.200195312 279.200195312 469.200195312 242.099609375 c 0
 469.200195312 193.099609375 455.900390625 143.400390625 412.5 113.299804688 c 4
 387.299804688 95.7998046875 353.700195312 84.599609375 313.799804688 84.599609375 c 0
 291.400390625 84.599609375 271.799804688 88.7998046875 251.5 96.5 c 0
 223.5 106.299804688 198.299804688 121 175.200195312 140.599609375 c 1
EndSplineSet
EndChar
StartChar: uF26B8
Encoding: 992952 992952 1812
Width: 1000
Flags: MW
LayerCount: 2
Fore
SplineSet
700 -184 m 1
 720 -160 743 -130 766 -88 c 0
 807 -12 864 104 864 303 c 0
 864 663 713 764 700 789 c 1
 753 789 l 1
 898 672 960 495 960 302 c 0
 960 109 898 -67 753 -184 c 1
 700 -184 l 1
40 302 m 0
 40 497 102 672 248 789 c 1
 300 789 l 1
 278 762 251 727 226 676 c 0
 189 600 137 486 137 303 c 0
 137 -59 287 -157 300 -184 c 1
 248 -184 l 1
 102 -66 40 111 40 302 c 0
520.299804688 410.099609375 m 0
 520.299804688 459.099609375 520.299804688 501.099609375 550.400390625 542.400390625 c 0
 575.599609375 577.400390625 607.799804688 601.900390625 676.400390625 601.900390625 c 0
 720.5 601.900390625 750.599609375 586.5 773.700195312 563.400390625 c 0
 827.599609375 509.5 829.700195312 410.799804688 829.700195312 351.299804688 c 0
 829.700195312 278.5 823.400390625 186.799804688 766 131.5 c 0
 733.799804688 97.900390625 686.900390625 84.599609375 642.799804688 84.599609375 c 0
 603.599609375 84.599609375 575.599609375 96.5 544.099609375 118.200195312 c 1
 577.700195312 177 l 1
 598.700195312 160.900390625 613.400390625 151.099609375 642.799804688 151.099609375 c 0
 675 151.099609375 703 167.200195312 716.299804688 191.700195312 c 0
 726.099609375 211.299804688 733.799804688 249.099609375 733.799804688 307.200195312 c 2
 733.799804688 313.5 l 1
 723.299804688 284.799804688 698.099609375 241.400390625 643.5 241.400390625 c 0
 588.900390625 241.400390625 563.700195312 268.700195312 549 291.099609375 c 0
 523.099609375 329.599609375 520.299804688 366.700195312 520.299804688 410.099609375 c 0
615.5 415 m 2
 616.900390625 334.5 619.700195312 322.599609375 630.200195312 308.599609375 c 0
 640 296.700195312 654.700195312 292.5 669.400390625 292.5 c 0
 685.5 292.5 706.5 298.799804688 719.799804688 326.799804688 c 0
 728.900390625 345 733.799804688 372.299804688 733.799804688 413.599609375 c 0
 733.799804688 467.5 733.099609375 539.599609375 675 539.599609375 c 0
 659.599609375 539.599609375 647 536.099609375 639.299804688 529.799804688 c 0
 612.700195312 510.200195312 617.599609375 465.400390625 615.5 437.400390625 c 2
 615.5 415 l 2
175.200195312 140.599609375 m 1
 187.099609375 205.700195312 l 1
 209.5 186.799804688 233.299804688 171.400390625 260.599609375 161.599609375 c 0
 276 155.299804688 292.799804688 151.099609375 311 151.099609375 c 0
 330.599609375 151.099609375 343.200195312 158.099609375 351.599609375 169.299804688 c 0
 364.200195312 186.799804688 365.599609375 213.400390625 365.599609375 237.900390625 c 2
 365.599609375 251.200195312 l 2xe8
 365.599609375 282.700195312 360 302.299804688 353 314.900390625 c 0
 337.599609375 341.5 313.099609375 335.900390625 302.599609375 337.299804688 c 2
 269 337.299804688 l 1
 269 387.700195312 l 1
 289.299804688 389.799804688 296.299804688 389.799804688 303.299804688 391.900390625 c 0
 327.799804688 398.200195312 353 429 353 482.900390625 c 0
 353 500.400390625 350.900390625 517.200195312 342.5 527.700195312 c 0
 336.200195312 535.400390625 327.799804688 539.599609375 313.099609375 539.599609375 c 0xf0
 295.599609375 539.599609375 281.599609375 534.700195312 269.700195312 527 c 0
 257.099609375 519.299804688 245.900390625 508.799804688 237.5 499.700195312 c 0
 229.799804688 491.299804688 224.900390625 483.599609375 222.799804688 480.099609375 c 1
 185.700195312 533.299804688 l 1
 204.599609375 556.400390625 228.400390625 576 258.5 588.599609375 c 0
 274.599609375 597 293.5 601.900390625 314.5 601.900390625 c 0
 357.900390625 601.900390625 390.799804688 588.599609375 412.5 569 c 0
 441.200195312 543.799804688 447.5 508.099609375 447.5 480.799804688 c 0xf0
 447.5 450.700195312 437.700195312 427.599609375 424.400390625 410.099609375 c 0
 406.900390625 386.299804688 383.099609375 372.299804688 369.799804688 364.599609375 c 1
 383.799804688 361.099609375 418.799804688 352.700195312 443.299804688 323.299804688 c 0
 458.700195312 305.099609375 469.200195312 279.200195312 469.200195312 242.099609375 c 0
 469.200195312 193.099609375 455.900390625 143.400390625 412.5 113.299804688 c 4
 387.299804688 95.7998046875 353.700195312 84.599609375 313.799804688 84.599609375 c 0
 291.400390625 84.599609375 271.799804688 88.7998046875 251.5 96.5 c 0
 223.5 106.299804688 198.299804688 121 175.200195312 140.599609375 c 1
EndSplineSet
EndChar
StartChar: uF26C4
Encoding: 992964 992964 1824
Width: 1000
Flags: MW
LayerCount: 2
Fore
SplineSet
700 -184 m 1
 720 -160 743 -130 766 -88 c 0
 807 -12 864 104 864 303 c 0
 864 663 713 764 700 789 c 1
 753 789 l 1
 898 672 960 495 960 302 c 0
 960 109 898 -67 753 -184 c 1
 700 -184 l 1
40 302 m 0
 40 497 102 672 248 789 c 1
 300 789 l 1
 278 762 251 727 226 676 c 0
 189 600 137 486 137 303 c 0
 137 -59 287 -157 300 -184 c 1
 248 -184 l 1
 102 -66 40 111 40 302 c 0
542.700195312 502.5 m 1
 542.700195312 553.599609375 l 1
 623.900390625 553.599609375 671.5 569 710.700195312 601.900390625 c 1
 735.200195312 601.900390625 l 1
 735.200195312 151.099609375 l 1
 817.799804688 151.099609375 l 1
 817.799804688 100 l 1
 553.200195312 100 l 1
 553.200195312 151.099609375 l 1
 638.599609375 151.099609375 l 1
 638.599609375 513.700195312 l 1
 609.200195312 505.299804688 576.299804688 502.5 542.700195312 502.5 c 1
170.299804688 157.400390625 m 1
 207.400390625 218.299804688 l 1
 211.599609375 211.299804688 215.099609375 205 220 198 c 0
 231.200195312 182.599609375 245.200195312 171.400390625 258.5 163.700195312 c 0
 272.5 154.599609375 288.599609375 150.400390625 302.599609375 150.400390625 c 0
 327.099609375 150.400390625 341.099609375 159.5 349.5 175.599609375 c 0
 359.299804688 194.5 360.700195312 222.5 360.700195312 254 c 2
 360.700195312 273.599609375 l 2
 360.700195312 301.599609375 359.299804688 330.299804688 350.900390625 347.799804688 c 0
 346 358.299804688 337.599609375 365.299804688 325 365.299804688 c 0
 284.400390625 365.299804688 270.400390625 307.200195312 269.700195312 307.200195312 c 2
 202.5 307.200195312 l 1
 202.5 586.5 l 1
 438.400390625 586.5 l 1
 438.400390625 515.799804688 l 1
 285.799804688 515.799804688 l 1
 285.799804688 404.5 l 1
 297 410.799804688 308.200195312 416.400390625 327.799804688 416.400390625 c 0
 360 416.400390625 393.599609375 406.599609375 418.799804688 384.200195312 c 4
 447.5 358.299804688 464.299804688 316.299804688 464.299804688 253.299804688 c 0
 464.299804688 193.799804688 447.5 154.599609375 420.900390625 128.700195312 c 0
 387.299804688 95.7998046875 342.5 84.599609375 304.700195312 84.599609375 c 0
 281.599609375 84.599609375 262 90.2001953125 244.5 98.599609375 c 0
 203.200195312 115.400390625 180.099609375 143.400390625 170.299804688 157.400390625 c 1
EndSplineSet
EndChar
StartChar: uF26C6
Encoding: 992966 992966 1826
Width: 1000
Flags: MW
LayerCount: 2
Fore
SplineSet
700 -184 m 1
 720 -160 743 -130 766 -88 c 0
 807 -12 864 104 864 303 c 0
 864 663 713 764 700 789 c 1
 753 789 l 1
 898 672 960 495 960 302 c 0
 960 109 898 -67 753 -184 c 1
 700 -184 l 1
40 302 m 0
 40 497 102 672 248 789 c 1
 300 789 l 1
 278 762 251 727 226 676 c 0
 189 600 137 486 137 303 c 0
 137 -59 287 -157 300 -184 c 1
 248 -184 l 1
 102 -66 40 111 40 302 c 0
525.200195312 140.599609375 m 1
 537.099609375 205.700195312 l 1
 559.5 186.799804688 583.299804688 171.400390625 610.599609375 161.599609375 c 0
 626 155.299804688 642.799804688 151.099609375 661 151.099609375 c 0
 680.599609375 151.099609375 693.200195312 158.099609375 701.599609375 169.299804688 c 0
 714.200195312 186.799804688 715.599609375 213.400390625 715.599609375 237.900390625 c 2
 715.599609375 251.200195312 l 2xe8
 715.599609375 282.700195312 710 302.299804688 703 314.900390625 c 0
 687.599609375 341.5 663.099609375 335.900390625 652.599609375 337.299804688 c 2
 619 337.299804688 l 1
 619 387.700195312 l 1
 639.299804688 389.799804688 646.299804688 389.799804688 653.299804688 391.900390625 c 0
 677.799804688 398.200195312 703 429 703 482.900390625 c 0
 703 500.400390625 700.900390625 517.200195312 692.5 527.700195312 c 0
 686.200195312 535.400390625 677.799804688 539.599609375 663.099609375 539.599609375 c 0xf0
 645.599609375 539.599609375 631.599609375 534.700195312 619.700195312 527 c 0
 607.099609375 519.299804688 595.900390625 508.799804688 587.5 499.700195312 c 0
 579.799804688 491.299804688 574.900390625 483.599609375 572.799804688 480.099609375 c 1
 535.700195312 533.299804688 l 1
 554.599609375 556.400390625 578.400390625 576 608.5 588.599609375 c 0
 624.599609375 597 643.5 601.900390625 664.5 601.900390625 c 0
 707.900390625 601.900390625 740.799804688 588.599609375 762.5 569 c 0
 791.200195312 543.799804688 797.5 508.099609375 797.5 480.799804688 c 0xf0
 797.5 450.700195312 787.700195312 427.599609375 774.400390625 410.099609375 c 0
 756.900390625 386.299804688 733.099609375 372.299804688 719.799804688 364.599609375 c 1
 733.799804688 361.099609375 768.799804688 352.700195312 793.299804688 323.299804688 c 0
 808.700195312 305.099609375 819.200195312 279.200195312 819.200195312 242.099609375 c 0
 819.200195312 193.099609375 805.900390625 143.400390625 762.5 113.299804688 c 4
 737.299804688 95.7998046875 703.700195312 84.599609375 663.799804688 84.599609375 c 0
 641.400390625 84.599609375 621.799804688 88.7998046875 601.5 96.5 c 0
 573.5 106.299804688 548.299804688 121 525.200195312 140.599609375 c 1
170.299804688 157.400390625 m 1
 207.400390625 218.299804688 l 1
 211.599609375 211.299804688 215.099609375 205 220 198 c 0
 231.200195312 182.599609375 245.200195312 171.400390625 258.5 163.700195312 c 0
 272.5 154.599609375 288.599609375 150.400390625 302.599609375 150.400390625 c 0
 327.099609375 150.400390625 341.099609375 159.5 349.5 175.599609375 c 0
 359.299804688 194.5 360.700195312 222.5 360.700195312 254 c 2
 360.700195312 273.599609375 l 2
 360.700195312 301.599609375 359.299804688 330.299804688 350.900390625 347.799804688 c 0
 346 358.299804688 337.599609375 365.299804688 325 365.299804688 c 0
 284.400390625 365.299804688 270.400390625 307.200195312 269.700195312 307.200195312 c 2
 202.5 307.200195312 l 1
 202.5 586.5 l 1
 438.400390625 586.5 l 1
 438.400390625 515.799804688 l 1
 285.799804688 515.799804688 l 1
 285.799804688 404.5 l 1
 297 410.799804688 308.200195312 416.400390625 327.799804688 416.400390625 c 0
 360 416.400390625 393.599609375 406.599609375 418.799804688 384.200195312 c 4
 447.5 358.299804688 464.299804688 316.299804688 464.299804688 253.299804688 c 0
 464.299804688 193.799804688 447.5 154.599609375 420.900390625 128.700195312 c 0
 387.299804688 95.7998046875 342.5 84.599609375 304.700195312 84.599609375 c 0
 281.599609375 84.599609375 262 90.2001953125 244.5 98.599609375 c 0
 203.200195312 115.400390625 180.099609375 143.400390625 170.299804688 157.400390625 c 1
EndSplineSet
EndChar
StartChar: uF26CF
Encoding: 992975 992975 1835
Width: 1000
Flags: MW
LayerCount: 2
Fore
SplineSet
700 -184 m 1
 720 -160 743 -130 766 -88 c 0
 807 -12 864 104 864 303 c 0
 864 663 713 764 700 789 c 1
 753 789 l 1
 898 672 960 495 960 302 c 0
 960 109 898 -67 753 -184 c 1
 700 -184 l 1
40 302 m 0
 40 497 102 672 248 789 c 1
 300 789 l 1
 278 762 251 727 226 676 c 0
 189 600 137 486 137 303 c 0
 137 -59 287 -157 300 -184 c 1
 248 -184 l 1
 102 -66 40 111 40 302 c 0
525.200195312 501.799804688 m 1
 544.799804688 550.099609375 584.700195312 601.900390625 661 601.900390625 c 0
 752 601.900390625 810.099609375 522.099609375 810.099609375 440.900390625 c 0
 810.099609375 369.5 758.299804688 333.099609375 677.799804688 260.299804688 c 2
 598 174.200195312 l 1
 810.099609375 175.599609375 l 1
 810.099609375 100 l 1
 531.5 100 l 1
 531.5 170 l 1
 633 277.799804688 l 2
 658.200195312 307.900390625 714.200195312 364.599609375 714.200195312 439.5 c 0
 714.200195312 486.400390625 693.200195312 531.900390625 652.599609375 531.900390625 c 0
 607.799804688 531.900390625 586.099609375 485.700195312 573.5 440.200195312 c 1
 525.200195312 501.799804688 l 1
175.200195312 339.400390625 m 0
 175.200195312 450.700195312 197.599609375 496.200195312 217.200195312 525.599609375 c 0
 251.5 577.400390625 302.599609375 601.900390625 357.200195312 601.900390625 c 0
 379.599609375 601.900390625 396.400390625 598.400390625 421.599609375 587.200195312 c 1
 421.599609375 522.799804688 l 1
 399.900390625 533.299804688 383.099609375 539.599609375 359.299804688 539.599609375 c 0
 318.700195312 539.599609375 298.400390625 513 291.400390625 497.599609375 c 0
 281.599609375 477.299804688 273.900390625 442.299804688 273.900390625 373.700195312 c 1
 285.799804688 408.700195312 308.200195312 445.099609375 349.5 445.099609375 c 0
 402.700195312 445.099609375 426.5 418.5 441.900390625 396.799804688 c 0
 468.5 357.599609375 471.299804688 319.799804688 471.299804688 275 c 2
 471.299804688 270.799804688 l 2
 471.299804688 232.299804688 470.599609375 188.900390625 446.099609375 149.700195312 c 0
 404.799804688 86 351.599609375 84.599609375 325 84.599609375 c 0
 282.299804688 84.599609375 248.700195312 103.5 224.900390625 132.200195312 c 0
 177.299804688 188.900390625 175.200195312 283.400390625 175.200195312 339.400390625 c 0
274.599609375 277.099609375 m 0
 274.599609375 271.5 274.599609375 265.900390625 274.599609375 260.299804688 c 4
 275.299804688 203.599609375 281.599609375 150.400390625 326.400390625 150.400390625 c 0
 362.099609375 150.400390625 371.200195312 181.900390625 372.599609375 219 c 0
 373.299804688 235.099609375 372.599609375 251.900390625 373.299804688 268 c 2
 373.299804688 291.799804688 l 2
 372.599609375 319.099609375 373.299804688 345.700195312 367 364.599609375 c 0
 361.400390625 382.099609375 350.200195312 394 327.799804688 394 c 0
 291.400390625 394 278.099609375 349.200195312 275.299804688 301.599609375 c 0
 274.599609375 293.200195312 274.599609375 285.5 274.599609375 277.099609375 c 0
EndSplineSet
EndChar
StartChar: uF26D2
Encoding: 992978 992978 1838
Width: 1000
Flags: MW
LayerCount: 2
Fore
SplineSet
700 -184 m 1
 720 -160 743 -130 766 -88 c 0
 807 -12 864 104 864 303 c 0
 864 663 713 764 700 789 c 1
 753 789 l 1
 898 672 960 495 960 302 c 0
 960 109 898 -67 753 -184 c 1
 700 -184 l 1
40 302 m 0
 40 497 102 672 248 789 c 1
 300 789 l 1
 278 762 251 727 226 676 c 0
 189 600 137 486 137 303 c 0
 137 -59 287 -157 300 -184 c 1
 248 -184 l 1
 102 -66 40 111 40 302 c 0
520.299804688 157.400390625 m 1
 557.400390625 218.299804688 l 1
 561.599609375 211.299804688 565.099609375 205 570 198 c 0
 581.200195312 182.599609375 595.200195312 171.400390625 608.5 163.700195312 c 0
 622.5 154.599609375 638.599609375 150.400390625 652.599609375 150.400390625 c 0
 677.099609375 150.400390625 691.099609375 159.5 699.5 175.599609375 c 0
 709.299804688 194.5 710.700195312 222.5 710.700195312 254 c 2
 710.700195312 273.599609375 l 2
 710.700195312 301.599609375 709.299804688 330.299804688 700.900390625 347.799804688 c 0
 696 358.299804688 687.599609375 365.299804688 675 365.299804688 c 0
 634.400390625 365.299804688 620.400390625 307.200195312 619.700195312 307.200195312 c 2
 552.5 307.200195312 l 1
 552.5 586.5 l 1
 788.400390625 586.5 l 1
 788.400390625 515.799804688 l 1
 635.799804688 515.799804688 l 1
 635.799804688 404.5 l 1
 647 410.799804688 658.200195312 416.400390625 677.799804688 416.400390625 c 0
 710 416.400390625 743.599609375 406.599609375 768.799804688 384.200195312 c 4
 797.5 358.299804688 814.299804688 316.299804688 814.299804688 253.299804688 c 0
 814.299804688 193.799804688 797.5 154.599609375 770.900390625 128.700195312 c 0
 737.299804688 95.7998046875 692.5 84.599609375 654.700195312 84.599609375 c 0
 631.599609375 84.599609375 612 90.2001953125 594.5 98.599609375 c 0
 553.200195312 115.400390625 530.099609375 143.400390625 520.299804688 157.400390625 c 1
175.200195312 339.400390625 m 0
 175.200195312 450.700195312 197.599609375 496.200195312 217.200195312 525.599609375 c 0
 251.5 577.400390625 302.599609375 601.900390625 357.200195312 601.900390625 c 0
 379.599609375 601.900390625 396.400390625 598.400390625 421.599609375 587.200195312 c 1
 421.599609375 522.799804688 l 1
 399.900390625 533.299804688 383.099609375 539.599609375 359.299804688 539.599609375 c 0
 318.700195312 539.599609375 298.400390625 513 291.400390625 497.599609375 c 0
 281.599609375 477.299804688 273.900390625 442.299804688 273.900390625 373.700195312 c 1
 285.799804688 408.700195312 308.200195312 445.099609375 349.5 445.099609375 c 0
 402.700195312 445.099609375 426.5 418.5 441.900390625 396.799804688 c 0
 468.5 357.599609375 471.299804688 319.799804688 471.299804688 275 c 2
 471.299804688 270.799804688 l 2
 471.299804688 232.299804688 470.599609375 188.900390625 446.099609375 149.700195312 c 0
 404.799804688 86 351.599609375 84.599609375 325 84.599609375 c 0
 282.299804688 84.599609375 248.700195312 103.5 224.900390625 132.200195312 c 0
 177.299804688 188.900390625 175.200195312 283.400390625 175.200195312 339.400390625 c 0
274.599609375 277.099609375 m 0
 274.599609375 271.5 274.599609375 265.900390625 274.599609375 260.299804688 c 4
 275.299804688 203.599609375 281.599609375 150.400390625 326.400390625 150.400390625 c 0
 362.099609375 150.400390625 371.200195312 181.900390625 372.599609375 219 c 0
 373.299804688 235.099609375 372.599609375 251.900390625 373.299804688 268 c 2
 373.299804688 291.799804688 l 2
 372.599609375 319.099609375 373.299804688 345.700195312 367 364.599609375 c 0
 361.400390625 382.099609375 350.200195312 394 327.799804688 394 c 0
 291.400390625 394 278.099609375 349.200195312 275.299804688 301.599609375 c 0
 274.599609375 293.200195312 274.599609375 285.5 274.599609375 277.099609375 c 0
EndSplineSet
EndChar
StartChar: uF26D4
Encoding: 992980 992980 1840
Width: 1000
Flags: MW
LayerCount: 2
Fore
SplineSet
700 -184 m 1
 720 -160 743 -130 766 -88 c 0
 807 -12 864 104 864 303 c 0
 864 663 713 764 700 789 c 1
 753 789 l 1
 898 672 960 495 960 302 c 0
 960 109 898 -67 753 -184 c 1
 700 -184 l 1
40 302 m 0
 40 497 102 672 248 789 c 1
 300 789 l 1
 278 762 251 727 226 676 c 0
 189 600 137 486 137 303 c 0
 137 -59 287 -157 300 -184 c 1
 248 -184 l 1
 102 -66 40 111 40 302 c 0
525.200195312 510.900390625 m 1
 525.200195312 586.5 l 1
 831.799804688 586.5 l 1
 831.799804688 515.799804688 l 1
 731.700195312 395.400390625 692.5 240 692.5 92.2998046875 c 1
 593.099609375 92.2998046875 l 1
 593.099609375 249.799804688 655.400390625 403.099609375 776.5 511.599609375 c 1
 525.200195312 510.900390625 l 1
175.200195312 339.400390625 m 0
 175.200195312 450.700195312 197.599609375 496.200195312 217.200195312 525.599609375 c 0
 251.5 577.400390625 302.599609375 601.900390625 357.200195312 601.900390625 c 0
 379.599609375 601.900390625 396.400390625 598.400390625 421.599609375 587.200195312 c 1
 421.599609375 522.799804688 l 1
 399.900390625 533.299804688 383.099609375 539.599609375 359.299804688 539.599609375 c 0
 318.700195312 539.599609375 298.400390625 513 291.400390625 497.599609375 c 0
 281.599609375 477.299804688 273.900390625 442.299804688 273.900390625 373.700195312 c 1
 285.799804688 408.700195312 308.200195312 445.099609375 349.5 445.099609375 c 0
 402.700195312 445.099609375 426.5 418.5 441.900390625 396.799804688 c 0
 468.5 357.599609375 471.299804688 319.799804688 471.299804688 275 c 2
 471.299804688 270.799804688 l 2
 471.299804688 232.299804688 470.599609375 188.900390625 446.099609375 149.700195312 c 0
 404.799804688 86 351.599609375 84.599609375 325 84.599609375 c 0
 282.299804688 84.599609375 248.700195312 103.5 224.900390625 132.200195312 c 0
 177.299804688 188.900390625 175.200195312 283.400390625 175.200195312 339.400390625 c 0
274.599609375 277.099609375 m 0
 274.599609375 271.5 274.599609375 265.900390625 274.599609375 260.299804688 c 4
 275.299804688 203.599609375 281.599609375 150.400390625 326.400390625 150.400390625 c 0
 362.099609375 150.400390625 371.200195312 181.900390625 372.599609375 219 c 0
 373.299804688 235.099609375 372.599609375 251.900390625 373.299804688 268 c 2
 373.299804688 291.799804688 l 2
 372.599609375 319.099609375 373.299804688 345.700195312 367 364.599609375 c 0
 361.400390625 382.099609375 350.200195312 394 327.799804688 394 c 0
 291.400390625 394 278.099609375 349.200195312 275.299804688 301.599609375 c 0
 274.599609375 293.200195312 274.599609375 285.5 274.599609375 277.099609375 c 0
EndSplineSet
EndChar
StartChar: uF26D6
Encoding: 992982 992982 1842
Width: 1000
Flags: MW
LayerCount: 2
Fore
SplineSet
700 -184 m 1
 720 -160 743 -130 766 -88 c 0
 807 -12 864 104 864 303 c 0
 864 663 713 764 700 789 c 1
 753 789 l 1
 898 672 960 495 960 302 c 0
 960 109 898 -67 753 -184 c 1
 700 -184 l 1
40 302 m 0
 40 497 102 672 248 789 c 1
 300 789 l 1
 278 762 251 727 226 676 c 0
 189 600 137 486 137 303 c 0
 137 -59 287 -157 300 -184 c 1
 248 -184 l 1
 102 -66 40 111 40 302 c 0
520.299804688 410.099609375 m 0
 520.299804688 459.099609375 520.299804688 501.099609375 550.400390625 542.400390625 c 0
 575.599609375 577.400390625 607.799804688 601.900390625 676.400390625 601.900390625 c 0
 720.5 601.900390625 750.599609375 586.5 773.700195312 563.400390625 c 0
 827.599609375 509.5 829.700195312 410.799804688 829.700195312 351.299804688 c 0
 829.700195312 278.5 823.400390625 186.799804688 766 131.5 c 0
 733.799804688 97.900390625 686.900390625 84.599609375 642.799804688 84.599609375 c 0
 603.599609375 84.599609375 575.599609375 96.5 544.099609375 118.200195312 c 1
 577.700195312 177 l 1
 598.700195312 160.900390625 613.400390625 151.099609375 642.799804688 151.099609375 c 0
 675 151.099609375 703 167.200195312 716.299804688 191.700195312 c 0
 726.099609375 211.299804688 733.799804688 249.099609375 733.799804688 307.200195312 c 2
 733.799804688 313.5 l 1
 723.299804688 284.799804688 698.099609375 241.400390625 643.5 241.400390625 c 0
 588.900390625 241.400390625 563.700195312 268.700195312 549 291.099609375 c 0
 523.099609375 329.599609375 520.299804688 366.700195312 520.299804688 410.099609375 c 0
615.5 415 m 2
 616.900390625 334.5 619.700195312 322.599609375 630.200195312 308.599609375 c 0
 640 296.700195312 654.700195312 292.5 669.400390625 292.5 c 0
 685.5 292.5 706.5 298.799804688 719.799804688 326.799804688 c 0
 728.900390625 345 733.799804688 372.299804688 733.799804688 413.599609375 c 0
 733.799804688 467.5 733.099609375 539.599609375 675 539.599609375 c 0
 659.599609375 539.599609375 647 536.099609375 639.299804688 529.799804688 c 0
 612.700195312 510.200195312 617.599609375 465.400390625 615.5 437.400390625 c 2
 615.5 415 l 2
175.200195312 339.400390625 m 0
 175.200195312 450.700195312 197.599609375 496.200195312 217.200195312 525.599609375 c 0
 251.5 577.400390625 302.599609375 601.900390625 357.200195312 601.900390625 c 0
 379.599609375 601.900390625 396.400390625 598.400390625 421.599609375 587.200195312 c 1
 421.599609375 522.799804688 l 1
 399.900390625 533.299804688 383.099609375 539.599609375 359.299804688 539.599609375 c 0
 318.700195312 539.599609375 298.400390625 513 291.400390625 497.599609375 c 0
 281.599609375 477.299804688 273.900390625 442.299804688 273.900390625 373.700195312 c 1
 285.799804688 408.700195312 308.200195312 445.099609375 349.5 445.099609375 c 0
 402.700195312 445.099609375 426.5 418.5 441.900390625 396.799804688 c 0
 468.5 357.599609375 471.299804688 319.799804688 471.299804688 275 c 2
 471.299804688 270.799804688 l 2
 471.299804688 232.299804688 470.599609375 188.900390625 446.099609375 149.700195312 c 0
 404.799804688 86 351.599609375 84.599609375 325 84.599609375 c 0
 282.299804688 84.599609375 248.700195312 103.5 224.900390625 132.200195312 c 0
 177.299804688 188.900390625 175.200195312 283.400390625 175.200195312 339.400390625 c 0
274.599609375 277.099609375 m 0
 274.599609375 271.5 274.599609375 265.900390625 274.599609375 260.299804688 c 4
 275.299804688 203.599609375 281.599609375 150.400390625 326.400390625 150.400390625 c 0
 362.099609375 150.400390625 371.200195312 181.900390625 372.599609375 219 c 0
 373.299804688 235.099609375 372.599609375 251.900390625 373.299804688 268 c 2
 373.299804688 291.799804688 l 2
 372.599609375 319.099609375 373.299804688 345.700195312 367 364.599609375 c 0
 361.400390625 382.099609375 350.200195312 394 327.799804688 394 c 0
 291.400390625 394 278.099609375 349.200195312 275.299804688 301.599609375 c 0
 274.599609375 293.200195312 274.599609375 285.5 274.599609375 277.099609375 c 0
EndSplineSet
EndChar
StartChar: uF26D8
Encoding: 992984 992984 1844
Width: 1000
Flags: MW
LayerCount: 2
Fore
SplineSet
700 -184 m 1
 720 -160 743 -130 766 -88 c 0
 807 -12 864 104 864 303 c 0
 864 663 713 764 700 789 c 1
 753 789 l 1
 898 672 960 495 960 302 c 0
 960 109 898 -67 753 -184 c 1
 700 -184 l 1
40 302 m 0
 40 497 102 672 248 789 c 1
 300 789 l 1
 278 762 251 727 226 676 c 0
 189 600 137 486 137 303 c 0
 137 -59 287 -157 300 -184 c 1
 248 -184 l 1
 102 -66 40 111 40 302 c 0
542.700195312 502.5 m 1
 542.700195312 553.599609375 l 1
 623.900390625 553.599609375 671.5 569 710.700195312 601.900390625 c 1
 735.200195312 601.900390625 l 1
 735.200195312 151.099609375 l 1
 817.799804688 151.099609375 l 1
 817.799804688 100 l 1
 553.200195312 100 l 1
 553.200195312 151.099609375 l 1
 638.599609375 151.099609375 l 1
 638.599609375 513.700195312 l 1
 609.200195312 505.299804688 576.299804688 502.5 542.700195312 502.5 c 1
175.200195312 510.900390625 m 1
 175.200195312 586.5 l 1
 481.799804688 586.5 l 1
 481.799804688 515.799804688 l 1
 381.700195312 395.400390625 342.5 240 342.5 92.2998046875 c 1
 243.099609375 92.2998046875 l 1
 243.099609375 249.799804688 305.400390625 403.099609375 426.5 511.599609375 c 1
 175.200195312 510.900390625 l 1
EndSplineSet
EndChar
StartChar: uF26E0
Encoding: 992992 992992 1852
Width: 1000
Flags: MW
LayerCount: 2
Fore
SplineSet
700 -184 m 1
 720 -160 743 -130 766 -88 c 0
 807 -12 864 104 864 303 c 0
 864 663 713 764 700 789 c 1
 753 789 l 1
 898 672 960 495 960 302 c 0
 960 109 898 -67 753 -184 c 1
 700 -184 l 1
40 302 m 0
 40 497 102 672 248 789 c 1
 300 789 l 1
 278 762 251 727 226 676 c 0
 189 600 137 486 137 303 c 0
 137 -59 287 -157 300 -184 c 1
 248 -184 l 1
 102 -66 40 111 40 302 c 0
520.299804688 410.099609375 m 0
 520.299804688 459.099609375 520.299804688 501.099609375 550.400390625 542.400390625 c 0
 575.599609375 577.400390625 607.799804688 601.900390625 676.400390625 601.900390625 c 0
 720.5 601.900390625 750.599609375 586.5 773.700195312 563.400390625 c 0
 827.599609375 509.5 829.700195312 410.799804688 829.700195312 351.299804688 c 0
 829.700195312 278.5 823.400390625 186.799804688 766 131.5 c 0
 733.799804688 97.900390625 686.900390625 84.599609375 642.799804688 84.599609375 c 0
 603.599609375 84.599609375 575.599609375 96.5 544.099609375 118.200195312 c 1
 577.700195312 177 l 1
 598.700195312 160.900390625 613.400390625 151.099609375 642.799804688 151.099609375 c 0
 675 151.099609375 703 167.200195312 716.299804688 191.700195312 c 0
 726.099609375 211.299804688 733.799804688 249.099609375 733.799804688 307.200195312 c 2
 733.799804688 313.5 l 1
 723.299804688 284.799804688 698.099609375 241.400390625 643.5 241.400390625 c 0
 588.900390625 241.400390625 563.700195312 268.700195312 549 291.099609375 c 0
 523.099609375 329.599609375 520.299804688 366.700195312 520.299804688 410.099609375 c 0
615.5 415 m 2
 616.900390625 334.5 619.700195312 322.599609375 630.200195312 308.599609375 c 0
 640 296.700195312 654.700195312 292.5 669.400390625 292.5 c 0
 685.5 292.5 706.5 298.799804688 719.799804688 326.799804688 c 0
 728.900390625 345 733.799804688 372.299804688 733.799804688 413.599609375 c 0
 733.799804688 467.5 733.099609375 539.599609375 675 539.599609375 c 0
 659.599609375 539.599609375 647 536.099609375 639.299804688 529.799804688 c 0
 612.700195312 510.200195312 617.599609375 465.400390625 615.5 437.400390625 c 2
 615.5 415 l 2
175.200195312 510.900390625 m 1
 175.200195312 586.5 l 1
 481.799804688 586.5 l 1
 481.799804688 515.799804688 l 1
 381.700195312 395.400390625 342.5 240 342.5 92.2998046875 c 1
 243.099609375 92.2998046875 l 1
 243.099609375 249.799804688 305.400390625 403.099609375 426.5 511.599609375 c 1
 175.200195312 510.900390625 l 1
EndSplineSet
EndChar
StartChar: uF26E1
Encoding: 992993 992993 1853
Width: 1000
Flags: MW
LayerCount: 2
Fore
SplineSet
700 -184 m 1
 720 -160 743 -130 766 -88 c 0
 807 -12 864 104 864 303 c 0
 864 663 713 764 700 789 c 1
 753 789 l 1
 898 672 960 495 960 302 c 0
 960 109 898 -67 753 -184 c 1
 700 -184 l 1
40 302 m 0
 40 497 102 672 248 789 c 1
 300 789 l 1
 278 762 251 727 226 676 c 0
 189 600 137 486 137 303 c 0
 137 -59 287 -157 300 -184 c 1
 248 -184 l 1
 102 -66 40 111 40 302 c 0
523.799804688 340.799804688 m 0
 523.799804688 349.200195312 523.799804688 357.599609375 523.799804688 366 c 0
 525.200195312 456.299804688 536.400390625 564.799804688 626 594.200195312 c 0
 638.599609375 599.099609375 653.299804688 601.900390625 670.099609375 601.900390625 c 0
 702.299804688 601.900390625 738 590 767.400390625 557.799804688 c 0
 817.099609375 503.200195312 817.099609375 401.700195312 817.099609375 353.400390625 c 2
 817.099609375 346.400390625 l 2
 817.099609375 249.099609375 815.700195312 122.400390625 713.5 91.599609375 c 4
 700.900390625 87.400390625 686.200195312 84.599609375 669.400390625 84.599609375 c 0
 530.099609375 84.599609375 523.799804688 226 523.799804688 340.799804688 c 0
616.900390625 346.400390625 m 0
 616.900390625 208.5 620.400390625 163.700195312 649.799804688 142 c 0
 655.400390625 138.5 662.400390625 135 670.099609375 135 c 0
 673.599609375 135 688.299804688 135.700195312 700.900390625 153.200195312 c 0
 724 184 721.900390625 240 723.299804688 349.900390625 c 0
 723.299804688 357.599609375 724 366 724 375.099609375 c 0
 724 427.599609375 721.200195312 491.299804688 711.400390625 516.5 c 0
 703.700195312 536.099609375 688.299804688 550.799804688 670.099609375 550.799804688 c 0
 617.599609375 550.799804688 616.900390625 461.200195312 616.900390625 377.200195312 c 0
 616.900390625 366.700195312 616.900390625 356.200195312 616.900390625 346.400390625 c 0
175.200195312 240.700195312 m 0xf2
 175.200195312 300.900390625 201.099609375 345.700195312 262 362.5 c 1
 246.599609375 368.799804688 185.700195312 384.200195312 185.700195312 466.099609375 c 0
 185.700195312 534 215.799804688 601.900390625 322.900390625 601.900390625 c 2
 323.599609375 601.900390625 l 2
 430.700195312 601.900390625 460.099609375 534 460.099609375 465.400390625 c 0xec
 460.099609375 375.799804688 384.5 365.299804688 383.799804688 362.5 c 1
 444.700195312 345.700195312 470.599609375 300.900390625 470.599609375 240.700195312 c 0
 470.599609375 162.299804688 438.400390625 84.599609375 322.900390625 84.599609375 c 0
 207.400390625 84.599609375 175.200195312 163 175.200195312 240.700195312 c 0xf2
273.200195312 233 m 2
 273.900390625 206.400390625 273.900390625 181.200195312 285.799804688 165.799804688 c 0
 292.799804688 156.700195312 304 151.099609375 322.200195312 151.099609375 c 0
 337.599609375 151.099609375 349.5 156 356.5 163 c 4
 375.400390625 181.200195312 372.599609375 216.200195312 373.299804688 238.599609375 c 2
 373.299804688 253.299804688 l 2xf2
 372.599609375 282 370.5 306.5 360 321.200195312 c 0
 353 331.700195312 341.099609375 337.299804688 322.900390625 337.299804688 c 0
 304.700195312 337.299804688 293.5 331 286.5 321.200195312 c 0
 271.099609375 300.900390625 273.900390625 267.299804688 273.200195312 249.099609375 c 2
 273.200195312 233 l 2
274.599609375 457.700195312 m 2xec
 274.599609375 432.5 277.400390625 414.299804688 285.799804688 402.400390625 c 0
 292.799804688 392.599609375 304.700195312 387.700195312 322.200195312 387.700195312 c 0
 340.400390625 387.700195312 352.299804688 393.299804688 359.299804688 402.400390625 c 0
 369.799804688 416.400390625 371.200195312 437.400390625 371.200195312 458.400390625 c 2
 371.200195312 471 l 2
 371.200195312 493.400390625 369.099609375 510.200195312 362.799804688 521.400390625 c 0
 355.799804688 534 343.900390625 539.599609375 323.599609375 539.599609375 c 0
 305.400390625 539.599609375 294.200195312 534.700195312 287.200195312 527 c 0
 274.599609375 513 275.299804688 489.900390625 274.599609375 470.299804688 c 2
 274.599609375 457.700195312 l 2xec
EndSplineSet
EndChar
StartChar: uF26ED
Encoding: 993005 993005 1865
Width: 1000
Flags: MW
LayerCount: 2
Fore
SplineSet
700 -184 m 1
 720 -160 743 -130 766 -88 c 0
 807 -12 864 104 864 303 c 0
 864 663 713 764 700 789 c 1
 753 789 l 1
 898 672 960 495 960 302 c 0
 960 109 898 -67 753 -184 c 1
 700 -184 l 1
40 302 m 0
 40 497 102 672 248 789 c 1
 300 789 l 1
 278 762 251 727 226 676 c 0
 189 600 137 486 137 303 c 0
 137 -59 287 -157 300 -184 c 1
 248 -184 l 1
 102 -66 40 111 40 302 c 0
525.200195312 501.799804688 m 1
 544.799804688 550.099609375 584.700195312 601.900390625 661 601.900390625 c 0
 752 601.900390625 810.099609375 522.099609375 810.099609375 440.900390625 c 0
 810.099609375 369.5 758.299804688 333.099609375 677.799804688 260.299804688 c 2
 598 174.200195312 l 1
 810.099609375 175.599609375 l 1
 810.099609375 100 l 1
 531.5 100 l 1
 531.5 170 l 1
 633 277.799804688 l 2
 658.200195312 307.900390625 714.200195312 364.599609375 714.200195312 439.5 c 0
 714.200195312 486.400390625 693.200195312 531.900390625 652.599609375 531.900390625 c 0
 607.799804688 531.900390625 586.099609375 485.700195312 573.5 440.200195312 c 1
 525.200195312 501.799804688 l 1
170.299804688 410.099609375 m 0
 170.299804688 459.099609375 170.299804688 501.099609375 200.400390625 542.400390625 c 0
 225.599609375 577.400390625 257.799804688 601.900390625 326.400390625 601.900390625 c 0
 370.5 601.900390625 400.599609375 586.5 423.700195312 563.400390625 c 0
 477.599609375 509.5 479.700195312 410.799804688 479.700195312 351.299804688 c 0
 479.700195312 278.5 473.400390625 186.799804688 416 131.5 c 0
 383.799804688 97.900390625 336.900390625 84.599609375 292.799804688 84.599609375 c 0
 253.599609375 84.599609375 225.599609375 96.5 194.099609375 118.200195312 c 1
 227.700195312 177 l 1
 248.700195312 160.900390625 263.400390625 151.099609375 292.799804688 151.099609375 c 0
 325 151.099609375 353 167.200195312 366.299804688 191.700195312 c 0
 376.099609375 211.299804688 383.799804688 249.099609375 383.799804688 307.200195312 c 2
 383.799804688 313.5 l 1
 373.299804688 284.799804688 348.099609375 241.400390625 293.5 241.400390625 c 0
 238.900390625 241.400390625 213.700195312 268.700195312 199 291.099609375 c 0
 173.099609375 329.599609375 170.299804688 366.700195312 170.299804688 410.099609375 c 0
265.5 415 m 2
 266.900390625 334.5 269.700195312 322.599609375 280.200195312 308.599609375 c 0
 290 296.700195312 304.700195312 292.5 319.400390625 292.5 c 0
 335.5 292.5 356.5 298.799804688 369.799804688 326.799804688 c 0
 378.900390625 345 383.799804688 372.299804688 383.799804688 413.599609375 c 0
 383.799804688 467.5 383.099609375 539.599609375 325 539.599609375 c 0
 309.599609375 539.599609375 297 536.099609375 289.299804688 529.799804688 c 0
 262.700195312 510.200195312 267.599609375 465.400390625 265.5 437.400390625 c 2
 265.5 415 l 2
EndSplineSet
EndChar
StartChar: uF26F3
Encoding: 993011 993011 1871
Width: 1000
Flags: MW
LayerCount: 2
Fore
SplineSet
700 -184 m 1
 720 -160 743 -130 766 -88 c 0
 807 -12 864 104 864 303 c 0
 864 663 713 764 700 789 c 1
 753 789 l 1
 898 672 960 495 960 302 c 0
 960 109 898 -67 753 -184 c 1
 700 -184 l 1
40 302 m 0
 40 497 102 672 248 789 c 1
 300 789 l 1
 278 762 251 727 226 676 c 0
 189 600 137 486 137 303 c 0
 137 -59 287 -157 300 -184 c 1
 248 -184 l 1
 102 -66 40 111 40 302 c 0
525.200195312 240.700195312 m 0xf2
 525.200195312 300.900390625 551.099609375 345.700195312 612 362.5 c 1
 596.599609375 368.799804688 535.700195312 384.200195312 535.700195312 466.099609375 c 0
 535.700195312 534 565.799804688 601.900390625 672.900390625 601.900390625 c 2
 673.599609375 601.900390625 l 2
 780.700195312 601.900390625 810.099609375 534 810.099609375 465.400390625 c 0xec
 810.099609375 375.799804688 734.5 365.299804688 733.799804688 362.5 c 1
 794.700195312 345.700195312 820.599609375 300.900390625 820.599609375 240.700195312 c 0
 820.599609375 162.299804688 788.400390625 84.599609375 672.900390625 84.599609375 c 0
 557.400390625 84.599609375 525.200195312 163 525.200195312 240.700195312 c 0xf2
623.200195312 233 m 2
 623.900390625 206.400390625 623.900390625 181.200195312 635.799804688 165.799804688 c 0
 642.799804688 156.700195312 654 151.099609375 672.200195312 151.099609375 c 0
 687.599609375 151.099609375 699.5 156 706.5 163 c 4
 725.400390625 181.200195312 722.599609375 216.200195312 723.299804688 238.599609375 c 2
 723.299804688 253.299804688 l 2xf2
 722.599609375 282 720.5 306.5 710 321.200195312 c 0
 703 331.700195312 691.099609375 337.299804688 672.900390625 337.299804688 c 0
 654.700195312 337.299804688 643.5 331 636.5 321.200195312 c 0
 621.099609375 300.900390625 623.900390625 267.299804688 623.200195312 249.099609375 c 2
 623.200195312 233 l 2
624.599609375 457.700195312 m 2xec
 624.599609375 432.5 627.400390625 414.299804688 635.799804688 402.400390625 c 0
 642.799804688 392.599609375 654.700195312 387.700195312 672.200195312 387.700195312 c 0
 690.400390625 387.700195312 702.299804688 393.299804688 709.299804688 402.400390625 c 0
 719.799804688 416.400390625 721.200195312 437.400390625 721.200195312 458.400390625 c 2
 721.200195312 471 l 2
 721.200195312 493.400390625 719.099609375 510.200195312 712.799804688 521.400390625 c 0
 705.799804688 534 693.900390625 539.599609375 673.599609375 539.599609375 c 0
 655.400390625 539.599609375 644.200195312 534.700195312 637.200195312 527 c 0
 624.599609375 513 625.299804688 489.900390625 624.599609375 470.299804688 c 2
 624.599609375 457.700195312 l 2xec
170.299804688 410.099609375 m 0
 170.299804688 459.099609375 170.299804688 501.099609375 200.400390625 542.400390625 c 0
 225.599609375 577.400390625 257.799804688 601.900390625 326.400390625 601.900390625 c 0
 370.5 601.900390625 400.599609375 586.5 423.700195312 563.400390625 c 0
 477.599609375 509.5 479.700195312 410.799804688 479.700195312 351.299804688 c 0
 479.700195312 278.5 473.400390625 186.799804688 416 131.5 c 0
 383.799804688 97.900390625 336.900390625 84.599609375 292.799804688 84.599609375 c 0
 253.599609375 84.599609375 225.599609375 96.5 194.099609375 118.200195312 c 1
 227.700195312 177 l 1
 248.700195312 160.900390625 263.400390625 151.099609375 292.799804688 151.099609375 c 0
 325 151.099609375 353 167.200195312 366.299804688 191.700195312 c 0
 376.099609375 211.299804688 383.799804688 249.099609375 383.799804688 307.200195312 c 2
 383.799804688 313.5 l 1
 373.299804688 284.799804688 348.099609375 241.400390625 293.5 241.400390625 c 0
 238.900390625 241.400390625 213.700195312 268.700195312 199 291.099609375 c 0
 173.099609375 329.599609375 170.299804688 366.700195312 170.299804688 410.099609375 c 0
265.5 415 m 2
 266.900390625 334.5 269.700195312 322.599609375 280.200195312 308.599609375 c 0
 290 296.700195312 304.700195312 292.5 319.400390625 292.5 c 0
 335.5 292.5 356.5 298.799804688 369.799804688 326.799804688 c 0
 378.900390625 345 383.799804688 372.299804688 383.799804688 413.599609375 c 0
 383.799804688 467.5 383.099609375 539.599609375 325 539.599609375 c 0
 309.599609375 539.599609375 297 536.099609375 289.299804688 529.799804688 c 0
 262.700195312 510.200195312 267.599609375 465.400390625 265.5 437.400390625 c 2
 265.5 415 l 2
EndSplineSet
EndChar
StartChar: uF26F5
Encoding: 993013 993013 1873
Width: 1000
Flags: MW
LayerCount: 2
Fore
SplineSet
700 -184 m 1
 720 -160 743 -130 766 -88 c 0
 807 -12 864 104 864 303 c 0
 864 663 713 764 700 789 c 1
 753 789 l 1
 898 672 960 495 960 302 c 0
 960 109 898 -67 753 -184 c 1
 700 -184 l 1
40 302 m 0
 40 497 102 672 248 789 c 1
 300 789 l 1
 278 762 251 727 226 676 c 0
 189 600 137 486 137 303 c 0
 137 -59 287 -157 300 -184 c 1
 248 -184 l 1
 102 -66 40 111 40 302 c 0
633 340.799804688 m 0
 633 349.200195312 633 357.599609375 633 366 c 0
 633.700195312 456.299804688 641.400390625 564.799804688 700.900390625 594.200195312 c 0
 709.299804688 599.099609375 719.099609375 601.900390625 730.299804688 601.900390625 c 0
 752 601.900390625 775.799804688 590 795.400390625 557.799804688 c 0
 828.299804688 503.200195312 828.299804688 401.700195312 828.299804688 353.400390625 c 2
 828.299804688 346.400390625 l 2
 828.299804688 249.099609375 826.900390625 122.400390625 759 91.599609375 c 4
 750.599609375 87.400390625 740.799804688 84.599609375 729.599609375 84.599609375 c 0
 636.5 84.599609375 633 226 633 340.799804688 c 0
694.599609375 346.400390625 m 0
 694.599609375 208.5 697.400390625 163.700195312 717 142 c 0
 720.5 138.5 725.400390625 135 730.299804688 135 c 0
 732.400390625 135 742.200195312 135.700195312 750.599609375 153.200195312 c 0
 766 184 765.299804688 240 766 349.900390625 c 0
 766 357.599609375 766 366 766 375.099609375 c 0
 766 427.599609375 763.900390625 491.299804688 757.599609375 516.5 c 0
 752.700195312 536.099609375 742.200195312 550.799804688 730.299804688 550.799804688 c 0
 695.299804688 550.799804688 694.599609375 461.200195312 694.599609375 377.200195312 c 0
 694.599609375 366.700195312 694.599609375 356.200195312 694.599609375 346.400390625 c 0
399.900390625 340.799804688 m 0
 399.900390625 349.200195312 399.900390625 357.599609375 399.900390625 366 c 0
 400.599609375 456.299804688 408.299804688 564.799804688 467.799804688 594.200195312 c 0
 476.200195312 599.099609375 486 601.900390625 497.200195312 601.900390625 c 0
 518.900390625 601.900390625 542.700195312 590 562.299804688 557.799804688 c 0
 595.200195312 503.200195312 595.200195312 401.700195312 595.200195312 353.400390625 c 2
 595.200195312 346.400390625 l 2
 595.200195312 249.099609375 593.799804688 122.400390625 525.900390625 91.599609375 c 4
 517.5 87.400390625 507.700195312 84.599609375 496.5 84.599609375 c 0
 403.400390625 84.599609375 399.900390625 226 399.900390625 340.799804688 c 0
461.5 346.400390625 m 0
 461.5 208.5 464.299804688 163.700195312 483.900390625 142 c 0
 487.400390625 138.5 492.299804688 135 497.200195312 135 c 0
 499.299804688 135 509.099609375 135.700195312 517.5 153.200195312 c 0
 532.900390625 184 532.200195312 240 532.900390625 349.900390625 c 0
 532.900390625 357.599609375 532.900390625 366 532.900390625 375.099609375 c 0
 532.900390625 427.599609375 530.799804688 491.299804688 524.5 516.5 c 0
 519.599609375 536.099609375 509.099609375 550.799804688 497.200195312 550.799804688 c 0
 462.200195312 550.799804688 461.5 461.200195312 461.5 377.200195312 c 0
 461.5 366.700195312 461.5 356.200195312 461.5 346.400390625 c 0
178.700195312 502.5 m 1
 178.700195312 553.599609375 l 1
 232.599609375 553.599609375 264.799804688 569 290.700195312 601.900390625 c 1
 306.799804688 601.900390625 l 1
 306.799804688 151.099609375 l 1
 362.099609375 151.099609375 l 1
 362.099609375 100 l 1
 185.700195312 100 l 1
 185.700195312 151.099609375 l 1
 242.400390625 151.099609375 l 1
 242.400390625 513.700195312 l 1
 222.799804688 505.299804688 201.099609375 502.5 178.700195312 502.5 c 1
EndSplineSet
EndChar
StartChar: uF26FA
Encoding: 993018 993018 1878
Width: 1000
Flags: MW
LayerCount: 2
Fore
SplineSet
700 -184 m 1
 720 -160 743 -130 766 -88 c 0
 807 -12 864 104 864 303 c 0
 864 663 713 764 700 789 c 1
 753 789 l 1
 898 672 960 495 960 302 c 0
 960 109 898 -67 753 -184 c 1
 700 -184 l 1
40 302 m 0
 40 497 102 672 248 789 c 1
 300 789 l 1
 278 762 251 727 226 676 c 0
 189 600 137 486 137 303 c 0
 137 -59 287 -157 300 -184 c 1
 248 -184 l 1
 102 -66 40 111 40 302 c 0
254.299804688 586.5 m 5
 362.799804688 586.5 l 5
 443.299804688 366 l 6
 481.799804688 259.599609375 495.099609375 223.900390625 505.599609375 187.5 c 5
 518.900390625 235.099609375 536.400390625 278.5 551.799804688 324 c 6
 647.700195312 586.5 l 5
 745.700195312 586.5 l 5
 566.5 100 l 5
 433.5 100 l 5
 254.299804688 586.5 l 5
EndSplineSet
EndChar
StartChar: uF26FD
Encoding: 993021 993021 1881
Width: 1000
Flags: MW
LayerCount: 2
Fore
SplineSet
700 -184 m 1
 720 -160 743 -130 766 -88 c 0
 807 -12 864 104 864 303 c 0
 864 663 713 764 700 789 c 1
 753 789 l 1
 898 672 960 495 960 302 c 0
 960 109 898 -67 753 -184 c 1
 700 -184 l 1
40 302 m 0
 40 497 102 672 248 789 c 1
 300 789 l 1
 278 762 251 727 226 676 c 0
 189 600 137 486 137 303 c 0
 137 -59 287 -157 300 -184 c 1
 248 -184 l 1
 102 -66 40 111 40 302 c 0
718.400390625 100 m 1
 718.400390625 586.5 l 1
 822 586.5 l 1
 822 100 l 1
 718.400390625 100 l 1
434.200195312 100 m 1
 434.200195312 586.5 l 1
 537.799804688 586.5 l 1
 537.799804688 100 l 1
 434.200195312 100 l 1
578.400390625 100 m 1
 578.400390625 586.5 l 1
 682 586.5 l 1
 682 100 l 1
 578.400390625 100 l 1
178 586.5 m 1
 274.599609375 586.5 l 1
 296.299804688 468.200195312 305.400390625 290.400390625 313.799804688 187.5 c 5
 319.400390625 586.5 l 1
 410.400390625 586.5 l 1
 339 100 l 1
 276 100 l 1
 178 586.5 l 1
EndSplineSet
EndChar
StartChar: uF26FE
Encoding: 993022 993022 1882
Width: 1000
Flags: MW
LayerCount: 2
Fore
SplineSet
700 -184 m 1
 720 -160 743 -130 766 -88 c 0
 807 -12 864 104 864 303 c 0
 864 663 713 764 700 789 c 1
 753 789 l 1
 898 672 960 495 960 302 c 0
 960 109 898 -67 753 -184 c 1
 700 -184 l 1
40 302 m 0
 40 497 102 672 248 789 c 1
 300 789 l 1
 278 762 251 727 226 676 c 0
 189 600 137 486 137 303 c 0
 137 -59 287 -157 300 -184 c 1
 248 -184 l 1
 102 -66 40 111 40 302 c 0
182.200195312 100 m 1
 182.200195312 586.5 l 1
 285.799804688 586.5 l 1
 285.799804688 100 l 1
 182.200195312 100 l 1
326.400390625 100 m 1
 514 358.299804688 l 1
 514 358.299804688 l 1
 337.599609375 586.5 l 1
 460.799804688 586.5 l 1
 565.799804688 440.900390625 l 1
 668 586.5 l 1
 785.599609375 586.5 l 1
 619 357.599609375 l 1
 619 357.599609375 l 1
 817.799804688 100 l 1
 693.200195312 100 l 1
 567.200195312 282.700195312 l 1
 565.799804688 282.700195312 l 1
 442.599609375 100 l 1
 326.400390625 100 l 1
EndSplineSet
EndChar
StartChar: uF26FF
Encoding: 993023 993023 1883
Width: 1000
Flags: MW
LayerCount: 2
Fore
SplineSet
700 -184 m 1
 720 -160 743 -130 766 -88 c 0
 807 -12 864 104 864 303 c 0
 864 663 713 764 700 789 c 1
 753 789 l 1
 898 672 960 495 960 302 c 0
 960 109 898 -67 753 -184 c 1
 700 -184 l 1
40 302 m 0
 40 497 102 672 248 789 c 1
 300 789 l 1
 278 762 251 727 226 676 c 0
 189 600 137 486 137 303 c 0
 137 -59 287 -157 300 -184 c 1
 248 -184 l 1
 102 -66 40 111 40 302 c 0
254.299804688 100 m 5
 441.900390625 358.299804688 l 5
 441.900390625 358.299804688 l 5
 265.5 586.5 l 5
 388.700195312 586.5 l 5
 494.400390625 440.900390625 l 5
 596.599609375 586.5 l 5
 713.5 586.5 l 5
 547.599609375 357.599609375 l 5
 547.599609375 357.599609375 l 5
 745.700195312 100 l 5
 621.799804688 100 l 5
 495.099609375 282.700195312 l 5
 494.400390625 282.700195312 l 5
 371.200195312 100 l 5
 254.299804688 100 l 5
EndSplineSet
EndChar
StartChar: uF2700
Encoding: 993024 993024 1884
Width: 1000
Flags: MW
LayerCount: 2
Fore
SplineSet
700 -184 m 1
 720 -160 743 -130 766 -88 c 0
 807 -12 864 104 864 303 c 0
 864 663 713 764 700 789 c 1
 753 789 l 1
 898 672 960 495 960 302 c 0
 960 109 898 -67 753 -184 c 1
 700 -184 l 1
40 302 m 0
 40 497 102 672 248 789 c 1
 300 789 l 1
 278 762 251 727 226 676 c 0
 189 600 137 486 137 303 c 0
 137 -59 287 -157 300 -184 c 1
 248 -184 l 1
 102 -66 40 111 40 302 c 0
160.5 100 m 1
 348.099609375 358.299804688 l 1
 348.099609375 358.299804688 l 1
 171.700195312 586.5 l 1
 294.900390625 586.5 l 1
 400.599609375 440.900390625 l 1
 502.799804688 586.5 l 1
 619.700195312 586.5 l 1
 453.799804688 357.599609375 l 1
 453.799804688 357.599609375 l 1
 651.900390625 100 l 1
 528 100 l 1
 401.299804688 282.700195312 l 1
 400.599609375 282.700195312 l 1
 277.400390625 100 l 1
 160.5 100 l 1
691.799804688 100 m 1
 691.799804688 586.5 l 1
 795.400390625 586.5 l 1
 795.400390625 100 l 1
 691.799804688 100 l 1
EndSplineSet
EndChar
StartChar: uF2701
Encoding: 993025 993025 1885
Width: 1000
Flags: MW
LayerCount: 2
Fore
SplineSet
700 -184 m 1
 720 -160 743 -130 766 -88 c 0
 807 -12 864 104 864 303 c 0
 864 663 713 764 700 789 c 1
 753 789 l 1
 898 672 960 495 960 302 c 0
 960 109 898 -67 753 -184 c 1
 700 -184 l 1
40 302 m 0
 40 497 102 672 248 789 c 1
 300 789 l 1
 278 762 251 727 226 676 c 0
 189 600 137 486 137 303 c 0
 137 -59 287 -157 300 -184 c 1
 248 -184 l 1
 102 -66 40 111 40 302 c 0
160.5 100 m 1
 270.400390625 364.599609375 l 1
 270.400390625 364.599609375 l 1
 171.700195312 586.5 l 1
 294.900390625 586.5 l 1
 330.599609375 506.700195312 l 1
 362.799804688 586.5 l 1
 479.700195312 586.5 l 1
 390.799804688 372.299804688 l 1
 390.799804688 372.299804688 l 1
 511.900390625 100 l 1
 388 100 l 1
 331.299804688 227.400390625 l 1
 330.599609375 227.400390625 l 1
 277.400390625 100 l 1
 160.5 100 l 1
551.799804688 100 m 1
 551.799804688 586.5 l 1
 655.400390625 586.5 l 1
 655.400390625 100 l 1
 551.799804688 100 l 1
713.5 100 m 1
 713.5 586.5 l 1
 817.099609375 586.5 l 1
 817.099609375 100 l 1
 713.5 100 l 1
EndSplineSet
EndChar
StartChar: uF2704
Encoding: 993028 993028 1888
Width: 1000
Flags: MW
LayerCount: 2
Fore
SplineSet
700 -184 m 1
 720 -160 743 -130 766 -88 c 0
 807 -12 864 104 864 303 c 0
 864 663 713 764 700 789 c 1
 753 789 l 1
 898 672 960 495 960 302 c 0
 960 109 898 -67 753 -184 c 1
 700 -184 l 1
40 302 m 0
 40 497 102 672 248 789 c 1
 300 789 l 1
 278 762 251 727 226 676 c 0
 189 600 137 486 137 303 c 0
 137 -59 287 -157 300 -184 c 1
 248 -184 l 1
 102 -66 40 111 40 302 c 0
155.599609375 100 m 1
 265.5 364.599609375 l 1
 265.5 364.599609375 l 1
 166.799804688 586.5 l 1
 290 586.5 l 1
 325 507.400390625 l 1
 357.200195312 586.5 l 1
 474.799804688 586.5 l 1
 385.200195312 371.599609375 l 1
 385.200195312 371.599609375 l 1
 507 100 l 1
 382.400390625 100 l 1
 325.700195312 227.400390625 l 1
 325 227.400390625 l 1
 271.799804688 100 l 1
 155.599609375 100 l 1
493 586.5 m 1
 602.200195312 586.5 l 1
 621.099609375 447.900390625 657.5 282.700195312 675 223.200195312 c 1
 746.400390625 586.5 l 1
 844.400390625 586.5 l 1
 735.200195312 100 l 1
 602.200195312 100 l 1
 493 586.5 l 1
EndSplineSet
EndChar
StartChar: uF2707
Encoding: 993031 993031 1891
Width: 1000
Flags: MW
LayerCount: 2
Fore
SplineSet
700 -184 m 1
 720 -160 743 -130 766 -88 c 0
 807 -12 864 104 864 303 c 0
 864 663 713 764 700 789 c 1
 753 789 l 1
 898 672 960 495 960 302 c 0
 960 109 898 -67 753 -184 c 1
 700 -184 l 1
40 302 m 0
 40 497 102 672 248 789 c 1
 300 789 l 1
 278 762 251 727 226 676 c 0
 189 600 137 486 137 303 c 0
 137 -59 287 -157 300 -184 c 1
 248 -184 l 1
 102 -66 40 111 40 302 c 0
273.900390625 501.099609375 m 1
 273.900390625 586.5 l 1
 367.700195312 586.5 l 1
 367.700195312 501.099609375 l 1
 273.900390625 501.099609375 l 1
273.900390625 100 m 1
 273.900390625 430.400390625 l 1
 367.700195312 430.400390625 l 1
 367.700195312 100 l 1
 273.900390625 100 l 1
453.099609375 501.099609375 m 1
 453.099609375 586.5 l 1
 546.900390625 586.5 l 1
 546.900390625 501.099609375 l 1
 453.099609375 501.099609375 l 1
453.099609375 100 m 1
 453.099609375 430.400390625 l 1
 546.900390625 430.400390625 l 1
 546.900390625 100 l 1
 453.099609375 100 l 1
632.299804688 501.099609375 m 1
 632.299804688 586.5 l 1
 726.099609375 586.5 l 1
 726.099609375 501.099609375 l 1
 632.299804688 501.099609375 l 1
632.299804688 100 m 1
 632.299804688 430.400390625 l 1
 726.099609375 430.400390625 l 1
 726.099609375 100 l 1
 632.299804688 100 l 1
EndSplineSet
EndChar
StartChar: uF270A
Encoding: 993034 993034 1894
Width: 1000
Flags: MW
LayerCount: 2
Fore
SplineSet
700 -184 m 1
 720 -160 743 -130 766 -88 c 0
 807 -12 864 104 864 303 c 0
 864 663 713 764 700 789 c 1
 753 789 l 1
 898 672 960 495 960 302 c 0
 960 109 898 -67 753 -184 c 1
 700 -184 l 1
40 302 m 0
 40 497 102 672 248 789 c 1
 300 789 l 1
 278 762 251 727 226 676 c 0
 189 600 137 486 137 303 c 0
 137 -59 287 -157 300 -184 c 1
 248 -184 l 1
 102 -66 40 111 40 302 c 0
262 430.400390625 m 1
 348.799804688 430.400390625 l 1
 399.200195312 273.599609375 l 2
 419.5 209.200195312 424.400390625 199.400390625 427.200195312 181.900390625 c 1
 439.799804688 215.5 496.5 405.200195312 505.599609375 430.400390625 c 1
 591 430.400390625 l 1
 486 100 l 1
 367 100 l 1
 262 430.400390625 l 1
644.200195312 501.099609375 m 1
 644.200195312 586.5 l 1
 738 586.5 l 1
 738 501.099609375 l 1
 644.200195312 501.099609375 l 1
644.200195312 100 m 1
 644.200195312 430.400390625 l 1
 738 430.400390625 l 1
 738 100 l 1
 644.200195312 100 l 1
EndSplineSet
EndChar
StartChar: uF270B
Encoding: 993035 993035 1895
Width: 1000
Flags: MW
LayerCount: 2
Fore
SplineSet
700 -184 m 1
 720 -160 743 -130 766 -88 c 0
 807 -12 864 104 864 303 c 0
 864 663 713 764 700 789 c 1
 753 789 l 1
 898 672 960 495 960 302 c 0
 960 109 898 -67 753 -184 c 1
 700 -184 l 1
40 302 m 0
 40 497 102 672 248 789 c 1
 300 789 l 1
 278 762 251 727 226 676 c 0
 189 600 137 486 137 303 c 0
 137 -59 287 -157 300 -184 c 1
 248 -184 l 1
 102 -66 40 111 40 302 c 0
185 430.400390625 m 1
 271.799804688 430.400390625 l 1
 321.5 273.599609375 l 2
 341.799804688 209.900390625 347.400390625 199.400390625 350.200195312 181.900390625 c 1
 362.799804688 215.5 411.799804688 405.200195312 420.200195312 430.400390625 c 1
 502.799804688 430.400390625 l 1
 409 100 l 1
 289.299804688 100 l 1
 185 430.400390625 l 1
550.400390625 501.099609375 m 1
 550.400390625 586.5 l 1
 644.200195312 586.5 l 1
 644.200195312 501.099609375 l 1
 550.400390625 501.099609375 l 1
550.400390625 100 m 1
 550.400390625 430.400390625 l 1
 644.200195312 430.400390625 l 1
 644.200195312 100 l 1
 550.400390625 100 l 1
721.200195312 501.099609375 m 1
 721.200195312 586.5 l 1
 815 586.5 l 1
 815 501.099609375 l 1
 721.200195312 501.099609375 l 1
721.200195312 100 m 1
 721.200195312 430.400390625 l 1
 815 430.400390625 l 1
 815 100 l 1
 721.200195312 100 l 1
EndSplineSet
EndChar
StartChar: uF270C
Encoding: 993036 993036 1896
Width: 1000
Flags: MW
LayerCount: 2
Fore
SplineSet
700 -184 m 1
 720 -160 743 -130 766 -88 c 0
 807 -12 864 104 864 303 c 0
 864 663 713 764 700 789 c 1
 753 789 l 1
 898 672 960 495 960 302 c 0
 960 109 898 -67 753 -184 c 1
 700 -184 l 1
40 302 m 0
 40 497 102 672 248 789 c 1
 300 789 l 1
 278 762 251 727 226 676 c 0
 189 600 137 486 137 303 c 0
 137 -59 287 -157 300 -184 c 1
 248 -184 l 1
 102 -66 40 111 40 302 c 0
165.400390625 430.400390625 m 1
 252.200195312 430.400390625 l 1
 290.700195312 273.599609375 l 2
 306.099609375 212 307.5 199.400390625 310.299804688 181.900390625 c 1
 322.900390625 215.5 354.400390625 405.200195312 358.599609375 430.400390625 c 1
 441.200195312 430.400390625 l 1
 369.099609375 100 l 1
 249.400390625 100 l 1
 165.400390625 430.400390625 l 1
467.799804688 501.099609375 m 1
 467.799804688 586.5 l 1
 561.599609375 586.5 l 1
 561.599609375 501.099609375 l 1
 467.799804688 501.099609375 l 1
467.799804688 100 m 1
 467.799804688 430.400390625 l 1
 561.599609375 430.400390625 l 1
 561.599609375 100 l 1
 467.799804688 100 l 1
604.299804688 501.099609375 m 1
 604.299804688 586.5 l 1
 698.099609375 586.5 l 1
 698.099609375 501.099609375 l 1
 604.299804688 501.099609375 l 1
604.299804688 100 m 1
 604.299804688 430.400390625 l 1
 698.099609375 430.400390625 l 1
 698.099609375 100 l 1
 604.299804688 100 l 1
740.799804688 501.099609375 m 1
 740.799804688 586.5 l 1
 834.599609375 586.5 l 1
 834.599609375 501.099609375 l 1
 740.799804688 501.099609375 l 1
740.799804688 100 m 1
 740.799804688 430.400390625 l 1
 834.599609375 430.400390625 l 1
 834.599609375 100 l 1
 740.799804688 100 l 1
EndSplineSet
EndChar
StartChar: uF270E
Encoding: 993038 993038 1898
Width: 1000
Flags: MW
LayerCount: 2
Fore
SplineSet
700 -184 m 1
 720 -160 743 -130 766 -88 c 0
 807 -12 864 104 864 303 c 0
 864 663 713 764 700 789 c 1
 753 789 l 1
 898 672 960 495 960 302 c 0
 960 109 898 -67 753 -184 c 1
 700 -184 l 1
40 302 m 0
 40 497 102 672 248 789 c 1
 300 789 l 1
 278 762 251 727 226 676 c 0
 189 600 137 486 137 303 c 0
 137 -59 287 -157 300 -184 c 1
 248 -184 l 1
 102 -66 40 111 40 302 c 0
325 100 m 1
 459.400390625 270.099609375 l 1
 459.400390625 272.900390625 l 1
 329.200195312 430.400390625 l 1
 425.099609375 430.400390625 l 1
 497.200195312 335.900390625 l 1
 498.599609375 335.900390625 l 1
 566.5 430.400390625 l 1
 661.700195312 430.400390625 l 1
 535.700195312 271.5 l 1
 535.700195312 270.799804688 l 1
 675 100 l 1
 578.400390625 100 l 1
 497.900390625 219 l 1
 420.200195312 100 l 1
 325 100 l 1
EndSplineSet
EndChar
StartChar: uF270F
Encoding: 993039 993039 1899
Width: 1000
Flags: MW
LayerCount: 2
Fore
SplineSet
700 -184 m 1
 720 -160 743 -130 766 -88 c 0
 807 -12 864 104 864 303 c 0
 864 663 713 764 700 789 c 1
 753 789 l 1
 898 672 960 495 960 302 c 0
 960 109 898 -67 753 -184 c 1
 700 -184 l 1
40 302 m 0
 40 497 102 672 248 789 c 1
 300 789 l 1
 278 762 251 727 226 676 c 0
 189 600 137 486 137 303 c 0
 137 -59 287 -157 300 -184 c 1
 248 -184 l 1
 102 -66 40 111 40 302 c 0
257.099609375 100 m 1
 391.5 270.099609375 l 1
 391.5 272.900390625 l 1
 261.299804688 430.400390625 l 1
 357.200195312 430.400390625 l 1
 429.299804688 335.900390625 l 1
 430.700195312 335.900390625 l 1
 498.599609375 430.400390625 l 1
 593.799804688 430.400390625 l 1
 467.799804688 271.5 l 1
 467.799804688 270.799804688 l 1
 607.099609375 100 l 1
 510.5 100 l 1
 430 219 l 1
 352.299804688 100 l 1
 257.099609375 100 l 1
649.099609375 501.099609375 m 1
 649.099609375 586.5 l 1
 742.900390625 586.5 l 1
 742.900390625 501.099609375 l 1
 649.099609375 501.099609375 l 1
649.099609375 100 m 1
 649.099609375 430.400390625 l 1
 742.900390625 430.400390625 l 1
 742.900390625 100 l 1
 649.099609375 100 l 1
EndSplineSet
EndChar
StartChar: uF2710
Encoding: 993040 993040 1900
Width: 1000
Flags: MW
LayerCount: 2
Fore
SplineSet
700 -184 m 1
 720 -160 743 -130 766 -88 c 0
 807 -12 864 104 864 303 c 0
 864 663 713 764 700 789 c 1
 753 789 l 1
 898 672 960 495 960 302 c 0
 960 109 898 -67 753 -184 c 1
 700 -184 l 1
40 302 m 0
 40 497 102 672 248 789 c 1
 300 789 l 1
 278 762 251 727 226 676 c 0
 189 600 137 486 137 303 c 0
 137 -59 287 -157 300 -184 c 1
 248 -184 l 1
 102 -66 40 111 40 302 c 0
167.5 100 m 1
 301.900390625 270.099609375 l 1
 301.900390625 272.900390625 l 1
 171.700195312 430.400390625 l 1
 267.599609375 430.400390625 l 1
 339.700195312 335.900390625 l 1
 341.099609375 335.900390625 l 1
 409 430.400390625 l 1
 504.200195312 430.400390625 l 1
 378.200195312 271.5 l 1
 378.200195312 270.799804688 l 1
 517.5 100 l 1
 420.900390625 100 l 1
 340.400390625 219 l 1
 262.700195312 100 l 1
 167.5 100 l 1
559.5 501.099609375 m 1
 559.5 586.5 l 1
 653.299804688 586.5 l 1
 653.299804688 501.099609375 l 1
 559.5 501.099609375 l 1
559.5 100 m 1
 559.5 430.400390625 l 1
 653.299804688 430.400390625 l 1
 653.299804688 100 l 1
 559.5 100 l 1
738.700195312 501.099609375 m 1
 738.700195312 586.5 l 1
 832.5 586.5 l 1
 832.5 501.099609375 l 1
 738.700195312 501.099609375 l 1
738.700195312 100 m 1
 738.700195312 430.400390625 l 1
 832.5 430.400390625 l 1
 832.5 100 l 1
 738.700195312 100 l 1
EndSplineSet
EndChar
StartChar: uF2711
Encoding: 993041 993041 1901
Width: 1000
Flags: MW
LayerCount: 2
Fore
SplineSet
700 -184 m 1
 720 -160 743 -130 766 -88 c 0
 807 -12 864 104 864 303 c 0
 864 663 713 764 700 789 c 1
 753 789 l 1
 898 672 960 495 960 302 c 0
 960 109 898 -67 753 -184 c 1
 700 -184 l 1
40 302 m 0
 40 497 102 672 248 789 c 1
 300 789 l 1
 278 762 251 727 226 676 c 0
 189 600 137 486 137 303 c 0
 137 -59 287 -157 300 -184 c 1
 248 -184 l 1
 102 -66 40 111 40 302 c 0
171 100 m 1
 256.400390625 268.700195312 l 1
 256.400390625 271.5 l 1
 175.200195312 430.400390625 l 1
 268.299804688 430.400390625 l 1
 304 363.200195312 l 1
 304 363.200195312 l 1
 339 430.400390625 l 1
 428.599609375 430.400390625 l 1
 351.599609375 272.900390625 l 1
 351.599609375 272.200195312 l 1
 441.200195312 100 l 1
 344.599609375 100 l 1
 304 178.400390625 l 1
 266.200195312 100 l 1
 171 100 l 1
462.200195312 501.099609375 m 1
 462.200195312 586.5 l 1
 556 586.5 l 1
 556 501.099609375 l 1
 462.200195312 501.099609375 l 1
462.200195312 100 m 1
 462.200195312 430.400390625 l 1
 556 430.400390625 l 1
 556 100 l 1
 462.200195312 100 l 1
599.400390625 501.099609375 m 1
 599.400390625 586.5 l 1
 693.200195312 586.5 l 1
 693.200195312 501.099609375 l 1
 599.400390625 501.099609375 l 1
599.400390625 100 m 1
 599.400390625 430.400390625 l 1
 693.200195312 430.400390625 l 1
 693.200195312 100 l 1
 599.400390625 100 l 1
735.200195312 501.099609375 m 1
 735.200195312 586.5 l 1
 829 586.5 l 1
 829 501.099609375 l 1
 735.200195312 501.099609375 l 1
735.200195312 100 m 1
 735.200195312 430.400390625 l 1
 829 430.400390625 l 1
 829 100 l 1
 735.200195312 100 l 1
EndSplineSet
EndChar
StartChar: uF2712
Encoding: 993042 993042 1902
Width: 1000
Flags: MW
LayerCount: 2
Fore
SplineSet
700 -184 m 1
 720 -160 743 -130 766 -88 c 0
 807 -12 864 104 864 303 c 0
 864 663 713 764 700 789 c 1
 753 789 l 1
 898 672 960 495 960 302 c 0
 960 109 898 -67 753 -184 c 1
 700 -184 l 1
40 302 m 0
 40 497 102 672 248 789 c 1
 300 789 l 1
 278 762 251 727 226 676 c 0
 189 600 137 486 137 303 c 0
 137 -59 287 -157 300 -184 c 1
 248 -184 l 1
 102 -66 40 111 40 302 c 0
155.599609375 100 m 1
 241.700195312 268.700195312 l 1
 241.700195312 271.5 l 1
 159.799804688 430.400390625 l 1
 253.599609375 430.400390625 l 1
 288.599609375 362.5 l 1
 289.299804688 362.5 l 1
 323.599609375 430.400390625 l 1
 413.200195312 430.400390625 l 1
 336.200195312 273.599609375 l 1
 336.200195312 272.900390625 l 1
 426.5 100 l 1
 329.900390625 100 l 1
 289.299804688 178.400390625 l 1
 250.799804688 100 l 1
 155.599609375 100 l 1
447.5 501.099609375 m 1
 447.5 586.5 l 1
 541.299804688 586.5 l 1
 541.299804688 501.099609375 l 1
 447.5 501.099609375 l 1
447.5 100 m 1
 447.5 430.400390625 l 1
 541.299804688 430.400390625 l 1
 541.299804688 100 l 1
 447.5 100 l 1
568.599609375 430.400390625 m 1
 655.400390625 430.400390625 l 1
 689 273.599609375 l 2
 703 209.200195312 701.599609375 199.400390625 704.400390625 181.900390625 c 1
 717 215.5 750.599609375 405.200195312 759.700195312 430.400390625 c 1
 844.400390625 430.400390625 l 1
 764.599609375 100 l 1
 644.900390625 100 l 1
 568.599609375 430.400390625 l 1
EndSplineSet
EndChar
StartChar: uF2713
Encoding: 993043 993043 1903
Width: 1000
Flags: MW
LayerCount: 2
Fore
SplineSet
700 -184 m 1
 720 -160 743 -130 766 -88 c 0
 807 -12 864 104 864 303 c 0
 864 663 713 764 700 789 c 1
 753 789 l 1
 898 672 960 495 960 302 c 0
 960 109 898 -67 753 -184 c 1
 700 -184 l 1
40 302 m 0
 40 497 102 672 248 789 c 1
 300 789 l 1
 278 762 251 727 226 676 c 0
 189 600 137 486 137 303 c 0
 137 -59 287 -157 300 -184 c 1
 248 -184 l 1
 102 -66 40 111 40 302 c 0
155.599609375 100 m 1
 290 270.099609375 l 1
 290 272.900390625 l 1
 159.799804688 430.400390625 l 1
 255.700195312 430.400390625 l 1
 327.799804688 335.900390625 l 1
 329.200195312 335.900390625 l 1
 397.099609375 430.400390625 l 1
 492.299804688 430.400390625 l 1
 366.299804688 271.5 l 1
 366.299804688 270.799804688 l 1
 505.599609375 100 l 1
 409 100 l 1
 328.5 219 l 1
 250.799804688 100 l 1
 155.599609375 100 l 1
516.099609375 430.400390625 m 1
 602.900390625 430.400390625 l 1
 652.599609375 273.599609375 l 2
 672.900390625 209.200195312 678.5 199.400390625 681.299804688 181.900390625 c 1
 693.900390625 215.5 750.599609375 405.200195312 759.700195312 430.400390625 c 1
 844.400390625 430.400390625 l 1
 740.099609375 100 l 1
 620.400390625 100 l 1
 516.099609375 430.400390625 l 1
EndSplineSet
EndChar
StartChar: uF2715
Encoding: 993045 993045 1905
Width: 1000
Flags: MW
LayerCount: 2
Fore
SplineSet
700 -184 m 1
 720 -160 743 -130 766 -88 c 0
 807 -12 864 104 864 303 c 0
 864 663 713 764 700 789 c 1
 753 789 l 1
 898 672 960 495 960 302 c 0
 960 109 898 -67 753 -184 c 1
 700 -184 l 1
40 302 m 0
 40 497 102 672 248 789 c 1
 300 789 l 1
 278 762 251 727 226 676 c 0
 189 600 137 486 137 303 c 0
 137 -59 287 -157 300 -184 c 1
 248 -184 l 1
 102 -66 40 111 40 302 c 0
276 100 m 1
 276 586.5 l 1
 468.5 586.5 l 2
 528.700195312 586.5 591.700195312 586.5 638.599609375 562 c 0
 692.5 533.299804688 698.799804688 482.900390625 698.799804688 459.799804688 c 0xf8
 698.799804688 375.799804688 612 358.299804688 594.5 354.099609375 c 1
 631.599609375 349.200195312 719.799804688 330.299804688 724 235.099609375 c 0xf4
 724 180.5 697.400390625 138.5 647.700195312 117.5 c 0
 626 108.400390625 599.400390625 104.200195312 571.400390625 102.099609375 c 0
 544.799804688 100 517.5 100 491.599609375 100 c 2
 276 100 l 1
375.400390625 160.900390625 m 1
 483.900390625 160.900390625 l 2
 541.299804688 160.900390625 581.900390625 166.5 607.099609375 191 c 0
 620.400390625 203.599609375 626.700195312 221.099609375 626.700195312 237.900390625 c 0xf4
 626.700195312 270.799804688 607.799804688 295.299804688 581.200195312 309.299804688 c 0
 559.5 319.799804688 535 324 510.5 326.099609375 c 0
 497.200195312 326.799804688 482.5 327.5 469.200195312 327.5 c 2
 376.099609375 327.5 l 25
 375.400390625 303 l 17
 375.400390625 160.900390625 l 1
375.400390625 378.599609375 m 1
 458 378.599609375 l 2
 512.599609375 378.599609375 560.200195312 383.5 585.400390625 412.900390625 c 0
 595.200195312 423.400390625 602.900390625 439.5 602.900390625 457.700195312 c 0xf8
 602.900390625 485 581.900390625 525.599609375 477.599609375 525.599609375 c 2
 376.099609375 525.599609375 l 25
 375.400390625 503.200195312 l 17
 375.400390625 378.599609375 l 1
EndSplineSet
EndChar
StartChar: uF2716
Encoding: 993046 993046 1906
Width: 1000
Flags: MW
LayerCount: 2
Fore
SplineSet
700 -184 m 1
 720 -160 743 -130 766 -88 c 0
 807 -12 864 104 864 303 c 0
 864 663 713 764 700 789 c 1
 753 789 l 1
 898 672 960 495 960 302 c 0
 960 109 898 -67 753 -184 c 1
 700 -184 l 1
40 302 m 0
 40 497 102 672 248 789 c 1
 300 789 l 1
 278 762 251 727 226 676 c 0
 189 600 137 486 137 303 c 0
 137 -59 287 -157 300 -184 c 1
 248 -184 l 1
 102 -66 40 111 40 302 c 0
272.5 342.200195312 m 0
 272.5 550.099609375 398.5 601.900390625 563.700195312 601.900390625 c 0
 631.599609375 601.900390625 671.5 593.5 719.099609375 577.400390625 c 1
 703 485.700195312 l 1
 677.099609375 503.900390625 644.900390625 531.200195312 561.599609375 531.200195312 c 0
 418.799804688 531.200195312 376.099609375 447.900390625 376.099609375 344.299804688 c 0
 376.099609375 242.099609375 413.200195312 154.599609375 563.700195312 154.599609375 c 0
 649.099609375 154.599609375 671.5 168.599609375 721.200195312 200.799804688 c 1
 727.5 123.099609375 l 1
 668 90.900390625 638.599609375 83.900390625 561.599609375 83.900390625 c 0
 393.599609375 83.900390625 272.5 141.299804688 272.5 342.200195312 c 0
EndSplineSet
EndChar
StartChar: uF2717
Encoding: 993047 993047 1907
Width: 1000
Flags: MW
LayerCount: 2
Fore
SplineSet
700 -184 m 1
 720 -160 743 -130 766 -88 c 0
 807 -12 864 104 864 303 c 0
 864 663 713 764 700 789 c 1
 753 789 l 1
 898 672 960 495 960 302 c 0
 960 109 898 -67 753 -184 c 1
 700 -184 l 1
40 302 m 0
 40 497 102 672 248 789 c 1
 300 789 l 1
 278 762 251 727 226 676 c 0
 189 600 137 486 137 303 c 0
 137 -59 287 -157 300 -184 c 1
 248 -184 l 1
 102 -66 40 111 40 302 c 0
250.799804688 100 m 1
 250.799804688 586.5 l 1
 474.099609375 586.5 l 2
 530.099609375 586.5 583.299804688 580.900390625 628.799804688 564.799804688 c 0
 701.599609375 534.700195312 749.200195312 469.599609375 749.200195312 338 c 0
 749.200195312 162.299804688 655.400390625 113.299804688 539.200195312 102.799804688 c 0
 518.200195312 100.700195312 496.5 100 475.5 100 c 2
 250.799804688 100 l 1
352.299804688 160.900390625 m 1
 439.099609375 160.900390625 l 2
 502.099609375 160.900390625 575.599609375 163 616.900390625 216.200195312 c 0
 642.099609375 248.400390625 647 286.900390625 647.700195312 324 c 0
 647.700195312 366.700195312 647.700195312 401.700195312 633.700195312 437.400390625 c 0
 619.700195312 473.099609375 594.5 494.799804688 565.799804688 507.400390625 c 0
 527.299804688 524.200195312 481.799804688 525.599609375 446.799804688 525.599609375 c 2
 352.299804688 525.599609375 l 1
 352.299804688 160.900390625 l 1
EndSplineSet
EndChar
StartChar: uF2718
Encoding: 993048 993048 1908
Width: 1000
Flags: MW
LayerCount: 2
Fore
SplineSet
700 -184 m 1
 720 -160 743 -130 766 -88 c 0
 807 -12 864 104 864 303 c 0
 864 663 713 764 700 789 c 1
 753 789 l 1
 898 672 960 495 960 302 c 0
 960 109 898 -67 753 -184 c 1
 700 -184 l 1
40 302 m 0
 40 497 102 672 248 789 c 1
 300 789 l 1
 278 762 251 727 226 676 c 0
 189 600 137 486 137 303 c 0
 137 -59 287 -157 300 -184 c 1
 248 -184 l 1
 102 -66 40 111 40 302 c 0
306.799804688 100 m 1
 306.799804688 584.400390625 l 1x6c
 682.700195312 584.400390625 l 1
 682.700195312 510.900390625 l 1x34
 410.400390625 513 l 1
 410.400390625 384.900390625 l 1
 661 384.900390625 l 1
 661 318.400390625 l 1
 410.400390625 318.400390625 l 1
 410.400390625 174.900390625 l 1xac
 693.200195312 177.700195312 l 1
 693.200195312 100 l 1x64
 306.799804688 100 l 1
EndSplineSet
EndChar
StartChar: uF271B
Encoding: 993051 993051 1911
Width: 1000
Flags: MW
LayerCount: 2
Fore
SplineSet
700 -184 m 1
 720 -160 743 -130 766 -88 c 0
 807 -12 864 104 864 303 c 0
 864 663 713 764 700 789 c 1
 753 789 l 1
 898 672 960 495 960 302 c 0
 960 109 898 -67 753 -184 c 1
 700 -184 l 1
40 302 m 0
 40 497 102 672 248 789 c 1
 300 789 l 1
 278 762 251 727 226 676 c 0
 189 600 137 486 137 303 c 0
 137 -59 287 -157 300 -184 c 1
 248 -184 l 1
 102 -66 40 111 40 302 c 0
264.099609375 100 m 1
 264.099609375 586.5 l 1
 367.700195312 586.5 l 1
 367.700195312 386.299804688 l 1
 632.299804688 386.299804688 l 1
 632.299804688 586.5 l 1
 735.900390625 586.5 l 1
 735.900390625 100 l 1
 632.299804688 100 l 1
 632.299804688 319.799804688 l 1
 367.700195312 319.799804688 l 1
 367.700195312 100 l 1
 264.099609375 100 l 1
EndSplineSet
EndChar
StartChar: uF2726
Encoding: 993062 993062 1922
Width: 1000
Flags: MW
LayerCount: 2
Fore
SplineSet
700 -184 m 1
 720 -160 743 -130 766 -88 c 0
 807 -12 864 104 864 303 c 0
 864 663 713 764 700 789 c 1
 753 789 l 1
 898 672 960 495 960 302 c 0
 960 109 898 -67 753 -184 c 1
 700 -184 l 1
40 302 m 0
 40 497 102 672 248 789 c 1
 300 789 l 1
 278 762 251 727 226 676 c 0
 189 600 137 486 137 303 c 0
 137 -59 287 -157 300 -184 c 1
 248 -184 l 1
 102 -66 40 111 40 302 c 0
306.799804688 132.900390625 m 1
 322.900390625 225.299804688 l 1
 370.5 186.799804688 420.900390625 160.900390625 504.900390625 160.900390625 c 0
 591.700195312 160.900390625 605 201.5 605 228.799804688 c 0
 605 264.5 571.400390625 285.5 544.799804688 293.900390625 c 0
 493 309.299804688 387.299804688 305.799804688 337.599609375 381.400390625 c 0
 325 400.299804688 315.200195312 424.799804688 315.200195312 456.299804688 c 0
 315.200195312 530.5 351.599609375 601.200195312 499.299804688 601.900390625 c 2
 502.799804688 601.900390625 l 2
 571.400390625 601.900390625 614.099609375 593.5 668 567.599609375 c 1
 651.900390625 475.900390625 l 1
 631.599609375 492.700195312 595.200195312 529.099609375 501.400390625 529.099609375 c 0
 418.099609375 529.099609375 403.400390625 492.700195312 403.400390625 468.900390625 c 0
 403.400390625 435.299804688 432.799804688 420.599609375 470.599609375 410.799804688 c 4
 507.700195312 401.700195312 551.799804688 397.5 584.700195312 386.299804688 c 0
 642.099609375 364.599609375 693.200195312 313.5 693.200195312 239.299804688 c 0
 693.200195312 161.599609375 658.900390625 84.599609375 504.900390625 84.599609375 c 0
 426.5 84.599609375 361.400390625 102.099609375 306.799804688 132.900390625 c 1
EndSplineSet
EndChar
StartChar: uF2728
Encoding: 993064 993064 1924
Width: 1000
Flags: MW
LayerCount: 2
Fore
SplineSet
700 -184 m 1
 720 -160 743 -130 766 -88 c 0
 807 -12 864 104 864 303 c 0
 864 663 713 764 700 789 c 1
 753 789 l 1
 898 672 960 495 960 302 c 0
 960 109 898 -67 753 -184 c 1
 700 -184 l 1
40 302 m 0
 40 497 102 672 248 789 c 1
 300 789 l 1
 278 762 251 727 226 676 c 0
 189 600 137 486 137 303 c 0
 137 -59 287 -157 300 -184 c 1
 248 -184 l 1
 102 -66 40 111 40 302 c 0
276 272.200195312 m 2
 276 586.5 l 1
 379.599609375 586.5 l 1
 379.599609375 261 l 2
 379.599609375 246.299804688 381 233 382.400390625 220.400390625 c 0
 385.900390625 197.299804688 393.599609375 177.700195312 413.200195312 164.400390625 c 0
 431.400390625 151.799804688 459.400390625 144.799804688 501.400390625 144.799804688 c 0
 548.299804688 144.799804688 578.400390625 153.900390625 596.599609375 168.599609375 c 0
 626.700195312 192.400390625 627.400390625 229.5 627.400390625 262.400390625 c 2
 627.400390625 586.5 l 1
 724 586.5 l 1
 724 269.400390625 l 2
 724 214.799804688 712.799804688 165.099609375 676.400390625 130.799804688 c 0
 646.299804688 102.099609375 591.700195312 84.599609375 503.5 84.599609375 c 0
 423.700195312 84.599609375 369.799804688 97.900390625 339 118.900390625 c 0
 300.5 144.799804688 284.400390625 184 278.799804688 226.700195312 c 0
 276.700195312 241.400390625 276 256.799804688 276 272.200195312 c 2
EndSplineSet
EndChar
StartChar: uF272C
Encoding: 993068 993068 1928
Width: 1000
Flags: MW
LayerCount: 2
Fore
SplineSet
700 -184 m 1
 720 -160 743 -130 766 -88 c 0
 807 -12 864 104 864 303 c 0
 864 663 713 764 700 789 c 1
 753 789 l 1
 898 672 960 495 960 302 c 0
 960 109 898 -67 753 -184 c 1
 700 -184 l 1
40 302 m 0
 40 497 102 672 248 789 c 1
 300 789 l 1
 278 762 251 727 226 676 c 0
 189 600 137 486 137 303 c 0
 137 -59 287 -157 300 -184 c 1
 248 -184 l 1
 102 -66 40 111 40 302 c 0
211.599609375 586.5 m 1
 343.900390625 586.5 l 1
 446.799804688 461.200195312 l 2
 483.900390625 415.700195312 500 395.400390625 507.700195312 382.099609375 c 1
 523.099609375 412.900390625 665.900390625 578.099609375 671.5 586.5 c 1
 788.400390625 586.5 l 1
 541.299804688 294.599609375 l 1
 541.299804688 100 l 1
 439.799804688 100 l 1
 439.799804688 294.599609375 l 1
 211.599609375 586.5 l 1
EndSplineSet
EndChar
StartChar: uF274E
Encoding: 993102 993102 1962
Width: 1000
Flags: MW
LayerCount: 2
Fore
SplineSet
700 -184 m 1
 720 -160 743 -130 766 -88 c 0
 807 -12 864 104 864 303 c 0
 864 663 713 764 700 789 c 1
 753 789 l 1
 898 672 960 495 960 302 c 0
 960 109 898 -67 753 -184 c 1
 700 -184 l 1
40 302 m 0
 40 497 102 672 248 789 c 1
 300 789 l 1
 278 762 251 727 226 676 c 0
 189 600 137 486 137 303 c 0
 137 -59 287 -157 300 -184 c 1
 248 -184 l 1
 102 -66 40 111 40 302 c 0
EndSplineSet
Colour: ffff
EndChar
StartChar: uF27AC
Encoding: 993196 993196 2074
Width: 1000
Flags: MW
LayerCount: 2
Fore
SplineSet
160 263 m 0
 160 458 222 633 368 750 c 1
 440 750 l 1
 418 723 391 688 366 637 c 0
 329 561 297 447 297 264 c 0
 297 -98 427 -196 440 -223 c 1
 368 -223 l 1
 222 -105 160 72 160 263 c 0
524 152 m 1
 524 247 l 1
 524 247 l 1
 742 695 l 1
 890 695 l 1
 890 247 l 1
 980 247 l 1
 980 152 l 1
 890 152 l 1
 890 0 l 1
 767 0 l 1
 767 152 l 1
 524 152 l 1
629 247 m 1
 771 247 l 1
 771 592 l 1
 757 528 727 466 629 247 c 1
EndSplineSet
EndChar
StartChar: uF27AD
Encoding: 993197 993197 2075
Width: 1000
Flags: MW
LayerCount: 2
Fore
SplineSet
160 263 m 0
 160 458 222 633 368 750 c 1
 440 750 l 1
 418 723 391 688 366 637 c 0
 329 561 297 447 297 264 c 0
 297 -98 427 -196 440 -223 c 1
 368 -223 l 1
 222 -105 160 72 160 263 c 0
529 82 m 1
 582 169 l 1
 588 159 593 150 600 140 c 0
 616 118 636 102 655 91 c 0
 675 78 698 72 718 72 c 0
 753 72 773 85 785 108 c 0
 799 135 801 175 801 220 c 2
 801 248 l 2
 801 288 799 329 787 354 c 0
 780 369 768 379 750 379 c 0
 692 379 672 296 671 296 c 2
 575 296 l 1
 575 695 l 1
 912 695 l 1
 912 594 l 1
 694 594 l 1
 694 435 l 1
 710 444 726 452 754 452 c 0
 800 452 848 438 884 406 c 4
 925 369 949 309 949 219 c 0
 949 134 925 78 887 41 c 0
 839 -6 775 -22 721 -22 c 0
 688 -22 660 -14 635 -2 c 0
 576 22 543 62 529 82 c 1
EndSplineSet
EndChar
StartChar: uF27AF
Encoding: 993199 993199 2077
Width: 1000
Flags: MW
LayerCount: 2
Fore
SplineSet
160 263 m 0
 160 458 222 633 368 750 c 1
 440 750 l 1
 418 723 391 688 366 637 c 0
 329 561 297 447 297 264 c 0
 297 -98 427 -196 440 -223 c 1
 368 -223 l 1
 222 -105 160 72 160 263 c 0
536 587 m 1
 536 695 l 1
 974 695 l 1
 974 594 l 1
 831 422 775 200 775 -11 c 1
 633 -11 l 1
 633 214 722 433 895 588 c 1
 536 587 l 1
EndSplineSet
EndChar
StartChar: uF27B2
Encoding: 993202 993202 2080
Width: 1000
Flags: MW
LayerCount: 2
Fore
SplineSet
560 -223 m 1
 580 -199 603 -169 626 -127 c 4
 667 -51 704 65 704 264 c 0
 704 624 573 725 560 750 c 1
 633 750 l 1
 778 633 840 456 840 263 c 0
 840 70 778 -106 633 -223 c 1
 560 -223 l 1
34 344 m 0
 34 356 34 368 34 380 c 0
 36 509 52 664 180 706 c 0
 198 713 219 717 243 717 c 0
 289 717 340 700 382 654 c 0
 453 576 453 431 453 362 c 2
 453 352 l 2
 453 213 451 32 305 -12 c 4
 287 -18 266 -22 242 -22 c 0
 43 -22 34 180 34 344 c 0
167 352 m 0
 167 155 172 91 214 60 c 0
 222 55 232 50 243 50 c 0
 248 50 269 51 287 76 c 0
 320 120 317 200 319 357 c 0
 319 368 320 380 320 393 c 0
 320 468 316 559 302 595 c 0
 291 623 269 644 243 644 c 0
 168 644 167 516 167 396 c 0
 167 381 167 366 167 352 c 0
EndSplineSet
EndChar
StartChar: uF27B3
Encoding: 993203 993203 2081
Width: 1000
Flags: MW
LayerCount: 2
Fore
SplineSet
560 -223 m 1
 580 -199 603 -169 626 -127 c 4
 667 -51 704 65 704 264 c 0
 704 624 573 725 560 750 c 1
 633 750 l 1
 778 633 840 456 840 263 c 0
 840 70 778 -106 633 -223 c 1
 560 -223 l 1
61 575 m 1
 61 648 l 1
 177 648 245 670 301 717 c 1
 336 717 l 1
 336 73 l 1
 454 73 l 1
 454 0 l 1
 76 0 l 1
 76 73 l 1
 198 73 l 1
 198 591 l 1
 156 579 109 575 61 575 c 1
EndSplineSet
EndChar
StartChar: uF27B6
Encoding: 993206 993206 2084
Width: 1000
Flags: MW
LayerCount: 2
Fore
SplineSet
560 -223 m 1
 580 -199 603 -169 626 -127 c 4
 667 -51 704 65 704 264 c 0
 704 624 573 725 560 750 c 1
 633 750 l 1
 778 633 840 456 840 263 c 0
 840 70 778 -106 633 -223 c 1
 560 -223 l 1
24 152 m 1
 24 247 l 1
 24 247 l 1
 242 695 l 1
 390 695 l 1
 390 247 l 1
 480 247 l 1
 480 152 l 1
 390 152 l 1
 390 0 l 1
 267 0 l 1
 267 152 l 1
 24 152 l 1
129 247 m 1
 271 247 l 1
 271 592 l 1
 257 528 227 466 129 247 c 1
EndSplineSet
EndChar
StartChar: uF27B9
Encoding: 993209 993209 2087
Width: 1000
Flags: MW
LayerCount: 2
Fore
SplineSet
560 -223 m 1
 580 -199 603 -169 626 -127 c 4
 667 -51 704 65 704 264 c 0
 704 624 573 725 560 750 c 1
 633 750 l 1
 778 633 840 456 840 263 c 0
 840 70 778 -106 633 -223 c 1
 560 -223 l 1
36 587 m 1
 36 695 l 1
 474 695 l 1
 474 594 l 1
 331 422 275 200 275 -11 c 1
 133 -11 l 1
 133 214 222 433 395 588 c 1
 36 587 l 1
EndSplineSet
EndChar
StartChar: uF27BA
Encoding: 993210 993210 2088
Width: 1000
Flags: MW
LayerCount: 2
Fore
SplineSet
560 -223 m 1
 580 -199 603 -169 626 -127 c 4
 667 -51 704 65 704 264 c 0
 704 624 573 725 560 750 c 1
 633 750 l 1
 778 633 840 456 840 263 c 0
 840 70 778 -106 633 -223 c 1
 560 -223 l 1
36 201 m 0xf2
 36 287 73 351 160 375 c 1
 138 384 51 406 51 523 c 0
 51 620 94 717 247 717 c 2
 248 717 l 2
 401 717 443 620 443 522 c 0xec
 443 394 335 379 334 375 c 1
 421 351 458 287 458 201 c 0
 458 89 412 -22 247 -22 c 0
 82 -22 36 90 36 201 c 0xf2
176 190 m 2
 177 152 177 116 194 94 c 0
 204 81 220 73 246 73 c 0
 268 73 285 80 295 90 c 4
 322 116 318 166 319 198 c 2
 319 219 l 2xf2
 318 260 315 295 300 316 c 0
 290 331 273 339 247 339 c 0
 221 339 205 330 195 316 c 0
 173 287 177 239 176 213 c 2
 176 190 l 2
178 511 m 2xec
 178 475 182 449 194 432 c 0
 204 418 221 411 246 411 c 0
 272 411 289 419 299 432 c 0
 314 452 316 482 316 512 c 2
 316 530 l 2
 316 562 313 586 304 602 c 0
 294 620 277 628 248 628 c 0
 222 628 206 621 196 610 c 0
 178 590 179 557 178 529 c 2
 178 511 l 2xec
EndSplineSet
EndChar
StartChar: uF27BB
Encoding: 993211 993211 2089
Width: 1000
Flags: MW
LayerCount: 2
Fore
SplineSet
560 -223 m 1
 580 -199 603 -169 626 -127 c 4
 667 -51 704 65 704 264 c 0
 704 624 573 725 560 750 c 1
 633 750 l 1
 778 633 840 456 840 263 c 0
 840 70 778 -106 633 -223 c 1
 560 -223 l 1
29 443 m 0
 29 513 29 573 72 632 c 0
 108 682 154 717 252 717 c 0
 315 717 358 695 391 662 c 0
 468 585 471 444 471 359 c 0
 471 255 462 124 380 45 c 0
 334 -3 267 -22 204 -22 c 0
 148 -22 108 -5 63 26 c 1
 111 110 l 1
 141 87 162 73 204 73 c 0
 250 73 290 96 309 131 c 0
 323 159 334 213 334 296 c 2
 334 305 l 1
 319 264 283 202 205 202 c 0
 127 202 91 241 70 273 c 0
 33 328 29 381 29 443 c 0
165 450 m 2
 167 335 171 318 186 298 c 0
 200 281 221 275 242 275 c 0
 265 275 295 284 314 324 c 0
 327 350 334 389 334 448 c 0
 334 525 333 628 250 628 c 0
 228 628 210 623 199 614 c 0
 161 586 168 522 165 482 c 2
 165 450 l 2
EndSplineSet
EndChar
StartChar: uF27BC
Encoding: 993212 993212 2090
Width: 1000
Flags: MW
LayerCount: 2
Fore
SplineSet
560 -223 m 1
 580 -199 603 -169 626 -127 c 4
 667 -51 704 65 704 264 c 0
 704 624 573 725 560 750 c 1
 633 750 l 1
 778 633 840 456 840 263 c 0
 840 70 778 -106 633 -223 c 1
 560 -223 l 1
EndSplineSet
Colour: ffff
EndChar
StartChar: uF27E3
Encoding: 993251 993251 909
Width: 1000
Flags: MW
LayerCount: 2
Fore
SplineSet
1023 360 m 1
 999 380 969 403 927 426 c 4
 851 467 735 504 536 504 c 0
 176 504 75 373 50 360 c 1
 50 433 l 1
 167 578 344 640 537 640 c 0
 730 640 906 578 1023 433 c 1
 1023 360 l 1
EndSplineSet
Colour: ffff
EndChar
StartChar: uF27F3
Encoding: 993267 993267 2145
Width: 1000
Flags: MW
LayerCount: 2
Fore
SplineSet
-23 240 m 1
 1 220 31 197 73 174 c 4
 149 133 265 96 464 96 c 0
 824 96 925 227 950 240 c 1
 950 167 l 1
 833 22 656 -40 463 -40 c 0
 270 -40 94 22 -23 167 c 1
 -23 240 l 1
EndSplineSet
Colour: ffff
EndChar
StartChar: uF27FA
Encoding: 993274 993274 32
Width: 1000
Flags: MW
LayerCount: 2
Fore
SplineSet
50 300 m 0
 50 584 236 760 501 760 c 0
 758 760 949 589 950 300 c 0
 950 21 769 -160 499 -160 c 0
 230 -160 50 24 50 300 c 0
112 299 m 0
 112 55 269 -97 498 -97 c 0
 724 -97 887 47 887 301 c 0
 887 547 729 697 502 697 c 0
 276 697 112 553 112 299 c 0
523.799804688 297.549804688 m 0
 523.799804688 305.950195312 523.799804688 314.349609375 523.799804688 322.75 c 0
 525.200195312 413.049804688 536.400390625 521.549804688 626 550.950195312 c 0
 638.599609375 555.849609375 653.299804688 558.650390625 670.099609375 558.650390625 c 0
 702.299804688 558.650390625 738 546.75 767.400390625 514.549804688 c 0
 817.099609375 459.950195312 817.099609375 358.450195312 817.099609375 310.150390625 c 2
 817.099609375 303.150390625 l 2
 817.099609375 205.849609375 815.700195312 79.150390625 713.5 48.349609375 c 4
 700.900390625 44.150390625 686.200195312 41.349609375 669.400390625 41.349609375 c 0
 530.099609375 41.349609375 523.799804688 182.75 523.799804688 297.549804688 c 0
616.900390625 303.150390625 m 0
 616.900390625 165.25 620.400390625 120.450195312 649.799804688 98.75 c 0
 655.400390625 95.25 662.400390625 91.75 670.099609375 91.75 c 0
 673.599609375 91.75 688.299804688 92.4501953125 700.900390625 109.950195312 c 0
 724 140.75 721.900390625 196.75 723.299804688 306.650390625 c 0
 723.299804688 314.349609375 724 322.75 724 331.849609375 c 0
 724 384.349609375 721.200195312 448.049804688 711.400390625 473.25 c 0
 703.700195312 492.849609375 688.299804688 507.549804688 670.099609375 507.549804688 c 0
 617.599609375 507.549804688 616.900390625 417.950195312 616.900390625 333.950195312 c 0
 616.900390625 323.450195312 616.900390625 312.950195312 616.900390625 303.150390625 c 0
173.799804688 297.549804688 m 0
 173.799804688 305.950195312 173.799804688 314.349609375 173.799804688 322.75 c 0
 175.200195312 413.049804688 186.400390625 521.549804688 276 550.950195312 c 0
 288.599609375 555.849609375 303.299804688 558.650390625 320.099609375 558.650390625 c 0
 352.299804688 558.650390625 388 546.75 417.400390625 514.549804688 c 0
 467.099609375 459.950195312 467.099609375 358.450195312 467.099609375 310.150390625 c 2
 467.099609375 303.150390625 l 2
 467.099609375 205.849609375 465.700195312 79.150390625 363.5 48.349609375 c 4
 350.900390625 44.150390625 336.200195312 41.349609375 319.400390625 41.349609375 c 0
 180.099609375 41.349609375 173.799804688 182.75 173.799804688 297.549804688 c 0
266.900390625 303.150390625 m 0
 266.900390625 165.25 270.400390625 120.450195312 299.799804688 98.75 c 0
 305.400390625 95.25 312.400390625 91.75 320.099609375 91.75 c 0
 323.599609375 91.75 338.299804688 92.4501953125 350.900390625 109.950195312 c 0
 374 140.75 371.900390625 196.75 373.299804688 306.650390625 c 0
 373.299804688 314.349609375 374 322.75 374 331.849609375 c 0
 374 384.349609375 371.200195312 448.049804688 361.400390625 473.25 c 0
 353.700195312 492.849609375 338.299804688 507.549804688 320.099609375 507.549804688 c 0
 267.599609375 507.549804688 266.900390625 417.950195312 266.900390625 333.950195312 c 0
 266.900390625 323.450195312 266.900390625 312.950195312 266.900390625 303.150390625 c 0
EndSplineSet
EndChar
StartChar: uF2810
Encoding: 993296 993296 54
Width: 1000
Flags: MW
LayerCount: 2
Fore
SplineSet
50 300 m 0
 50 584 236 760 501 760 c 0
 758 760 949 589 950 300 c 0
 950 21 769 -160 499 -160 c 0
 230 -160 50 24 50 300 c 0
112 299 m 0
 112 55 269 -97 498 -97 c 0
 724 -97 887 47 887 301 c 0
 887 547 729 697 502 697 c 0
 276 697 112 553 112 299 c 0
516.799804688 163.150390625 m 1
 516.799804688 229.650390625 l 1
 516.799804688 229.650390625 l 1
 669.400390625 543.25 l 1
 773 543.25 l 1
 773 229.650390625 l 1
 836 229.650390625 l 1
 836 163.150390625 l 1
 773 163.150390625 l 1
 773 56.75 l 1
 686.900390625 56.75 l 1
 686.900390625 163.150390625 l 1
 516.799804688 163.150390625 l 1
590.299804688 229.650390625 m 1
 689.700195312 229.650390625 l 1
 689.700195312 471.150390625 l 1
 679.900390625 426.349609375 658.900390625 382.950195312 590.299804688 229.650390625 c 1
166.799804688 163.150390625 m 1
 166.799804688 229.650390625 l 1
 166.799804688 229.650390625 l 1
 319.400390625 543.25 l 1
 423 543.25 l 1
 423 229.650390625 l 1
 486 229.650390625 l 1
 486 163.150390625 l 1
 423 163.150390625 l 1
 423 56.75 l 1
 336.900390625 56.75 l 1
 336.900390625 163.150390625 l 1
 166.799804688 163.150390625 l 1
240.299804688 229.650390625 m 1
 339.700195312 229.650390625 l 1
 339.700195312 471.150390625 l 1
 329.900390625 426.349609375 308.900390625 382.950195312 240.299804688 229.650390625 c 1
EndSplineSet
EndChar
StartChar: uF2813
Encoding: 993299 993299 57
Width: 1000
Flags: MW
LayerCount: 2
Fore
SplineSet
50 300 m 0
 50 584 236 760 501 760 c 0
 758 760 949 589 950 300 c 0
 950 21 769 -160 499 -160 c 0
 230 -160 50 24 50 300 c 0
112 299 m 0
 112 55 269 -97 498 -97 c 0
 724 -97 887 47 887 301 c 0
 887 547 729 697 502 697 c 0
 276 697 112 553 112 299 c 0
525.200195312 471.5 m 1
 525.200195312 547.099609375 l 1
 831.799804688 547.099609375 l 1
 831.799804688 476.400390625 l 1
 731.700195312 356 692.5 200.599609375 692.5 52.900390625 c 1
 593.099609375 52.900390625 l 1
 593.099609375 210.400390625 655.400390625 363.69921875 776.5 472.19921875 c 1
 525.200195312 471.5 l 1
166.799804688 167 m 1
 166.799804688 233.5 l 1
 166.799804688 233.5 l 1
 319.400390625 547.099609375 l 1
 423 547.099609375 l 1
 423 233.5 l 1
 486 233.5 l 1
 486 167 l 1
 423 167 l 1
 423 60.599609375 l 1
 336.900390625 60.599609375 l 1
 336.900390625 167 l 1
 166.799804688 167 l 1
240.299804688 233.5 m 1
 339.700195312 233.5 l 1
 339.700195312 475 l 1
 329.900390625 430.19921875 308.900390625 386.80078125 240.299804688 233.5 c 1
EndSplineSet
EndChar
StartChar: uF282C
Encoding: 993324 993324 82
Width: 1000
Flags: MW
LayerCount: 2
Fore
SplineSet
50 300 m 0
 50 584 236 760 501 760 c 0
 758 760 949 589 950 300 c 0
 950 21 769 -160 499 -160 c 0
 230 -160 50 24 50 300 c 0
112 299 m 0
 112 55 269 -97 498 -97 c 0
 724 -97 887 47 887 301 c 0
 887 547 729 697 502 697 c 0
 276 697 112 553 112 299 c 0
525.200195312 454.69921875 m 1
 544.799804688 503 584.700195312 554.80078125 661 554.80078125 c 0
 752 554.80078125 810.099609375 475 810.099609375 393.80078125 c 0
 810.099609375 322.400390625 758.299804688 286 677.799804688 213.19921875 c 2
 598 127.099609375 l 1
 810.099609375 128.5 l 1
 810.099609375 52.900390625 l 1
 531.5 52.900390625 l 1
 531.5 122.900390625 l 1
 633 230.69921875 l 2
 658.200195312 260.80078125 714.200195312 317.5 714.200195312 392.400390625 c 0
 714.200195312 439.30078125 693.200195312 484.80078125 652.599609375 484.80078125 c 0
 607.799804688 484.80078125 586.099609375 438.599609375 573.5 393.099609375 c 1
 525.200195312 454.69921875 l 1
175.200195312 463.80078125 m 1
 175.200195312 539.400390625 l 1
 481.799804688 539.400390625 l 1
 481.799804688 468.69921875 l 1
 381.700195312 348.30078125 342.5 192.900390625 342.5 45.19921875 c 1
 243.099609375 45.19921875 l 1
 243.099609375 202.69921875 305.400390625 356 426.5 464.5 c 1
 175.200195312 463.80078125 l 1
EndSplineSet
EndChar
StartChar: uF2832
Encoding: 993330 993330 88
Width: 1000
Flags: MW
LayerCount: 2
Fore
SplineSet
50 300 m 0
 50 584 236 760 501 760 c 0
 758 760 949 589 950 300 c 0
 950 21 769 -160 499 -160 c 0
 230 -160 50 24 50 300 c 0
112 299 m 0
 112 55 269 -97 498 -97 c 0
 724 -97 887 47 887 301 c 0
 887 547 729 697 502 697 c 0
 276 697 112 553 112 299 c 0
525.200195312 197.450195312 m 0xf2
 525.200195312 257.650390625 551.099609375 302.450195312 612 319.25 c 1
 596.599609375 325.549804688 535.700195312 340.950195312 535.700195312 422.849609375 c 0
 535.700195312 490.75 565.799804688 558.650390625 672.900390625 558.650390625 c 2
 673.599609375 558.650390625 l 2
 780.700195312 558.650390625 810.099609375 490.75 810.099609375 422.150390625 c 0xec
 810.099609375 332.549804688 734.5 322.049804688 733.799804688 319.25 c 1
 794.700195312 302.450195312 820.599609375 257.650390625 820.599609375 197.450195312 c 0
 820.599609375 119.049804688 788.400390625 41.349609375 672.900390625 41.349609375 c 0
 557.400390625 41.349609375 525.200195312 119.75 525.200195312 197.450195312 c 0xf2
623.200195312 189.75 m 2
 623.900390625 163.150390625 623.900390625 137.950195312 635.799804688 122.549804688 c 0
 642.799804688 113.450195312 654 107.849609375 672.200195312 107.849609375 c 0
 687.599609375 107.849609375 699.5 112.75 706.5 119.75 c 4
 725.400390625 137.950195312 722.599609375 172.950195312 723.299804688 195.349609375 c 2
 723.299804688 210.049804688 l 2xf2
 722.599609375 238.75 720.5 263.25 710 277.950195312 c 0
 703 288.450195312 691.099609375 294.049804688 672.900390625 294.049804688 c 0
 654.700195312 294.049804688 643.5 287.75 636.5 277.950195312 c 0
 621.099609375 257.650390625 623.900390625 224.049804688 623.200195312 205.849609375 c 2
 623.200195312 189.75 l 2
624.599609375 414.450195312 m 2xec
 624.599609375 389.25 627.400390625 371.049804688 635.799804688 359.150390625 c 0
 642.799804688 349.349609375 654.700195312 344.450195312 672.200195312 344.450195312 c 0
 690.400390625 344.450195312 702.299804688 350.049804688 709.299804688 359.150390625 c 0
 719.799804688 373.150390625 721.200195312 394.150390625 721.200195312 415.150390625 c 2
 721.200195312 427.75 l 2
 721.200195312 450.150390625 719.099609375 466.950195312 712.799804688 478.150390625 c 0
 705.799804688 490.75 693.900390625 496.349609375 673.599609375 496.349609375 c 0
 655.400390625 496.349609375 644.200195312 491.450195312 637.200195312 483.75 c 0
 624.599609375 469.75 625.299804688 446.650390625 624.599609375 427.049804688 c 2
 624.599609375 414.450195312 l 2xec
175.200195312 467.650390625 m 1
 175.200195312 543.25 l 1
 481.799804688 543.25 l 1
 481.799804688 472.549804688 l 1
 381.700195312 352.150390625 342.5 196.75 342.5 49.0498046875 c 1
 243.099609375 49.0498046875 l 1
 243.099609375 206.549804688 305.400390625 359.849609375 426.5 468.349609375 c 1
 175.200195312 467.650390625 l 1
EndSplineSet
EndChar
StartChar: uF2845
Encoding: 993349 993349 107
Width: 1000
Flags: MW
LayerCount: 2
Fore
SplineSet
50 300 m 0
 50 584 236 760 501 760 c 0
 758 760 949 589 950 300 c 0
 950 21 769 -160 499 -160 c 0
 230 -160 50 24 50 300 c 0
112 299 m 0
 112 55 269 -97 498 -97 c 0
 724 -97 887 47 887 301 c 0
 887 547 729 697 502 697 c 0
 276 697 112 553 112 299 c 0
525.200195312 467.650390625 m 1
 525.200195312 543.25 l 1
 831.799804688 543.25 l 1
 831.799804688 472.549804688 l 1
 731.700195312 352.150390625 692.5 196.75 692.5 49.0498046875 c 1
 593.099609375 49.0498046875 l 1
 593.099609375 206.549804688 655.400390625 359.849609375 776.5 468.349609375 c 1
 525.200195312 467.650390625 l 1
170.299804688 366.849609375 m 0
 170.299804688 415.849609375 170.299804688 457.849609375 200.400390625 499.150390625 c 0
 225.599609375 534.150390625 257.799804688 558.650390625 326.400390625 558.650390625 c 0
 370.5 558.650390625 400.599609375 543.25 423.700195312 520.150390625 c 0
 477.599609375 466.25 479.700195312 367.549804688 479.700195312 308.049804688 c 0
 479.700195312 235.25 473.400390625 143.549804688 416 88.25 c 0
 383.799804688 54.650390625 336.900390625 41.349609375 292.799804688 41.349609375 c 0
 253.599609375 41.349609375 225.599609375 53.25 194.099609375 74.9501953125 c 1
 227.700195312 133.75 l 1
 248.700195312 117.650390625 263.400390625 107.849609375 292.799804688 107.849609375 c 0
 325 107.849609375 353 123.950195312 366.299804688 148.450195312 c 0
 376.099609375 168.049804688 383.799804688 205.849609375 383.799804688 263.950195312 c 2
 383.799804688 270.25 l 1
 373.299804688 241.549804688 348.099609375 198.150390625 293.5 198.150390625 c 0
 238.900390625 198.150390625 213.700195312 225.450195312 199 247.849609375 c 0
 173.099609375 286.349609375 170.299804688 323.450195312 170.299804688 366.849609375 c 0
265.5 371.75 m 2
 266.900390625 291.25 269.700195312 279.349609375 280.200195312 265.349609375 c 0
 290 253.450195312 304.700195312 249.25 319.400390625 249.25 c 0
 335.5 249.25 356.5 255.549804688 369.799804688 283.549804688 c 0
 378.900390625 301.75 383.799804688 329.049804688 383.799804688 370.349609375 c 0
 383.799804688 424.25 383.099609375 496.349609375 325 496.349609375 c 0
 309.599609375 496.349609375 297 492.849609375 289.299804688 486.549804688 c 0
 262.700195312 466.950195312 267.599609375 422.150390625 265.5 394.150390625 c 2
 265.5 371.75 l 2
EndSplineSet
EndChar
StartChar: uF284A
Encoding: 993354 993354 112
Width: 1000
Flags: MW
LayerCount: 2
Fore
SplineSet
50 300 m 0
 50 584 236 760 501 760 c 0
 758 760 949 589 950 300 c 0
 950 21 769 -160 499 -160 c 0
 230 -160 50 24 50 300 c 0
112 299 m 0
 112 55 269 -97 498 -97 c 0
 724 -97 887 47 887 301 c 0
 887 547 729 697 502 697 c 0
 276 697 112 553 112 299 c 0
304.700195312 60.599609375 m 1
 304.700195312 547.099609375 l 1
 398.5 547.099609375 l 1
 398.5 357.400390625 l 1
 438.400390625 379.80078125 493 398.69921875 565.799804688 398.69921875 c 0x7c
 671.5 398.69921875 695.299804688 316.80078125 695.299804688 224.400390625 c 0
 695.299804688 101.19921875 640 52.900390625 535 52.900390625 c 0xbc
 474.099609375 52.900390625 434.200195312 69 400.599609375 91.400390625 c 1
 400.599609375 60.599609375 l 1
 304.700195312 60.599609375 l 1
400.599609375 128.5 m 1
 404.799804688 125.69921875 411.099609375 121.5 420.900390625 116.599609375 c 4
 434.900390625 110.30078125 453.799804688 104 481.799804688 104 c 0
 591 104 599.400390625 157.19921875 599.400390625 223 c 0
 599.400390625 292.30078125 596.599609375 348.30078125 493 348.30078125 c 0
 453.799804688 348.30078125 427.900390625 339.19921875 400.599609375 325.19921875 c 1
 400.599609375 128.5 l 1
EndSplineSet
EndChar
StartChar: uF284B
Encoding: 993355 993355 113
Width: 1000
Flags: MW
LayerCount: 2
Fore
SplineSet
50 300 m 0
 50 584 236 760 501 760 c 0
 758 760 949 589 950 300 c 0
 950 21 769 -160 499 -160 c 0
 230 -160 50 24 50 300 c 0
112 299 m 0
 112 55 269 -97 498 -97 c 0
 724 -97 887 47 887 301 c 0
 887 547 729 697 502 697 c 0
 276 697 112 553 112 299 c 0
323.599609375 298.600585938 m 0
 323.599609375 440 402.700195312 475 530.799804688 475 c 0
 605 475 629.5 467.299804688 672.200195312 444.900390625 c 1
 661 378.400390625 l 1
 631.599609375 400.799804688 613.400390625 420.400390625 532.200195312 420.400390625 c 0
 425.799804688 420.400390625 421.599609375 360.900390625 420.200195312 312.600585938 c 2
 420.200195312 292.299804688 l 2
 420.200195312 225.100585938 439.099609375 179.600585938 530.099609375 179.600585938 c 0
 615.5 179.600585938 652.599609375 211.100585938 670.799804688 225.799804688 c 1
 676.400390625 157.200195312 l 1
 635.799804688 135.5 599.400390625 125 526.599609375 125 c 0
 357.200195312 125 323.599609375 207.600585938 323.599609375 298.600585938 c 0
EndSplineSet
EndChar
StartChar: uF284E
Encoding: 993358 993358 116
Width: 1000
Flags: MW
LayerCount: 2
Fore
SplineSet
50 300 m 0
 50 584 236 760 501 760 c 0
 758 760 949 589 950 300 c 0
 950 21 769 -160 499 -160 c 0
 230 -160 50 24 50 300 c 0
112 299 m 0
 112 55 269 -97 498 -97 c 0
 724 -97 887 47 887 301 c 0
 887 547 729 697 502 697 c 0
 276 697 112 553 112 299 c 0
389.400390625 332.900390625 m 1
 389.400390625 383.30078125 l 1
 428.599609375 383.30078125 l 1
 428.599609375 430.900390625 l 2
 428.599609375 440.69921875 429.299804688 449.80078125 430.700195312 458.19921875 c 0
 435.599609375 486.19921875 447.5 505.80078125 465 519.80078125 c 0
 490.900390625 540.099609375 532.200195312 547.099609375 584.700195312 547.099609375 c 0
 608.5 547.099609375 623.900390625 545 649.799804688 539.400390625 c 1
 649.799804688 468.69921875 l 1
 630.900390625 485.5 615.5 496 584.700195312 496 c 0
 568.599609375 496 553.200195312 492.5 542 486.900390625 c 0
 521 477.099609375 519.599609375 461 519.599609375 449.80078125 c 2
 519.599609375 383.30078125 l 1
 603.599609375 383.30078125 l 1
 603.599609375 332.900390625 l 1
 521.700195312 332.900390625 l 1
 521.700195312 52.900390625 l 1
 428.599609375 52.900390625 l 1
 428.599609375 332.900390625 l 1
 389.400390625 332.900390625 l 1
EndSplineSet
EndChar
StartChar: uF2859
Encoding: 993369 993369 127
Width: 1000
Flags: MW
LayerCount: 2
Fore
SplineSet
50 300 m 0
 50 584 236 760 501 760 c 0
 758 760 949 589 950 300 c 0
 950 21 769 -160 499 -160 c 0
 230 -160 50 24 50 300 c 0
112 299 m 0
 112 55 269 -97 498 -97 c 0
 724 -97 887 47 887 301 c 0
 887 547 729 697 502 697 c 0
 276 697 112 553 112 299 c 0
304 353.900390625 m 0
 304 478.5 359.299804688 527.5 464.299804688 527.5 c 0
 546.900390625 527.5 585.400390625 492.5 602.200195312 477.100585938 c 1
 602.200195312 527.5 l 1
 696 527.5 l 1xf4
 696 72.5 l 1
 598.700195312 72.5 l 1
 598.700195312 226.5 l 1xf8
 562.299804688 198.5 510.5 181.700195312 451.700195312 181.700195312 c 0
 403.400390625 181.700195312 365.599609375 192.200195312 341.799804688 218.80078125 c 0
 308.200195312 256.600585938 304 312.600585938 304 353.900390625 c 0
400.599609375 353.900390625 m 0xf4
 400.599609375 316.100585938 406.900390625 278.30078125 434.200195312 255.200195312 c 4
 449.599609375 241.200195312 473.400390625 232.80078125 507 232.80078125 c 0
 550.400390625 232.80078125 579.099609375 247.5 602.200195312 265 c 1
 602.200195312 423.200195312 l 2
 602.200195312 448.400390625 564.400390625 472.900390625 516.799804688 472.900390625 c 0
 486 472.900390625 439.099609375 464.5 416 426 c 0
 401.299804688 403.600585938 400.599609375 378.400390625 400.599609375 353.900390625 c 0xf4
EndSplineSet
EndChar
StartChar: uF285A
Encoding: 993370 993370 128
Width: 1000
Flags: MW
LayerCount: 2
Fore
SplineSet
50 300 m 0
 50 584 236 760 501 760 c 0
 758 760 949 589 950 300 c 0
 950 21 769 -160 499 -160 c 0
 230 -160 50 24 50 300 c 0
112 299 m 0
 112 55 269 -97 498 -97 c 0
 724 -97 887 47 887 301 c 0
 887 547 729 697 502 697 c 0
 276 697 112 553 112 299 c 0
396.400390625 130.950195312 m 1xd0
 396.400390625 465.549804688 l 1
 486 465.549804688 l 1
 486 413.049804688 l 1xe0
 486.700195312 380.850585938 l 1
 498.599609375 412.350585938 532.200195312 467.650390625 603.599609375 469.049804688 c 1
 603.599609375 397.650390625 l 1
 523.799804688 396.25 493 345.150390625 490.200195312 312.950195312 c 2
 490.200195312 130.950195312 l 1
 396.400390625 130.950195312 l 1xd0
EndSplineSet
EndChar
StartChar: uF285B
Encoding: 993371 993371 129
Width: 1000
Flags: MW
LayerCount: 2
Fore
SplineSet
50 300 m 0
 50 584 236 760 501 760 c 0
 758 760 949 589 950 300 c 0
 950 21 769 -160 499 -160 c 0
 230 -160 50 24 50 300 c 0
112 299 m 0
 112 55 269 -97 498 -97 c 0
 724 -97 887 47 887 301 c 0
 887 547 729 697 502 697 c 0
 276 697 112 553 112 299 c 0
347.400390625 157.900390625 m 1
 360.700195312 234.900390625 l 1
 369.799804688 225.799804688 407.599609375 180.299804688 507 180.299804688 c 0
 574.200195312 180.299804688 582.599609375 202 582.599609375 219.5 c 0
 582.599609375 239.100585938 565.799804688 251.700195312 540.599609375 257.299804688 c 0
 514 262.900390625 469.900390625 264.299804688 425.799804688 275.5 c 0
 404.099609375 283.200195312 383.099609375 295.799804688 367.700195312 318.200195312 c 0
 362.099609375 327.299804688 351.599609375 345.5 351.599609375 372.100585938 c 0
 351.599609375 418.299804688 369.099609375 444.200195312 395 458.900390625 c 4
 417.400390625 471.5 459.400390625 475 503.5 475 c 0
 570 475 597.299804688 470.100585938 641.400390625 451.900390625 c 1
 629.5 384.700195312 l 1
 593.099609375 412 566.5 424.600585938 490.900390625 424.600585938 c 0
 430 424.600585938 421.599609375 403.600585938 421.599609375 389.600585938 c 0
 421.599609375 351.799804688 485.299804688 351.799804688 549.700195312 342.700195312 c 0
 601.5 332.900390625 652.599609375 297.200195312 652.599609375 232.799804688 c 0
 652.599609375 193.600585938 640.700195312 167.700195312 621.799804688 150.900390625 c 0
 598.700195312 131.299804688 563.700195312 125 507.700195312 125 c 0
 432.099609375 125 388.700195312 136.200195312 347.400390625 157.900390625 c 1
EndSplineSet
EndChar
StartChar: uF285C
Encoding: 993372 993372 130
Width: 1000
Flags: MW
LayerCount: 2
Fore
SplineSet
50 300 m 0
 50 584 236 760 501 760 c 0
 758 760 949 589 950 300 c 0
 950 21 769 -160 499 -160 c 0
 230 -160 50 24 50 300 c 0
112 299 m 0
 112 55 269 -97 498 -97 c 0
 724 -97 887 47 887 301 c 0
 887 547 729 697 502 697 c 0
 276 697 112 553 112 299 c 0
370.5 371.400390625 m 1
 370.5 421.80078125 l 1
 419.5 421.80078125 l 1
 419.5 516.30078125 l 1
 509.099609375 516.30078125 l 1
 509.099609375 421.80078125 l 1xd0
 616.900390625 421.80078125 l 1
 616.900390625 371.400390625 l 1
 509.099609375 371.400390625 l 1
 509.099609375 202 l 2
 509.099609375 179.599609375 511.900390625 162.80078125 522.400390625 151.599609375 c 4
 530.799804688 143.19921875 543.400390625 138.30078125 557.400390625 138.30078125 c 0xe0
 593.099609375 138.30078125 614.799804688 163.5 616.900390625 163.5 c 1
 629.5 114.5 l 1
 591 96.30078125 551.799804688 83.69921875 487.400390625 83.69921875 c 0
 465 83.69921875 449.599609375 91.400390625 439.099609375 102.599609375 c 0
 418.099609375 125.69921875 417.400390625 165.599609375 417.400390625 190.80078125 c 2
 417.400390625 371.400390625 l 1xe0
 370.5 371.400390625 l 1
EndSplineSet
EndChar
StartChar: uF285E
Encoding: 993374 993374 132
Width: 1000
Flags: MW
LayerCount: 2
Fore
SplineSet
50 300 m 0
 50 584 236 760 501 760 c 0
 758 760 949 589 950 300 c 0
 950 21 769 -160 499 -160 c 0
 230 -160 50 24 50 300 c 0
112 299 m 0
 112 55 269 -97 498 -97 c 0
 724 -97 887 47 887 301 c 0
 887 547 729 697 502 697 c 0
 276 697 112 553 112 299 c 0
295.599609375 465.200195312 m 1
 383.799804688 465.200195312 l 1
 458.700195312 308.399414062 l 2
 462.900390625 244 468.5 234.200195312 471.299804688 216.700195312 c 1
 483.900390625 250.299804688 605 440 619 465.200195312 c 1
 704.400390625 465.200195312 l 1
 530.099609375 134.799804688 l 1
 410.400390625 134.799804688 l 1
 295.599609375 465.200195312 l 1
EndSplineSet
EndChar
StartChar: uF285F
Encoding: 993375 993375 133
Width: 1000
Flags: MW
LayerCount: 2
Fore
SplineSet
50 300 m 0
 50 584 236 760 501 760 c 0
 758 760 949 589 950 300 c 0
 950 21 769 -160 499 -160 c 0
 230 -160 50 24 50 300 c 0
112 299 m 0
 112 55 269 -97 498 -97 c 0
 724 -97 887 47 887 301 c 0
 887 547 729 697 502 697 c 0
 276 697 112 553 112 299 c 0
222.799804688 465.200195312 m 1
 308.200195312 465.200195312 l 1
 364.200195312 269.200195312 368.400390625 249.599609375 372.599609375 227.899414062 c 1
 383.099609375 273.399414062 451 454.700195312 453.799804688 465.200195312 c 1
 553.200195312 465.200195312 l 1
 600.799804688 307.700195312 l 2
 619 241.200195312 621.799804688 232.099609375 626 216.700195312 c 1
 635.799804688 256.599609375 689 451.200195312 693.200195312 465.200195312 c 1
 777.200195312 465.200195312 l 1
 687.599609375 134.799804688 l 1
 568.599609375 134.799804688 l 1
 488.799804688 342 492.299804688 322.399414062 486 370 c 1
 479.700195312 322.399414062 416 156.5 403.400390625 134.799804688 c 1
 312.400390625 134.799804688 l 1
 222.799804688 465.200195312 l 1
EndSplineSet
EndChar
StartChar: uF2861
Encoding: 993377 993377 135
Width: 1000
Flags: MW
LayerCount: 2
Fore
SplineSet
50 300 m 0
 50 584 236 760 501 760 c 0
 758 760 949 589 950 300 c 0
 950 21 769 -160 499 -160 c 0
 230 -160 50 24 50 300 c 0
112 299 m 0
 112 55 269 -97 498 -97 c 0
 724 -97 887 47 887 301 c 0
 887 547 729 697 502 697 c 0
 276 697 112 553 112 299 c 0
295.599609375 527.5 m 1
 389.400390625 527.5 l 1
 526.599609375 322.399414062 511.900390625 319.599609375 520.299804688 293 c 1
 522.400390625 339.899414062 612.700195312 507.19921875 619 527.5 c 1
 704.400390625 527.5 l 1
 566.5 169.799804688 l 2
 548.299804688 135.5 521.700195312 113.099609375 490.200195312 97.69921875 c 0
 451 78.7998046875 405.5 72.5 371.900390625 72.5 c 0
 350.200195312 72.5 327.799804688 75.2998046875 316.599609375 77.3994140625 c 1
 310.299804688 148.799804688 l 1
 327.799804688 141.099609375 346 132 373.299804688 132 c 0
 398.5 132 417.400390625 136.19921875 431.400390625 143.19921875 c 0
 456.599609375 155.799804688 461.5 178.19921875 472 197.099609375 c 1
 472 197.099609375 l 1
 472 197.099609375 l 1
 295.599609375 527.5 l 1
EndSplineSet
EndChar
StartChar: uF2863
Encoding: 993379 993379 137
Width: 1000
Flags: MW
LayerCount: 2
Fore
SplineSet
50 300 m 0
 50 584 236 760 501 760 c 0
 758 760 949 589 950 300 c 0
 950 21 769 -160 499 -160 c 0
 230 -160 50 24 50 300 c 0
112 299 m 0
 112 55 269 -97 498 -97 c 0
 724 -97 887 47 887 301 c 0
 887 547 729 697 502 697 c 0
 276 697 112 553 112 299 c 0
238.200195312 56.75 m 1
 423 543.25 l 1
 579.799804688 543.25 l 1
 761.799804688 56.75 l 1
 654.700195312 56.75 l 1
 609.900390625 161.75 l 1
 377.5 161.75 l 1
 333.400390625 56.75 l 1
 238.200195312 56.75 l 1
403.400390625 222.650390625 m 1
 584.700195312 222.650390625 l 1
 504.900390625 421.450195312 l 1
 494.400390625 455.049804688 l 1
 483.200195312 415.150390625 463.599609375 376.650390625 403.400390625 222.650390625 c 1
EndSplineSet
EndChar
StartChar: uF2864
Encoding: 993380 993380 138
Width: 1000
Flags: MW
LayerCount: 2
Fore
SplineSet
50 300 m 0
 50 584 236 760 501 760 c 0
 758 760 949 589 950 300 c 0
 950 21 769 -160 499 -160 c 0
 230 -160 50 24 50 300 c 0
112 299 m 0
 112 55 269 -97 498 -97 c 0
 724 -97 887 47 887 301 c 0
 887 547 729 697 502 697 c 0
 276 697 112 553 112 299 c 0
276 56.75 m 1
 276 543.25 l 1
 468.5 543.25 l 2
 528.700195312 543.25 591.700195312 543.25 638.599609375 518.75 c 0
 692.5 490.049804688 698.799804688 439.650390625 698.799804688 416.549804688 c 0xf8
 698.799804688 332.549804688 612 315.049804688 594.5 310.849609375 c 1
 631.599609375 305.950195312 719.799804688 287.049804688 724 191.849609375 c 0xf4
 724 137.25 697.400390625 95.25 647.700195312 74.25 c 0
 626 65.150390625 599.400390625 60.9501953125 571.400390625 58.849609375 c 0
 544.799804688 56.75 517.5 56.75 491.599609375 56.75 c 2
 276 56.75 l 1
375.400390625 117.650390625 m 1
 483.900390625 117.650390625 l 2
 541.299804688 117.650390625 581.900390625 123.25 607.099609375 147.75 c 0
 620.400390625 160.349609375 626.700195312 177.849609375 626.700195312 194.650390625 c 0xf4
 626.700195312 227.549804688 607.799804688 252.049804688 581.200195312 266.049804688 c 0
 559.5 276.549804688 535 280.75 510.5 282.849609375 c 0
 497.200195312 283.549804688 482.5 284.25 469.200195312 284.25 c 2
 376.099609375 284.25 l 25
 375.400390625 259.75 l 17
 375.400390625 117.650390625 l 1
375.400390625 335.349609375 m 1
 458 335.349609375 l 2
 512.599609375 335.349609375 560.200195312 340.25 585.400390625 369.650390625 c 0
 595.200195312 380.150390625 602.900390625 396.25 602.900390625 414.450195312 c 0xf8
 602.900390625 441.75 581.900390625 482.349609375 477.599609375 482.349609375 c 2
 376.099609375 482.349609375 l 25
 375.400390625 459.950195312 l 17
 375.400390625 335.349609375 l 1
EndSplineSet
EndChar
StartChar: uF2867
Encoding: 993383 993383 141
Width: 1000
Flags: MW
LayerCount: 2
Fore
SplineSet
50 300 m 0
 50 584 236 760 501 760 c 0
 758 760 949 589 950 300 c 0
 950 21 769 -160 499 -160 c 0
 230 -160 50 24 50 300 c 0
112 299 m 0
 112 55 269 -97 498 -97 c 0
 724 -97 887 47 887 301 c 0
 887 547 729 697 502 697 c 0
 276 697 112 553 112 299 c 0
306.799804688 57.7998046875 m 1
 306.799804688 542.200195312 l 1x6c
 682.700195312 542.200195312 l 1
 682.700195312 468.700195312 l 1x34
 410.400390625 470.799804688 l 1
 410.400390625 342.700195312 l 1
 661 342.700195312 l 1
 661 276.200195312 l 1
 410.400390625 276.200195312 l 1
 410.400390625 132.700195312 l 1xac
 693.200195312 135.5 l 1
 693.200195312 57.7998046875 l 1x64
 306.799804688 57.7998046875 l 1
EndSplineSet
EndChar
StartChar: uF2869
Encoding: 993385 993385 143
Width: 1000
Flags: MW
LayerCount: 2
Fore
SplineSet
50 300 m 0
 50 584 236 760 501 760 c 0
 758 760 949 589 950 300 c 0
 950 21 769 -160 499 -160 c 0
 230 -160 50 24 50 300 c 0
112 299 m 0
 112 55 269 -97 498 -97 c 0
 724 -97 887 47 887 301 c 0
 887 547 729 697 502 697 c 0
 276 697 112 553 112 299 c 0
268.299804688 300.349609375 m 0
 268.299804688 459.25 341.099609375 558.650390625 556 558.650390625 c 0
 630.900390625 558.650390625 671.5 548.849609375 724.700195312 524.349609375 c 1
 708.599609375 432.650390625 l 1
 686.900390625 450.150390625 651.200195312 488.650390625 556.700195312 488.650390625 c 0
 405.5 488.650390625 371.900390625 394.849609375 371.900390625 300.349609375 c 0
 371.900390625 200.25 409 111.349609375 558.799804688 111.349609375 c 0
 597.299804688 111.349609375 628.099609375 117.650390625 635.799804688 118.349609375 c 1
 635.799804688 219.849609375 l 1
 555.299804688 219.849609375 l 1
 555.299804688 286.349609375 l 1
 731.700195312 286.349609375 l 1
 731.700195312 74.9501953125 l 1
 686.200195312 56.0498046875 633.700195312 41.349609375 555.299804688 41.349609375 c 0
 319.400390625 41.349609375 268.299804688 165.950195312 268.299804688 300.349609375 c 0
EndSplineSet
EndChar
StartChar: uF2874
Encoding: 993396 993396 154
Width: 1000
Flags: MW
LayerCount: 2
Fore
SplineSet
50 300 m 0
 50 584 236 760 501 760 c 0
 758 760 949 589 950 300 c 0
 950 21 769 -160 499 -160 c 0
 230 -160 50 24 50 300 c 0
112 299 m 0
 112 55 269 -97 498 -97 c 0
 724 -97 887 47 887 301 c 0
 887 547 729 697 502 697 c 0
 276 697 112 553 112 299 c 0
276.700195312 56.75 m 1
 276.700195312 543.25 l 1
 467.799804688 543.25 l 2
 522.400390625 543.25 579.099609375 542.549804688 624.599609375 522.950195312 c 0
 688.299804688 494.25 698.799804688 437.549804688 698.799804688 404.650390625 c 0
 698.799804688 336.75 654.700195312 294.75 586.099609375 281.450195312 c 1
 723.299804688 56.75 l 1
 619.700195312 56.75 l 1
 470.599609375 274.450195312 l 1
 378.200195312 274.450195312 l 1
 378.200195312 56.75 l 1
 276.700195312 56.75 l 1
378.200195312 325.549804688 m 1
 478.299804688 325.549804688 l 2
 516.799804688 325.549804688 548.299804688 327.650390625 569.299804688 339.549804688 c 0
 589.599609375 350.75 600.799804688 370.349609375 600.799804688 403.950195312 c 0
 600.799804688 438.25 588.900390625 457.849609375 567.200195312 469.049804688 c 0
 546.200195312 479.549804688 516.799804688 482.349609375 479 482.349609375 c 2
 378.200195312 482.349609375 l 1
 378.200195312 325.549804688 l 1
EndSplineSet
EndChar
StartChar: uF2875
Encoding: 993397 993397 155
Width: 1000
Flags: MW
LayerCount: 2
Fore
SplineSet
50 300 m 0
 50 584 236 760 501 760 c 0
 758 760 949 589 950 300 c 0
 950 21 769 -160 499 -160 c 0
 230 -160 50 24 50 300 c 0
112 299 m 0
 112 55 269 -97 498 -97 c 0
 724 -97 887 47 887 301 c 0
 887 547 729 697 502 697 c 0
 276 697 112 553 112 299 c 0
306.799804688 89.650390625 m 1
 322.900390625 182.049804688 l 1
 370.5 143.549804688 420.900390625 117.650390625 504.900390625 117.650390625 c 0
 591.700195312 117.650390625 605 158.25 605 185.549804688 c 0
 605 221.25 571.400390625 242.25 544.799804688 250.650390625 c 0
 493 266.049804688 387.299804688 262.549804688 337.599609375 338.150390625 c 0
 325 357.049804688 315.200195312 381.549804688 315.200195312 413.049804688 c 0
 315.200195312 487.25 351.599609375 557.950195312 499.299804688 558.650390625 c 2
 502.799804688 558.650390625 l 2
 571.400390625 558.650390625 614.099609375 550.25 668 524.349609375 c 1
 651.900390625 432.650390625 l 1
 631.599609375 449.450195312 595.200195312 485.849609375 501.400390625 485.849609375 c 0
 418.099609375 485.849609375 403.400390625 449.450195312 403.400390625 425.650390625 c 0
 403.400390625 392.049804688 432.799804688 377.349609375 470.599609375 367.549804688 c 4
 507.700195312 358.450195312 551.799804688 354.25 584.700195312 343.049804688 c 0
 642.099609375 321.349609375 693.200195312 270.25 693.200195312 196.049804688 c 0
 693.200195312 118.349609375 658.900390625 41.349609375 504.900390625 41.349609375 c 0
 426.5 41.349609375 361.400390625 58.849609375 306.799804688 89.650390625 c 1
EndSplineSet
EndChar
StartChar: uF2876
Encoding: 993398 993398 156
Width: 1000
Flags: MW
LayerCount: 2
Fore
SplineSet
50 300 m 0
 50 584 236 760 501 760 c 0
 758 760 949 589 950 300 c 0
 950 21 769 -160 499 -160 c 0
 230 -160 50 24 50 300 c 0
112 299 m 0
 112 55 269 -97 498 -97 c 0
 724 -97 887 47 887 301 c 0
 887 547 729 697 502 697 c 0
 276 697 112 553 112 299 c 0
252.200195312 467.650390625 m 1
 252.200195312 541.150390625 l 1
 747.799804688 541.150390625 l 1
 747.799804688 467.650390625 l 1
 551.799804688 470.44921875 l 1
 551.799804688 58.849609375 l 1
 448.200195312 58.849609375 l 1
 448.200195312 470.44921875 l 1
 252.200195312 467.650390625 l 1
EndSplineSet
EndChar
StartChar: uF2878
Encoding: 993400 993400 158
Width: 1000
Flags: MW
LayerCount: 2
Fore
SplineSet
50 300 m 0
 50 584 236 760 501 760 c 0
 758 760 949 589 950 300 c 0
 950 21 769 -160 499 -160 c 0
 230 -160 50 24 50 300 c 0
112 299 m 0
 112 55 269 -97 498 -97 c 0
 724 -97 887 47 887 301 c 0
 887 547 729 697 502 697 c 0
 276 697 112 553 112 299 c 0
222.099609375 543.25 m 1
 335.5 543.25 l 1
 432.099609375 322.75 l 2
 468.5 216.349609375 481.799804688 180.650390625 492.299804688 144.25 c 1
 505.599609375 191.849609375 523.099609375 235.25 538.5 280.75 c 2
 677.099609375 543.25 l 1
 777.900390625 543.25 l 1
 553.200195312 56.75 l 1
 420.200195312 56.75 l 1
 222.099609375 543.25 l 1
EndSplineSet
EndChar
StartChar: uF287C
Encoding: 993404 993404 162
Width: 1000
Flags: MW
LayerCount: 2
Fore
SplineSet
50 300 m 0
 50 584 236 760 501 760 c 0
 758 760 949 589 950 300 c 0
 950 21 769 -160 499 -160 c 0
 230 -160 50 24 50 300 c 0
112 299 m 0
 112 55 269 -97 498 -97 c 0
 724 -97 887 47 887 301 c 0
 887 547 729 697 502 697 c 0
 276 697 112 553 112 299 c 0
283 56.75 m 1
 283 103.650390625 l 1
 283 103.650390625 l 1
 574.200195312 476.049804688 l 1
 293.5 473.25 l 1
 293.5 543.25 l 1
 712.799804688 543.25 l 1
 712.799804688 498.450195312 l 1
 712.799804688 498.450195312 l 1
 421.599609375 127.450195312 l 1
 717 130.25 l 1
 717 56.75 l 1
 283 56.75 l 1
EndSplineSet
EndChar
StartChar: uF2907
Encoding: 993543 993543 337
Width: 1000
Flags: MW
LayerCount: 2
Fore
SplineSet
50 300 m 0
 50 584 236 760 501 760 c 0
 758 760 949 589 950 300 c 0
 950 21 769 -160 499 -160 c 0
 230 -160 50 24 50 300 c 0
298.400390625 297.549804688 m 0
 298.400390625 182.75 305.400390625 41.349609375 498.599609375 41.349609375 c 0
 530.099609375 41.349609375 557.400390625 44.150390625 581.200195312 48.349609375 c 4
 700.200195312 79.150390625 701.599609375 205.849609375 701.599609375 303.150390625 c 2
 701.599609375 310.150390625 l 2
 701.599609375 358.450195312 701.599609375 459.950195312 651.900390625 514.549804688 c 0
 622.5 546.75 560.200195312 558.650390625 500 558.650390625 c 0
 468.5 558.650390625 441.200195312 555.849609375 417.400390625 550.950195312 c 0
 311 521.549804688 299.799804688 413.049804688 298.400390625 322.75 c 0
 298.400390625 314.349609375 298.400390625 305.950195312 298.400390625 297.549804688 c 0
400.599609375 303.150390625 m 0
 400.599609375 312.950195312 400.599609375 323.450195312 400.599609375 333.950195312 c 0
 400.599609375 417.950195312 401.299804688 507.549804688 500 507.549804688 c 0
 533.599609375 507.549804688 563 492.849609375 577.700195312 473.25 c 0
 596.599609375 448.049804688 600.799804688 384.349609375 600.799804688 331.849609375 c 0
 600.799804688 322.75 599.400390625 314.349609375 599.400390625 306.650390625 c 0
 597.299804688 196.75 600.799804688 140.75 557.400390625 109.950195312 c 0
 533.599609375 92.4501953125 506.299804688 91.75 500 91.75 c 0
 485.299804688 91.75 472.700195312 95.25 462.200195312 98.75 c 0
 407.599609375 120.450195312 400.599609375 165.25 400.599609375 303.150390625 c 0
EndSplineSet
EndChar
StartChar: uF2908
Encoding: 993544 993544 338
Width: 1000
Flags: MW
LayerCount: 2
Fore
SplineSet
50 300 m 0
 50 584 236 760 501 760 c 0
 758 760 949 589 950 300 c 0
 950 21 769 -160 499 -160 c 0
 230 -160 50 24 50 300 c 0
523.799804688 297.549804688 m 0
 523.799804688 182.75 530.099609375 41.349609375 669.400390625 41.349609375 c 0
 686.200195312 41.349609375 700.900390625 44.150390625 713.5 48.349609375 c 4
 815.700195312 79.150390625 817.099609375 205.849609375 817.099609375 303.150390625 c 2
 817.099609375 310.150390625 l 2
 817.099609375 358.450195312 817.099609375 459.950195312 767.400390625 514.549804688 c 0
 738 546.75 702.299804688 558.650390625 670.099609375 558.650390625 c 0
 653.299804688 558.650390625 638.599609375 555.849609375 626 550.950195312 c 0
 536.400390625 521.549804688 525.200195312 413.049804688 523.799804688 322.75 c 0
 523.799804688 314.349609375 523.799804688 305.950195312 523.799804688 297.549804688 c 0
616.900390625 303.150390625 m 0
 616.900390625 312.950195312 616.900390625 323.450195312 616.900390625 333.950195312 c 0
 616.900390625 417.950195312 617.599609375 507.549804688 670.099609375 507.549804688 c 0
 688.299804688 507.549804688 703.700195312 492.849609375 711.400390625 473.25 c 0
 721.200195312 448.049804688 724 384.349609375 724 331.849609375 c 0
 724 322.75 723.299804688 314.349609375 723.299804688 306.650390625 c 0
 721.900390625 196.75 724 140.75 700.900390625 109.950195312 c 0
 688.299804688 92.4501953125 673.599609375 91.75 670.099609375 91.75 c 0
 662.400390625 91.75 655.400390625 95.25 649.799804688 98.75 c 0
 620.400390625 120.450195312 616.900390625 165.25 616.900390625 303.150390625 c 0
173.799804688 297.549804688 m 0
 173.799804688 182.75 180.099609375 41.349609375 319.400390625 41.349609375 c 0
 336.200195312 41.349609375 350.900390625 44.150390625 363.5 48.349609375 c 4
 465.700195312 79.150390625 467.099609375 205.849609375 467.099609375 303.150390625 c 2
 467.099609375 310.150390625 l 2
 467.099609375 358.450195312 467.099609375 459.950195312 417.400390625 514.549804688 c 0
 388 546.75 352.299804688 558.650390625 320.099609375 558.650390625 c 0
 303.299804688 558.650390625 288.599609375 555.849609375 276 550.950195312 c 0
 186.400390625 521.549804688 175.200195312 413.049804688 173.799804688 322.75 c 0
 173.799804688 314.349609375 173.799804688 305.950195312 173.799804688 297.549804688 c 0
266.900390625 303.150390625 m 0
 266.900390625 312.950195312 266.900390625 323.450195312 266.900390625 333.950195312 c 0
 266.900390625 417.950195312 267.599609375 507.549804688 320.099609375 507.549804688 c 0
 338.299804688 507.549804688 353.700195312 492.849609375 361.400390625 473.25 c 0
 371.200195312 448.049804688 374 384.349609375 374 331.849609375 c 0
 374 322.75 373.299804688 314.349609375 373.299804688 306.650390625 c 0
 371.900390625 196.75 374 140.75 350.900390625 109.950195312 c 0
 338.299804688 92.4501953125 323.599609375 91.75 320.099609375 91.75 c 0
 312.400390625 91.75 305.400390625 95.25 299.799804688 98.75 c 0
 270.400390625 120.450195312 266.900390625 165.25 266.900390625 303.150390625 c 0
EndSplineSet
EndChar
StartChar: uF2918
Encoding: 993560 993560 354
Width: 1000
Flags: MW
LayerCount: 2
Fore
SplineSet
50 300 m 0
 50 584 236 760 501 760 c 0
 758 760 949 589 950 300 c 0
 950 21 769 -160 499 -160 c 0
 230 -160 50 24 50 300 c 0
525.200195312 296.150390625 m 0
 525.200195312 240.150390625 527.299804688 145.650390625 574.900390625 88.9501953125 c 0
 598.700195312 60.25 632.299804688 41.349609375 675 41.349609375 c 0
 701.599609375 41.349609375 754.799804688 42.75 796.099609375 106.450195312 c 0
 820.599609375 145.650390625 821.299804688 189.049804688 821.299804688 227.549804688 c 2
 821.299804688 231.75 l 2
 821.299804688 276.549804688 818.5 314.349609375 791.900390625 353.549804688 c 0
 776.5 375.25 752.700195312 401.849609375 699.5 401.849609375 c 0
 658.200195312 401.849609375 635.799804688 365.450195312 623.900390625 330.450195312 c 1
 623.900390625 399.049804688 631.599609375 434.049804688 641.400390625 454.349609375 c 0
 648.400390625 469.75 668.700195312 496.349609375 709.299804688 496.349609375 c 0
 733.099609375 496.349609375 749.900390625 490.049804688 771.599609375 479.549804688 c 1
 771.599609375 543.950195312 l 1
 746.400390625 555.150390625 729.599609375 558.650390625 707.200195312 558.650390625 c 0
 652.599609375 558.650390625 601.5 534.150390625 567.200195312 482.349609375 c 0
 547.599609375 452.950195312 525.200195312 407.450195312 525.200195312 296.150390625 c 0
624.599609375 233.849609375 m 0
 624.599609375 242.25 624.599609375 249.950195312 625.299804688 258.349609375 c 0
 628.099609375 305.950195312 641.400390625 350.75 677.799804688 350.75 c 0
 700.200195312 350.75 711.400390625 338.849609375 717 321.349609375 c 0
 723.299804688 302.450195312 722.599609375 275.849609375 723.299804688 248.549804688 c 2
 723.299804688 224.75 l 2
 722.599609375 208.650390625 723.299804688 191.849609375 722.599609375 175.75 c 0
 721.200195312 138.650390625 712.099609375 107.150390625 676.400390625 107.150390625 c 0
 631.599609375 107.150390625 625.299804688 160.349609375 624.599609375 217.049804688 c 4
 624.599609375 222.650390625 624.599609375 228.25 624.599609375 233.849609375 c 0
192.700195312 459.25 m 1
 226.299804688 459.25 259.200195312 462.049804688 288.599609375 470.450195312 c 1
 288.599609375 107.849609375 l 1
 203.200195312 107.849609375 l 1
 203.200195312 56.75 l 1
 467.799804688 56.75 l 1
 467.799804688 107.849609375 l 1
 385.200195312 107.849609375 l 1
 385.200195312 558.650390625 l 1
 360.700195312 558.650390625 l 1
 321.5 525.75 273.900390625 510.349609375 192.700195312 510.349609375 c 1
 192.700195312 459.25 l 1
EndSplineSet
EndChar
StartChar: uF2919
Encoding: 993561 993561 355
Width: 1000
Flags: MW
LayerCount: 2
Fore
SplineSet
50 300 m 0
 50 584 236 760 501 760 c 0
 758 760 949 589 950 300 c 0
 950 21 769 -160 499 -160 c 0
 230 -160 50 24 50 300 c 0
525.200195312 463.80078125 m 1
 776.5 464.5 l 1
 655.400390625 356 593.099609375 202.69921875 593.099609375 45.19921875 c 1
 692.5 45.19921875 l 1
 692.5 192.900390625 731.700195312 348.30078125 831.799804688 468.69921875 c 1
 831.799804688 539.400390625 l 1
 525.200195312 539.400390625 l 1
 525.200195312 463.80078125 l 1
192.700195312 455.400390625 m 1
 226.299804688 455.400390625 259.200195312 458.19921875 288.599609375 466.599609375 c 1
 288.599609375 104 l 1
 203.200195312 104 l 1
 203.200195312 52.900390625 l 1
 467.799804688 52.900390625 l 1
 467.799804688 104 l 1
 385.200195312 104 l 1
 385.200195312 554.80078125 l 1
 360.700195312 554.80078125 l 1
 321.5 521.900390625 273.900390625 506.5 192.700195312 506.5 c 1
 192.700195312 455.400390625 l 1
EndSplineSet
EndChar
StartChar: uF2931
Encoding: 993585 993585 379
Width: 1000
Flags: MW
LayerCount: 2
Fore
SplineSet
50 300 m 0
 50 584 236 760 501 760 c 0
 758 760 949 589 950 300 c 0
 950 21 769 -160 499 -160 c 0
 230 -160 50 24 50 300 c 0
542.700195312 451.549804688 m 1
 576.299804688 451.549804688 609.200195312 454.349609375 638.599609375 462.75 c 1
 638.599609375 100.149414062 l 1
 553.200195312 100.149414062 l 1
 553.200195312 49.0498046875 l 1
 817.799804688 49.0498046875 l 1
 817.799804688 100.149414062 l 1
 735.200195312 100.149414062 l 1
 735.200195312 550.950195312 l 1
 710.700195312 550.950195312 l 1
 671.5 518.049804688 623.900390625 502.649414062 542.700195312 502.649414062 c 1
 542.700195312 451.549804688 l 1
166.799804688 155.450195312 m 1
 336.900390625 155.450195312 l 1
 336.900390625 49.0498046875 l 1
 423 49.0498046875 l 1
 423 155.450195312 l 1
 486 155.450195312 l 1
 486 221.950195312 l 1
 423 221.950195312 l 1
 423 535.549804688 l 1
 319.400390625 535.549804688 l 1
 166.799804688 221.950195312 l 1
 166.799804688 221.950195312 l 1
 166.799804688 155.450195312 l 1
240.299804688 221.950195312 m 1
 308.900390625 375.25 329.900390625 418.649414062 339.700195312 463.450195312 c 1
 339.700195312 221.950195312 l 1
 240.299804688 221.950195312 l 1
EndSplineSet
EndChar
StartChar: uF2932
Encoding: 993586 993586 380
Width: 1000
Flags: MW
LayerCount: 2
Fore
SplineSet
50 300 m 0
 50 584 236 760 501 760 c 0
 758 760 949 589 950 300 c 0
 950 21 769 -160 499 -160 c 0
 230 -160 50 24 50 300 c 0
525.200195312 450.849609375 m 1
 573.5 389.25 l 1
 586.099609375 434.75 607.799804688 480.950195312 652.599609375 480.950195312 c 0
 693.200195312 480.950195312 714.200195312 435.450195312 714.200195312 388.549804688 c 0
 714.200195312 313.649414062 658.200195312 256.950195312 633 226.849609375 c 2
 531.5 119.049804688 l 1
 531.5 49.0498046875 l 1
 810.099609375 49.0498046875 l 1
 810.099609375 124.649414062 l 1
 598 123.25 l 1
 677.799804688 209.349609375 l 2
 758.299804688 282.149414062 810.099609375 318.549804688 810.099609375 389.950195312 c 0
 810.099609375 471.149414062 752 550.950195312 661 550.950195312 c 0
 584.700195312 550.950195312 544.799804688 499.149414062 525.200195312 450.849609375 c 1
166.799804688 155.450195312 m 1
 336.900390625 155.450195312 l 1
 336.900390625 49.0498046875 l 1
 423 49.0498046875 l 1
 423 155.450195312 l 1
 486 155.450195312 l 1
 486 221.950195312 l 1
 423 221.950195312 l 1
 423 535.549804688 l 1
 319.400390625 535.549804688 l 1
 166.799804688 221.950195312 l 1
 166.799804688 221.950195312 l 1
 166.799804688 155.450195312 l 1
240.299804688 221.950195312 m 1
 308.900390625 375.25 329.900390625 418.649414062 339.700195312 463.450195312 c 1
 339.700195312 221.950195312 l 1
 240.299804688 221.950195312 l 1
EndSplineSet
EndChar
StartChar: uF2934
Encoding: 993588 993588 382
Width: 1000
Flags: MW
LayerCount: 2
Fore
SplineSet
50 300 m 0
 50 584 236 760 501 760 c 0
 758 760 949 589 950 300 c 0
 950 21 769 -160 499 -160 c 0
 230 -160 50 24 50 300 c 0
516.799804688 163.150390625 m 1
 686.900390625 163.150390625 l 1
 686.900390625 56.75 l 1
 773 56.75 l 1
 773 163.150390625 l 1
 836 163.150390625 l 1
 836 229.650390625 l 1
 773 229.650390625 l 1
 773 543.25 l 1
 669.400390625 543.25 l 1
 516.799804688 229.650390625 l 1
 516.799804688 229.650390625 l 1
 516.799804688 163.150390625 l 1
590.299804688 229.650390625 m 1
 658.900390625 382.950195312 679.900390625 426.349609375 689.700195312 471.150390625 c 1
 689.700195312 229.650390625 l 1
 590.299804688 229.650390625 l 1
166.799804688 163.150390625 m 1
 336.900390625 163.150390625 l 1
 336.900390625 56.75 l 1
 423 56.75 l 1
 423 163.150390625 l 1
 486 163.150390625 l 1
 486 229.650390625 l 1
 423 229.650390625 l 1
 423 543.25 l 1
 319.400390625 543.25 l 1
 166.799804688 229.650390625 l 1
 166.799804688 229.650390625 l 1
 166.799804688 163.150390625 l 1
240.299804688 229.650390625 m 1
 308.900390625 382.950195312 329.900390625 426.349609375 339.700195312 471.150390625 c 1
 339.700195312 229.650390625 l 1
 240.299804688 229.650390625 l 1
EndSplineSet
EndChar
StartChar: uF2937
Encoding: 993591 993591 385
Width: 1000
Flags: MW
LayerCount: 2
Fore
SplineSet
50 300 m 0
 50 584 236 760 501 760 c 0
 758 760 949 589 950 300 c 0
 950 21 769 -160 499 -160 c 0
 230 -160 50 24 50 300 c 0
525.200195312 471.5 m 1
 776.5 472.19921875 l 1
 655.400390625 363.69921875 593.099609375 210.400390625 593.099609375 52.900390625 c 1
 692.5 52.900390625 l 1
 692.5 200.599609375 731.700195312 356 831.799804688 476.400390625 c 1
 831.799804688 547.099609375 l 1
 525.200195312 547.099609375 l 1
 525.200195312 471.5 l 1
166.799804688 167 m 1
 336.900390625 167 l 1
 336.900390625 60.599609375 l 1
 423 60.599609375 l 1
 423 167 l 1
 486 167 l 1
 486 233.5 l 1
 423 233.5 l 1
 423 547.099609375 l 1
 319.400390625 547.099609375 l 1
 166.799804688 233.5 l 1
 166.799804688 233.5 l 1
 166.799804688 167 l 1
240.299804688 233.5 m 1
 308.900390625 386.80078125 329.900390625 430.19921875 339.700195312 475 c 1
 339.700195312 233.5 l 1
 240.299804688 233.5 l 1
EndSplineSet
EndChar
StartChar: uF293C
Encoding: 993596 993596 390
Width: 1000
Flags: MW
LayerCount: 2
Fore
SplineSet
50 300 m 0
 50 584 236 760 501 760 c 0
 758 760 949 589 950 300 c 0
 950 21 769 -160 499 -160 c 0
 230 -160 50 24 50 300 c 0
525.200195312 458.549804688 m 1
 573.5 396.950195312 l 1
 586.099609375 442.450195312 607.799804688 488.650390625 652.599609375 488.650390625 c 0
 693.200195312 488.650390625 714.200195312 443.150390625 714.200195312 396.25 c 0
 714.200195312 321.349609375 658.200195312 264.650390625 633 234.549804688 c 2
 531.5 126.75 l 1
 531.5 56.75 l 1
 810.099609375 56.75 l 1
 810.099609375 132.349609375 l 1
 598 130.950195312 l 1
 677.799804688 217.049804688 l 2
 758.299804688 289.849609375 810.099609375 326.25 810.099609375 397.650390625 c 0
 810.099609375 478.849609375 752 558.650390625 661 558.650390625 c 0
 584.700195312 558.650390625 544.799804688 506.849609375 525.200195312 458.549804688 c 1
170.299804688 114.150390625 m 1
 180.099609375 100.150390625 203.200195312 72.150390625 244.5 55.349609375 c 0
 262 46.9501953125 281.599609375 41.349609375 304.700195312 41.349609375 c 0
 342.5 41.349609375 387.299804688 52.5498046875 420.900390625 85.4501953125 c 0
 447.5 111.349609375 464.299804688 150.549804688 464.299804688 210.049804688 c 0
 464.299804688 273.049804688 447.5 315.049804688 418.799804688 340.950195312 c 4
 393.599609375 363.349609375 360 373.150390625 327.799804688 373.150390625 c 0
 308.200195312 373.150390625 297 367.549804688 285.799804688 361.25 c 1
 285.799804688 472.549804688 l 1
 438.400390625 472.549804688 l 1
 438.400390625 543.25 l 1
 202.5 543.25 l 1
 202.5 263.950195312 l 1
 269.700195312 263.950195312 l 2
 270.400390625 263.950195312 284.400390625 322.049804688 325 322.049804688 c 0
 337.599609375 322.049804688 346 315.049804688 350.900390625 304.549804688 c 0
 359.299804688 287.049804688 360.700195312 258.349609375 360.700195312 230.349609375 c 2
 360.700195312 210.75 l 2
 360.700195312 179.25 359.299804688 151.25 349.5 132.349609375 c 0
 341.099609375 116.25 327.099609375 107.150390625 302.599609375 107.150390625 c 0
 288.599609375 107.150390625 272.5 111.349609375 258.5 120.450195312 c 0
 245.200195312 128.150390625 231.200195312 139.349609375 220 154.75 c 0
 215.099609375 161.75 211.599609375 168.049804688 207.400390625 175.049804688 c 1
 170.299804688 114.150390625 l 1
EndSplineSet
EndChar
